<?xml version="1.0" encoding="utf-8"?>
<!-- Generator: Adobe Illustrator 21.0.0, SVG Export Plug-In . SVG Version: 6.00 Build 0)  -->
<svg version="1.1" id="图层_1" xmlns="http://www.w3.org/2000/svg" xmlns:xlink="http://www.w3.org/1999/xlink" x="0px" y="0px"
	 viewBox="0 0 1024 1024" style="enable-background:new 0 0 1024 1024;" xml:space="preserve">
<style type="text/css">
	.st0{fill:#70F3FF;}
	.st1{fill:#4B5CC4;}
</style>
<g>
	<polygon class="st0" points="735.1,824.8 643.1,824.8 647.7,811 730.5,811 	"/>
	<g>
		<rect x="95.7" y="916.8" class="st1" width="832.3" height="9.2"/>
	</g>
	<g>
		<polygon class="st0" points="690.2,323.4 687.9,323.4 684.5,346.4 693.7,346.4 		"/>
	</g>
	<g>
		<path class="st1" d="M555.7,926h266.8l-92-119.6V355.6l46-138h-41.4v-18.4h-41.4v-18.4h18.4v-23h-18.7L689.1,98l-4.3,59.8h-18.7
			v23h18.4v18.4h-41.4v18.4h-41.4l46,138v450.8L555.7,926z M675.3,171.6V167h27.6v4.6h-9.2h-9.2H675.3z M652.3,208.4h32.2h9.2h32.2
			v9.2h-73.6V208.4z M637.5,295.8h24c2.5,0,4.6-2.1,4.6-4.6c0-2.5-2.1-4.6-4.6-4.6h-27.1l-4.6-13.8h13.3c2.5,0,4.6-2.1,4.6-4.6
			c0-2.5-2.1-4.6-4.6-4.6h-13.8c-0.9,0-1.6,0.3-2.3,0.7l-4.8-14.5h53.2c2.5,0,4.6-2.1,4.6-4.6c0-2.5-2.1-4.6-4.6-4.6h-55.2
			c-0.3,0-0.6,0.1-1,0.2l-4.7-14h28.6h92h28.6l-4.7,14c-0.3-0.1-0.6-0.2-1-0.2h-32.2c-2.5,0-4.6,2.1-4.6,4.6c0,2.5,2.1,4.6,4.6,4.6
			h30.2l-4.8,14.5c-0.7-0.4-1.5-0.7-2.3-0.7h-36.8c-2.5,0-4.6,2.1-4.6,4.6c0,2.5,2.1,4.6,4.6,4.6h36.3l-4.6,13.8h-27.1
			c-2.5,0-4.6,2.1-4.6,4.6c0,2.5,2.1,4.6,4.6,4.6h24l-16.9,50.6h-17.7l-12.4-82.8h-9.2l-12.4,82.8h-17.7L637.5,295.8z M707.5,355.6
			h13.8v450.8h-64.4V355.6h13.8H707.5z M681.4,346.4l7.7-51.4l7.7,51.4H681.4z M652.2,815.6H726l14.2,18.4h-18.8
			c-2.5,0-4.6,2.1-4.6,4.6c0,2.5,2.1,4.6,4.6,4.6h25.9l14.2,18.4h-21.7c-2.5,0-4.6,2.1-4.6,4.6c0,2.5,2.1,4.6,4.6,4.6h27.6
			c0.3,0,0.7-0.1,1-0.2l14.3,18.6h-93.5c-2.5,0-4.6,2.1-4.6,4.6c0,2.5,2.1,4.6,4.6,4.6h100.6l14.2,18.4H574.4l14.2-18.4h50
			c2.5,0,4.6-2.1,4.6-4.6c0-2.5-2.1-4.6-4.6-4.6h-42.9l14.3-18.6c0.3,0.1,0.6,0.2,1,0.2h46c2.5,0,4.6-2.1,4.6-4.6
			c0-2.5-2.1-4.6-4.6-4.6h-40.1l14.2-18.4h71.9c2.5,0,4.6-2.1,4.6-4.6c0-2.5-2.1-4.6-4.6-4.6h-64.8L652.2,815.6z"/>
		<path class="st1" d="M670.7,470.6c0,2.5,2.1,4.6,4.6,4.6c2.5,0,4.6-2.1,4.6-4.6v-92c0-2.5-2.1-4.6-4.6-4.6c-2.5,0-4.6,2.1-4.6,4.6
			V470.6z"/>
		<path class="st1" d="M702.9,502.8c2.5,0,4.6-2.1,4.6-4.6v-73.6c0-2.5-2.1-4.6-4.6-4.6c-2.5,0-4.6,2.1-4.6,4.6v73.6
			C698.3,500.7,700.3,502.8,702.9,502.8z"/>
		<path class="st1" d="M702.9,410.8c2.5,0,4.6-2.1,4.6-4.6v-36.8c0-2.5-2.1-4.6-4.6-4.6c-2.5,0-4.6,2.1-4.6,4.6v36.8
			C698.3,408.7,700.3,410.8,702.9,410.8z"/>
		<path class="st1" d="M702.9,558c2.5,0,4.6-2.1,4.6-4.6v-36.8c0-2.5-2.1-4.6-4.6-4.6c-2.5,0-4.6,2.1-4.6,4.6v36.8
			C698.3,555.9,700.3,558,702.9,558z"/>
		<path class="st1" d="M702.9,788c2.5,0,4.6-2.1,4.6-4.6v-46c0-2.5-2.1-4.6-4.6-4.6c-2.5,0-4.6,2.1-4.6,4.6v46
			C698.3,785.9,700.3,788,702.9,788z"/>
		<path class="st1" d="M702.9,723.6c2.5,0,4.6-2.1,4.6-4.6v-18.4c0-2.5-2.1-4.6-4.6-4.6c-2.5,0-4.6,2.1-4.6,4.6V719
			C698.3,721.5,700.3,723.6,702.9,723.6z"/>
		<path class="st1" d="M675.3,622.4c-2.5,0-4.6,2.1-4.6,4.6v18.4c0,2.5,2.1,4.6,4.6,4.6c2.5,0,4.6-2.1,4.6-4.6V627
			C679.9,624.5,677.8,622.4,675.3,622.4z"/>
		<path class="st1" d="M675.3,760.4c-2.5,0-4.6,2.1-4.6,4.6v27.6c0,2.5,2.1,4.6,4.6,4.6c2.5,0,4.6-2.1,4.6-4.6V765
			C679.9,762.4,677.8,760.4,675.3,760.4z"/>
		<path class="st1" d="M675.3,530.4c-2.5,0-4.6,2.1-4.6,4.6v73.6c0,2.5,2.1,4.6,4.6,4.6c2.5,0,4.6-2.1,4.6-4.6V535
			C679.9,532.5,677.8,530.4,675.3,530.4z"/>
		<path class="st1" d="M702.9,686.8c2.5,0,4.6-2.1,4.6-4.6V571.8c0-2.5-2.1-4.6-4.6-4.6c-2.5,0-4.6,2.1-4.6,4.6v110.4
			C698.3,684.7,700.3,686.8,702.9,686.8z"/>
		<path class="st1" d="M675.3,659.2c-2.5,0-4.6,2.1-4.6,4.6v82.8c0,2.5,2.1,4.6,4.6,4.6c2.5,0,4.6-2.1,4.6-4.6v-82.8
			C679.9,661.3,677.8,659.2,675.3,659.2z"/>
		<path class="st1" d="M675.3,484.4c-2.5,0-4.6,2.1-4.6,4.6v27.6c0,2.5,2.1,4.6,4.6,4.6c2.5,0,4.6-2.1,4.6-4.6V489
			C679.9,486.5,677.8,484.4,675.3,484.4z"/>
		<path class="st1" d="M716.7,323.4h9.2c2.5,0,4.6-2.1,4.6-4.6c0-2.5-2.1-4.6-4.6-4.6h-9.2c-2.5,0-4.6,2.1-4.6,4.6
			C712.1,321.3,714.1,323.4,716.7,323.4z"/>
		<path class="st1" d="M666.1,318.8c2.5,0,4.6-2.1,4.6-4.6c0-2.5-2.1-4.6-4.6-4.6h-9.2c-2.5,0-4.6,2.1-4.6,4.6
			c0,2.5,2.1,4.6,4.6,4.6H666.1z"/>
		<path class="st1" d="M702.9,249.8h4.6c2.5,0,4.6-2.1,4.6-4.6c0-2.5-2.1-4.6-4.6-4.6h-4.6c-2.5,0-4.6,2.1-4.6,4.6
			C698.3,247.8,700.3,249.8,702.9,249.8z"/>
		<path class="st1" d="M670.7,268.2c0-2.5-2.1-4.6-4.6-4.6h-4.6c-2.5,0-4.6,2.1-4.6,4.6c0,2.5,2.1,4.6,4.6,4.6h4.6
			C668.6,272.8,670.7,270.8,670.7,268.2z"/>
		<path class="st1" d="M670.7,889.2h-13.8c-2.5,0-4.6,2.1-4.6,4.6c0,2.5,2.1,4.6,4.6,4.6h13.8c2.5,0,4.6-2.1,4.6-4.6
			C675.3,891.2,673.2,889.2,670.7,889.2z"/>
		<path class="st1" d="M670.7,866.2c0,2.5,2.1,4.6,4.6,4.6h46c2.5,0,4.6-2.1,4.6-4.6c0-2.5-2.1-4.6-4.6-4.6h-46
			C672.8,861.6,670.7,863.6,670.7,866.2z"/>
	</g>
	<g>
		<path class="st1" d="M196.9,199.2c2.5,0,4.6-2.1,4.6-4.6c0-20.3-16.5-36.8-36.8-36.8s-36.8,16.5-36.8,36.8c0,2.5,2.1,4.6,4.6,4.6
			c2.5,0,4.6-2.1,4.6-4.6c0-15.2,12.4-27.6,27.6-27.6c15.2,0,27.6,12.4,27.6,27.6C192.3,197.2,194.4,199.2,196.9,199.2z"/>
		<path class="st1" d="M242.9,208.4c0-2.5-2.1-4.6-4.6-4.6h-46c-2.5,0-4.6,2.1-4.6,4.6c0,2.5,2.1,4.6,4.6,4.6h46
			C240.9,213,242.9,211,242.9,208.4z"/>
		<path class="st1" d="M528.1,429.2c2.5,0,4.6-2.1,4.6-4.6c0-20.3-16.5-36.8-36.8-36.8c-20.3,0-36.8,16.5-36.8,36.8
			c0,2.5,2.1,4.6,4.6,4.6c2.5,0,4.6-2.1,4.6-4.6c0-15.2,12.4-27.6,27.6-27.6c15.2,0,27.6,12.4,27.6,27.6
			C523.5,427.1,525.6,429.2,528.1,429.2z"/>
		<path class="st1" d="M569.5,433.8h-46c-2.5,0-4.6,2.1-4.6,4.6c0,2.5,2.1,4.6,4.6,4.6h46c2.5,0,4.6-2.1,4.6-4.6
			C574.1,435.9,572,433.8,569.5,433.8z"/>
		<path class="st1" d="M923.7,217.6H882c-2.3-18.1-17.7-32.2-36.5-32.2c-13.9,0-26.5,7.7-32.8,20.2c-1.9,3.8-3.2,7.8-3.7,12h-14.1
			c-2.5,0-4.6,2.1-4.6,4.6c0,2.5,2.1,4.6,4.6,4.6h18.4c2.5,0,4.6-2.1,4.6-4.6c0-4.4,1-8.6,3-12.5c4.7-9.3,14.2-15.1,24.6-15.1
			c15.2,0,27.6,12.4,27.6,27.6c0,0.6,0.1,1.2,0.4,1.8c0.7,1.7,2.3,2.8,4.2,2.8h46c2.5,0,4.6-2.1,4.6-4.6
			C928.3,219.7,926.2,217.6,923.7,217.6z"/>
		<path class="st1" d="M463.7,157.8c0,2.5,2.1,4.6,4.6,4.6s4.6-2.1,4.6-4.6c0-12.7-10.3-23-23-23c-6.7,0-12.9,2.9-17.2,7.7
			c-5.8-12.7-18.6-21.5-33.4-21.5c-13.9,0-26.5,7.7-32.8,20.2c-1.9,3.8-3.2,7.8-3.7,12h-14.1c-2.5,0-4.6,2.1-4.6,4.6
			c0,2.5,2.1,4.6,4.6,4.6h18.4c2.5,0,4.6-2.1,4.6-4.6c0-4.4,1-8.6,3-12.5c4.7-9.3,14.2-15.1,24.6-15.1c15.2,0,27.6,12.4,27.6,27.6
			c0,2.5,2.1,4.6,4.6,4.6c2.5,0,4.6-2.1,4.6-4.6c0-2.2,0.5-4.3,1.5-6.2c2.4-4.7,7.1-7.6,12.3-7.6C457.5,144,463.7,150.2,463.7,157.8
			z"/>
		<circle class="st1" cx="334.9" cy="157.8" r="4.6"/>
		<path class="st1" d="M339.5,332.6c-6.7,0-12.9,2.9-17.2,7.7c-5.8-12.7-18.6-21.5-33.4-21.5c-13.9,0-26.5,7.7-32.8,20.2
			c-1.9,3.8-3.2,7.8-3.7,12h-14.1c-2.5,0-4.6,2.1-4.6,4.6c0,2.5,2.1,4.6,4.6,4.6h18.4c2.5,0,4.6-2.1,4.6-4.6c0-4.4,1-8.6,3-12.5
			c4.7-9.3,14.2-15.1,24.6-15.1c15.2,0,27.6,12.4,27.6,27.6c0,2.5,2.1,4.6,4.6,4.6c2.5,0,4.6-2.1,4.6-4.6c0-2.2,0.5-4.3,1.5-6.2
			c2.4-4.7,7.1-7.6,12.3-7.6c7.6,0,13.8,6.2,13.8,13.8c0,2.5,2.1,4.6,4.6,4.6c2.5,0,4.6-2.1,4.6-4.6
			C362.5,342.9,352.2,332.6,339.5,332.6z"/>
		<circle class="st1" cx="224.5" cy="355.6" r="4.6"/>
	</g>
	<g>
		<path class="st0" d="M436.1,926h-23c0-52-22.8-95.2-52.9-104c3.7-1.1,7.6-1.7,11.5-1.7C407.3,820.2,436.1,867.6,436.1,926z"/>
	</g>
	<g>
		<ellipse class="st0" cx="231.4" cy="721.3" rx="71.3" ry="16.1"/>
	</g>
	<g>
		<path class="st1" d="M430.5,903h-48.6c-0.6,0-1-0.4-1-1v-7.2c0-0.6,0.4-1,1-1h48.6c0.6,0,1,0.4,1,1v7.2
			C431.5,902.5,431.1,903,430.5,903z"/>
	</g>
	<g>
		<path class="st1" d="M252.1,801.8c0-2.5-2.1-4.6-4.6-4.6h-27.6c-2.5,0-4.6,2.1-4.6,4.6c0,2.5,2.1,4.6,4.6,4.6h27.6
			C250.1,806.4,252.1,804.3,252.1,801.8z"/>
		<path class="st1" d="M288.9,829.4c0-2.5-2.1-4.6-4.6-4.6h-36.8c-2.5,0-4.6,2.1-4.6,4.6c0,2.5,2.1,4.6,4.6,4.6h36.8
			C286.9,834,288.9,831.9,288.9,829.4z"/>
		<path class="st1" d="M293.5,847.8h-36.8c-2.5,0-4.6,2.1-4.6,4.6c0,2.5,2.1,4.6,4.6,4.6h36.8c2.5,0,4.6-2.1,4.6-4.6
			C298.1,849.8,296.1,847.8,293.5,847.8z"/>
		<path class="st1" d="M440.7,797.2h-23c-2.5,0-4.6,2.1-4.6,4.6c0,2.5,2.1,4.6,4.6,4.6h23c2.5,0,4.6-2.1,4.6-4.6
			C445.3,799.2,443.2,797.2,440.7,797.2z"/>
		<path class="st1" d="M486.7,834c0-2.5-2.1-4.6-4.6-4.6h-32.2c-2.5,0-4.6,2.1-4.6,4.6c0,2.5,2.1,4.6,4.6,4.6h32.2
			C484.6,838.6,486.7,836.5,486.7,834z"/>
		<path class="st1" d="M509.7,847.8h-32.2c-2.5,0-4.6,2.1-4.6,4.6c0,2.5,2.1,4.6,4.6,4.6h32.2c2.5,0,4.6-2.1,4.6-4.6
			C514.3,849.8,512.2,847.8,509.7,847.8z"/>
		<path class="st1" d="M509.7,829.4h-9.2c-2.5,0-4.6,2.1-4.6,4.6c0,2.5,2.1,4.6,4.6,4.6h9.2c2.5,0,4.6-2.1,4.6-4.6
			C514.3,831.4,512.2,829.4,509.7,829.4z"/>
		<path class="st1" d="M238.3,847.8h-9.2c-2.5,0-4.6,2.1-4.6,4.6c0,2.5,2.1,4.6,4.6,4.6h9.2c2.5,0,4.6-2.1,4.6-4.6
			C242.9,849.8,240.9,847.8,238.3,847.8z"/>
		<path class="st1" d="M325.7,797.2h-59.8c-2.5,0-4.6,2.1-4.6,4.6c0,2.5,2.1,4.6,4.6,4.6h59.8c2.5,0,4.6-2.1,4.6-4.6
			C330.3,799.2,328.2,797.2,325.7,797.2z"/>
		<path class="st1" d="M454.5,801.8c0,2.5,2.1,4.6,4.6,4.6h64.4c2.5,0,4.6-2.1,4.6-4.6c0-2.5-2.1-4.6-4.6-4.6h-64.4
			C456.6,797.2,454.5,799.2,454.5,801.8z"/>
		<path class="st1" d="M399.3,797.2h-55.2c-2.5,0-4.6,2.1-4.6,4.6c0,2.5,2.1,4.6,4.6,4.6h55.2c2.5,0,4.6-2.1,4.6-4.6
			C403.9,799.2,401.8,797.2,399.3,797.2z"/>
		<path class="st1" d="M433.3,770.6c-40.8-6.1-82.3-6.1-123.1,0c-41.5,6.2-83.6,5.9-125.1-0.7l-45.1-7.2l0.8,9.4l25.3,4l40.1,113
			v9.2v9.2V926h101.2h50.6h27.6h50.6h101.2v-18.4v-9.2v-9.2l40.1-113l25.4-4.1l0.8-9.4l-45.2,7.2
			C516.9,776.5,474.8,776.8,433.3,770.6z M215.3,889.2h96c0-0.1,0.1-0.2,0.1-0.4c-0.7,3.3-1.4,6.6-2,10.1c0-0.2,0-0.4,0.1-0.5h-94.2
			V889.2z M339.8,847.8h63.7c2.2,2.8,4.3,5.9,6.3,9.2h-76.3C335.5,853.7,337.6,850.6,339.8,847.8z M348.7,838.6
			c7-5.8,14.8-9.2,23-9.2c8.2,0,15.9,3.4,23,9.2H348.7z M328.9,865.9c0.4,0.1,0.9,0.3,1.4,0.3h82.8c0.5,0,1-0.1,1.4-0.3
			c1.4,3,2.7,6.2,3.9,9.5H325C326.2,872.1,327.5,868.9,328.9,865.9z M215.3,916.8v-9.2h93c0-0.3,0.1-0.6,0.1-0.9
			c-0.4,3.3-0.7,6.7-0.8,10.1H215.3z M316.8,916.8c0.3-4.7,0.8-9.3,1.5-13.8h39.7v13.8H316.8z M367.1,916.8v-18.4h9.2v18.4H367.1z
			 M385.5,916.8v-27.6h-27.6v4.6h-38.1c0.7-3.1,1.4-6.2,2.2-9.2h99.3c2.8,10,4.7,20.8,5.3,32.2H385.5z M528.1,916.8h-92.3
			c-0.2-3.4-0.5-6.8-0.8-10.1c0,0.3,0.1,0.6,0.1,0.9h93V916.8z M528.1,898.4h-94.2c0,0.2,0,0.4,0.1,0.5c-0.6-3.4-1.2-6.8-2-10.1
			c0,0.1,0.1,0.2,0.1,0.4h96V898.4z M567.1,777.8L530.8,880H429.7c-10.4-35.4-32.5-59.8-58-59.8c-25.5,0-47.6,24.4-58,59.8H212.6
			l-36.3-102.2l7.2,1.2c22,3.5,44.2,5.3,66.4,5.3c20.6,0,41.1-1.5,61.6-4.5c40-5.9,80.5-5.9,120.4,0c42.5,6.3,85.5,6,127.9-0.7
			L567.1,777.8z"/>
		<path class="st1" d="M433.3,752.2c-40.8-6-82.3-6.1-123.1,0c-41.5,6.2-83.6,5.9-125.1-0.7l-46.8-7.5l0.8,9.4l44.5,7.1
			c22,3.5,44.2,5.3,66.4,5.3c20.6,0,41.1-1.5,61.6-4.5c40-5.9,80.5-5.9,120.4,0c42.5,6.3,85.5,6,127.9-0.7l44.6-7.1l0.8-9.4
			l-46.9,7.5C516.9,758.1,474.8,758.4,433.3,752.2z"/>
		<path class="st1" d="M433.3,733.8c-40.8-6-82.3-6.1-123.1,0c-41.5,6.2-83.6,5.9-125.1-0.7l-48.4-7.7l0.8,9.4l46.1,7.4
			c22,3.5,44.2,5.3,66.4,5.3c20.6,0,41.1-1.5,61.6-4.5c40-5.9,80.5-5.9,120.4,0c42.5,6.3,85.5,6,127.9-0.7l46.2-7.4l0.8-9.4
			l-48.5,7.8C516.9,739.7,474.8,740,433.3,733.8z"/>
		<path class="st1" d="M433.3,715.4c-40.8-6-82.3-6.1-123.1,0c-41.5,6.2-83.6,5.9-125.1-0.7l-50-8l0.8,9.4l47.8,7.6
			c22,3.5,44.2,5.3,66.4,5.3c20.6,0,41.1-1.5,61.6-4.5c40-5.9,80.5-5.9,120.4,0c42.5,6.3,85.5,6,127.9-0.7l47.9-7.7l0.8-9.4l-50.1,8
			C516.9,721.3,474.8,721.6,433.3,715.4z"/>
		<path class="st1" d="M558.4,696.3c-41.5,6.6-83.6,6.9-125.1,0.7c-40.8-6.1-82.3-6.1-123.1,0c-41.5,6.2-83.6,5.9-125.1-0.7
			l-51.7-8.3l0.8,9.4l49.4,7.9c22,3.5,44.2,5.3,66.4,5.3c20.6,0,41.1-1.5,61.6-4.5c40-5.9,80.5-5.9,120.4,0
			c42.5,6.3,85.5,6,127.9-0.7l49.5-7.9l0.8-9.4L558.4,696.3z"/>
	</g>
	<g>
		<rect x="689.1" y="415.4" class="st0" width="4.6" height="69"/>
	</g>
	<g>
		<rect x="684.5" y="558" class="st0" width="4.6" height="69"/>
	</g>
</g>
</svg>
