<?xml version="1.0" encoding="utf-8"?>
<!-- Generator: Adobe Illustrator 21.0.0, SVG Export Plug-In . SVG Version: 6.00 Build 0)  -->
<svg version="1.1" id="图层_1" xmlns="http://www.w3.org/2000/svg" xmlns:xlink="http://www.w3.org/1999/xlink" x="0px" y="0px"
	 viewBox="0 0 1024 1024" style="enable-background:new 0 0 1024 1024;" xml:space="preserve">
<style type="text/css">
	.st0{fill:#4B5CC4;}
	.st1{fill:#70F3FF;}
	.st2{fill-rule:evenodd;clip-rule:evenodd;fill:#70F3FF;}
</style>
<g>
	<g>
		<rect x="77.3" y="917.7" class="st0" width="869.4" height="9.7"/>
	</g>
	<g>
		<path class="st0" d="M207.7,270.5c-2.7,0-4.8-2.2-4.8-4.8c0-16-13-29-29-29s-29,13-29,29c0,2.7-2.2,4.8-4.8,4.8s-4.8-2.2-4.8-4.8
			c0-21.3,17.3-38.6,38.6-38.6s38.6,17.3,38.6,38.6C212.5,268.3,210.4,270.5,207.7,270.5z"/>
	</g>
	<g>
		<g>
			<path d="M202.9,282.6c-1.3,0-2.4-1.1-2.4-2.4s1.1-2.4,2.4-2.4h48.3c1.3,0,2.4,1.1,2.4,2.4s-1.1,2.4-2.4,2.4H202.9z"/>
		</g>
		<g>
			<path class="st0" d="M251.2,275.3h-48.3c-2.7,0-4.8,2.2-4.8,4.8c0,2.7,2.2,4.8,4.8,4.8h48.3c2.7,0,4.8-2.2,4.8-4.8
				C256,277.5,253.9,275.3,251.2,275.3L251.2,275.3z"/>
		</g>
	</g>
	<g>
		<g>
			<path d="M236.7,301.9c-1.3,0-2.4-1.1-2.4-2.4s1.1-2.4,2.4-2.4h29c1.3,0,2.4,1.1,2.4,2.4s-1.1,2.4-2.4,2.4H236.7z"/>
		</g>
		<g>
			<path class="st0" d="M265.7,294.7h-29c-2.7,0-4.8,2.2-4.8,4.8c0,2.7,2.2,4.8,4.8,4.8h29c2.7,0,4.8-2.2,4.8-4.8
				C270.5,296.8,268.3,294.7,265.7,294.7L265.7,294.7z"/>
		</g>
	</g>
	<g>
		<path class="st0" d="M743.8,391.3c-2.7,0-4.8-2.2-4.8-4.8c0-16-13-29-29-29s-29,13-29,29c0,2.7-2.2,4.8-4.8,4.8
			c-2.7,0-4.8-2.2-4.8-4.8c0-21.3,17.3-38.6,38.6-38.6s38.6,17.3,38.6,38.6C748.7,389.1,746.5,391.3,743.8,391.3z"/>
	</g>
	<g>
		<g>
			<path d="M739,403.3c-1.3,0-2.4-1.1-2.4-2.4s1.1-2.4,2.4-2.4h48.3c1.3,0,2.4,1.1,2.4,2.4s-1.1,2.4-2.4,2.4H739z"/>
		</g>
		<g>
			<path class="st0" d="M787.3,396.1H739c-2.7,0-4.8,2.2-4.8,4.8c0,2.7,2.2,4.8,4.8,4.8h48.3c2.7,0,4.8-2.2,4.8-4.8
				C792.1,398.2,790,396.1,787.3,396.1L787.3,396.1z"/>
		</g>
	</g>
	<g>
		<g>
			<path d="M787.3,388.8c-1.3,0-2.4-1.1-2.4-2.4s1.1-2.4,2.4-2.4h33.8c1.3,0,2.4,1.1,2.4,2.4s-1.1,2.4-2.4,2.4H787.3z"/>
		</g>
		<g>
			<path class="st0" d="M821.1,381.6h-33.8c-2.7,0-4.8,2.2-4.8,4.8c0,2.7,2.2,4.8,4.8,4.8h33.8c2.7,0,4.8-2.2,4.8-4.8
				C825.9,383.8,823.8,381.6,821.1,381.6L821.1,381.6z"/>
		</g>
	</g>
	<g>
		<g>
			<circle cx="806.6" cy="400.9" r="2.4"/>
		</g>
		<g>
			<path class="st0" d="M806.6,396.1c-2.7,0-4.8,2.2-4.8,4.8c0,2.7,2.2,4.8,4.8,4.8s4.8-2.2,4.8-4.8
				C811.5,398.2,809.3,396.1,806.6,396.1L806.6,396.1z"/>
		</g>
	</g>
	<g>
		<g>
			<path class="st0" d="M888.7,231.9c-2.7,0-4.8-2.2-4.8-4.8c0-16-13-29-29-29c-11,0-20.9,6.1-25.9,15.9c-2.1,4.1-3.1,8.5-3.1,13.1
				c0,2.7-2.2,4.8-4.8,4.8c-2.7,0-4.8-2.2-4.8-4.8c0-6.2,1.4-12,4.2-17.5c6.6-13.1,19.8-21.2,34.5-21.2c21.3,0,38.6,17.3,38.6,38.6
				C893.6,229.7,891.4,231.9,888.7,231.9z"/>
		</g>
		<g>
			<g>
				<path d="M888.7,229.5c-1.3,0-2.4-1.1-2.4-2.4s1.1-2.4,2.4-2.4H937c1.3,0,2.4,1.1,2.4,2.4s-1.1,2.4-2.4,2.4H888.7z"/>
			</g>
			<g>
				<path class="st0" d="M937,222.2h-48.3c-2.7,0-4.8,2.2-4.8,4.8c0,2.7,2.2,4.8,4.8,4.8H937c2.7,0,4.8-2.2,4.8-4.8
					C941.9,224.4,939.7,222.2,937,222.2L937,222.2z"/>
			</g>
		</g>
		<g>
			<g>
				<path d="M801.8,229.5c-1.3,0-2.4-1.1-2.4-2.4s1.1-2.4,2.4-2.4h19.3c1.3,0,2.4,1.1,2.4,2.4s-1.1,2.4-2.4,2.4H801.8z"/>
			</g>
			<g>
				<path class="st0" d="M821.1,222.2h-19.3c-2.7,0-4.8,2.2-4.8,4.8c0,2.7,2.2,4.8,4.8,4.8h19.3c2.7,0,4.8-2.2,4.8-4.8
					C825.9,224.4,823.8,222.2,821.1,222.2L821.1,222.2z"/>
			</g>
		</g>
	</g>
	<g>
		<g>
			<path class="st0" d="M526.5,140.1c-2.7,0-4.8-2.2-4.8-4.8c0-16-13-29-29-29c-11,0-20.9,6.1-25.9,15.9c-2.1,4.1-3.1,8.5-3.1,13.1
				c0,2.7-2.2,4.8-4.8,4.8s-4.8-2.2-4.8-4.8c0-6.2,1.4-12,4.2-17.5c6.6-13.1,19.8-21.2,34.5-21.2c21.3,0,38.6,17.3,38.6,38.6
				C531.3,137.9,529.2,140.1,526.5,140.1z"/>
		</g>
		<g>
			<path class="st0" d="M565.1,140.1c-2.7,0-4.8-2.2-4.8-4.8c0-8-6.5-14.5-14.5-14.5c-5.5,0-10.4,3-12.9,7.9c-1,2-1.6,4.2-1.6,6.5
				c0,2.7-2.2,4.8-4.8,4.8c-2.7,0-4.8-2.2-4.8-4.8c0-3.8,0.9-7.6,2.6-10.9c4.1-8.2,12.4-13.2,21.5-13.2c13.3,0,24.1,10.8,24.1,24.1
				C570,137.9,567.8,140.1,565.1,140.1z"/>
		</g>
		<g>
			<g>
				<path d="M439.6,137.7c-1.3,0-2.4-1.1-2.4-2.4c0-1.3,1.1-2.4,2.4-2.4h19.3c1.3,0,2.4,1.1,2.4,2.4c0,1.3-1.1,2.4-2.4,2.4H439.6z"
					/>
			</g>
			<g>
				<path class="st0" d="M458.9,130.4h-19.3c-2.7,0-4.8,2.2-4.8,4.8c0,2.7,2.2,4.8,4.8,4.8h19.3c2.7,0,4.8-2.2,4.8-4.8
					C463.7,132.6,461.5,130.4,458.9,130.4L458.9,130.4z"/>
			</g>
		</g>
		<g>
			<g>
				<circle cx="425.1" cy="135.3" r="2.4"/>
			</g>
			<g>
				<path class="st0" d="M425.1,130.4c-2.7,0-4.8,2.2-4.8,4.8c0,2.7,2.2,4.8,4.8,4.8c2.7,0,4.8-2.2,4.8-4.8
					C429.9,132.6,427.7,130.4,425.1,130.4L425.1,130.4z"/>
			</g>
		</g>
	</g>
	<g>
		<g>
			<path class="st1" d="M706.3,489l-7.4,11.8c-0.5,0.9-1.1,1.7-1.7,2.5l-9,2.7c-6.6,2-13.4,2.9-20.1,2.9c-16.2,0-32.2-5.6-45-16.3
				H376.8c-3.7,3-24.5,2.7-12-0.7c9.6-2.6,18.6-7.3,26.5-13.8h241.5c12.8,10.7,28.8,16.3,45,16.3c6.8,0,13.5-1,20.1-2.9L706.3,489z"
				/>
		</g>
		<g>
			<path class="st1" d="M706.3,489l-7.4,11.8c-0.5,0.9-1.1,1.7-1.7,2.5l-9,2.7c-6.6,2-13.4,2.9-20.1,2.9c-16.2,0-32.2-5.6-45-16.3
				H376.8c-3.7,3-24.5,2.7-12-0.7c9.6-2.6,18.6-7.3,26.5-13.8h241.5c12.8,10.7,28.8,16.3,45,16.3c6.8,0,13.5-1,20.1-2.9L706.3,489z"
				/>
		</g>
		<g>
			<g>
				<path class="st0" d="M564.8,521.7l3.2,4.8l-3.2,4.8H459.2l-3.2-4.8l3.2-4.8H564.8 M570,512H454l-9.7,14.5L454,541H570l9.7-14.5
					L570,512L570,512z"/>
			</g>
		</g>
		<g>
			<g>
				<path class="st0" d="M619.5,521.7l4.7,4.8l-4.7,4.8h-215l-4.7-4.8l4.7-4.8H619.5 M623.6,512H400.4l-14,14.5l14,14.5h223.2
					l14-14.5L623.6,512L623.6,512z"/>
			</g>
		</g>
		<g>
			<g>
				<path class="st0" d="M656.9,521.7v9.7H367.1v-9.7H656.9 M666.6,512H357.4v29h309.1V512L666.6,512z"/>
			</g>
		</g>
		<g>
			<g>
				<path class="st0" d="M422.6,563.4c0.1,0,0.1-0.1,0.3-0.1s0.2,0,0.2,0l0.2-0.2l0.3,0l0.7-0.3l0.4,0l0.2-0.2l0.3-0.1l0.2-0.2
					c0,0,0.1,0,0.4-0.1l0.3-0.1c0.3,0,0.5-0.1,0.8-0.2c0.3-0.1,0.4-0.2,0.4-0.3c0,0,0-0.1,0-0.1c0,0,0-0.1,0-0.2l-0.2-0.5
					c0-0.2-0.1-0.3-0.1-0.3c0-0.1-0.1-0.1-0.2-0.1c-0.1,0-0.2,0-0.4,0.1l-0.6,0.4c-0.2,0.1-0.4,0.2-0.6,0.2c-0.2,0-0.3,0.1-0.4,0.2
					l-0.5,0.1l-0.2,0.2l-0.3,0l-0.2,0.2c-0.1,0.1-0.2,0.1-0.2,0.1h-0.3l-0.6,0.2l-0.6,0.1l-0.8,0.3c-0.4,0.1-0.6,0-0.6-0.1
					c0,0,0.1-0.2,0.3-0.5s0.4-0.3,0.5-0.1l-0.1-0.2l1.6-0.8l1.3-0.6l2.1-1.2l1.1-0.7c0.5-0.3,0.7-0.5,0.8-0.6l0.1-0.4
					c0,0,0.1-0.1,0.1-0.1l0.3,0l0.4-0.1c0,0,0.2,0.1,0.4,0.2l0.4,0.2l0.3,0.3l0.8,0.6c0.1,0.1,0.2,0.4,0.2,0.7s-0.2,0.5-0.5,0.6
					l-1.6,0l-0.3,0.1l-0.5,0.1c-0.1,0.1-0.1,0.1-0.1,0.2s0,0.1,0.1,0.1c0,0,0.1,0,0.3,0c0.1,0,0.3,0,0.4,0.1
					c0.1,0.1,0.1,0.2,0.1,0.3l0,0.4c0,0.1,0,0.2,0.1,0.2l0.4-0.1c0,0,0.1,0,0.2,0l0.9-0.2l0.3,0l0.2-0.1c0.5,0.1,0.9,0.1,1.2-0.1
					s0.5-0.3,0.7-0.1c0.3,0.3,0.6,0.4,0.8,0.5s0.4,0.1,0.4,0.2c0,0,0.1,0.1,0.1,0.3s0.1,0.3,0.1,0.3c0,0.1,0,0.2-0.2,0.3
					c-0.1,0.1-0.3,0.2-0.5,0.3h-0.9l-0.6,0.1l-0.9,0.1l-0.5,0.2l-0.8,0.2c-0.8,0.2-1.2,0.4-1.2,0.5s0.1,0.2,0.2,0.2
					c0,0,0.1,0,0.4-0.1s0.5-0.1,0.9-0.1l0.8,0.1c0.5,0,0.9,0.1,1,0.2l0.4,0.4l0.4,0.2c0.2,0.2,0.4,0.3,0.4,0.5c0,0.1,0,0.3,0,0.6
					l0,0.3c0,0.2-0.1,0.3-0.1,0.4l-0.2,0.3l-0.1,0.3l-0.1,0.1l-0.5,1.2l-0.2,0.1l-0.1,0.3c0,0-0.1,0.1-0.1,0.2s-0.2,0.2-0.3,0.3
					c-0.1,0.1-0.2,0.3-0.4,0.4c-0.2,0.1-0.3,0.2-0.3,0.3l-0.1,0.4c-0.1,0.1-0.1,0.1-0.2,0.1l-1.2,0l-0.4,0.1
					c-0.2,0.1-0.4,0.1-0.4,0.2c0,0,0,0.1,0,0.3c0,0.1,0,0.2,0.1,0.3c0,0.1,0.2,0.2,0.6,0.2s0.6,0.1,0.6,0.2c0.1,0.1,0.1,0.3,0.2,0.5
					c0.1,0.3,0.1,0.5,0.1,0.6c0,0.1,0,0.2-0.2,0.3l-0.6,0.4l-0.2,0.2l-0.3,0.3l-0.1,0.2l-0.2,0.2c0,0.1,0.1,0.2,0.4,0.1l1.7-0.1
					c0.2,0,0.3,0,0.4,0l0.6,0.2l0.4,0.1c0.1,0.1,0.4,0.3,0.7,0.6c0.3,0.3,0.4,0.6,0.3,0.8c-0.1,0.3-0.3,0.5-0.3,0.5
					c-0.1,0-0.3,0-0.6,0l-1.9-0.5l-0.2-0.1l-1.2-0.2l-0.2,0l-1.2,0.1c0,0-0.2,0.1-0.6,0.2s-0.5,0.1-0.6,0.1l-1.3,0.6
					c-0.5,0.2-0.9,0.3-1.2,0.3c-0.3,0-0.6-0.2-0.6-0.3l-0.1-0.2l-0.2-0.5c0-0.1,0.1-0.2,0.2-0.4c0.1-0.2,0.3-0.3,0.4-0.4
					s0.3-0.1,0.3-0.2l0.4,0.1l0.2-0.1l0.3,0c0.1,0,0.2-0.1,0.5-0.3c0.3-0.2,0.4-0.3,0.5-0.4s-0.1-0.1-0.4-0.3
					c-0.2-0.1-0.4-0.3-0.6-0.7l-0.5-0.5c-0.1-0.1-0.2-0.2-0.2-0.3c0-0.1,0.2-0.2,0.5-0.3s0.6-0.1,0.7-0.1l0.4,0l0.5-0.2l0.3,0
					c0.1,0,0.2-0.1,0.4-0.2s0.2-0.3,0.2-0.4s0-0.3-0.1-0.3l-0.8,0.2c-0.1,0-0.3,0-0.6,0c-0.1,0-0.2,0-0.2-0.1l-0.5-0.4l-0.3-0.1
					c-0.2-0.1-0.3-0.2-0.5-0.4c-0.1-0.2-0.2-0.4-0.2-0.5l0-0.4l-0.2-0.3l-0.4-1.4l-0.1-0.3c0-0.1-0.1-0.2-0.1-0.3l0-0.4V566
					c0.2-0.5,0.3-0.7,0.5-0.7l0.3,0l0.3-0.2l1.9-1.1l1.2-0.6c0.1,0,0.2-0.1,0.1-0.2l-0.1-0.2l-0.6,0.1l-1.3,0.7l-1.3,0.4l-2.9,1.4
					c-0.1,0-0.4,0.1-1,0.3l-0.4,0.1c-0.1,0-0.3,0-0.5-0.2c-0.3-0.1-0.4-0.2-0.5-0.3c-0.1-0.1-0.2-0.2-0.3-0.5
					c-0.1-0.3-0.2-0.5-0.2-0.6c0-0.1,0-0.1,0.1-0.2l0.9,0.2c0.3,0.1,0.9,0,1.6-0.3l0.3-0.2l0.3-0.1l0.4-0.1c0.1,0,0.1,0,0.2,0
					l0.2-0.1l0.1,0.1l0.1,0C422.5,563.5,422.6,563.5,422.6,563.4z M424.4,566.1L424.4,566.1L424.4,566.1L424.4,566.1l0.1,0.1h0
					l0.1-0.1l0-0.1v0v0h0l0-0.1l0,0v0l0.1-0.2l0,0l0,0l0-0.1l0,0l0-0.1l0,0l0,0v0l0,0h0h0l0,0l-0.1,0l-0.1,0l-0.1,0h0l0,0h0v0l0,0.1
					v0l0,0h0l0,0v0l0,0l0,0l0,0l0,0l0,0v0.1v0v0v0.1V566.1L424.4,566.1L424.4,566.1z M426.4,568.5c-0.1,0-0.4-0.2-0.8-0.5
					c-0.4-0.3-0.6-0.5-0.6-0.7c0-0.2,0.3-0.4,0.8-0.4h0.5l0.5-0.2c0.3-0.1,0.5-0.2,0.5-0.3c0.1-0.1,0.1-0.2,0.1-0.5
					c0-0.1-0.1-0.2-0.2-0.2c0,0-0.1,0-0.2,0c-0.1,0-0.1,0-0.1,0l-1.2,0.1l-0.2,0.2l-0.5,0.1c-0.1,0-0.2,0.2-0.2,0.3
					c-0.1,0.2-0.1,0.3-0.1,0.3l0.1,1.2l0.3,1.2c0,0.2,0,0.3,0,0.3c0,0,0.1,0.1,0.1,0.1c0,0,0.2,0,0.4-0.2l0.3-0.1
					c0,0,0.2-0.1,0.5-0.3c0.3-0.2,0.5-0.4,0.5-0.4l0-0.1C426.6,568.5,426.5,568.5,426.4,568.5z M426.4,564.6L426.4,564.6l0.2,0h0
					l0.1,0h0l0.1,0h0l0.1,0l0.1,0l0,0h0l0,0l0,0h0l0.1-0.1l0,0v0v0l-0.1,0h-0.1l-0.1,0h0h0l0,0l0,0l0,0h0l0,0l0,0l0,0l-0.1,0.1
					l-0.1,0l0,0l0,0l0,0L426.4,564.6L426.4,564.6L426.4,564.6z M429.3,568.6L429.3,568.6L429.3,568.6L429.3,568.6l0.1,0.1l0,0h0.1
					l0,0l0,0l0-0.1l0,0v0v0l-0.1-0.1l0,0h-0.1l0,0l0,0L429.3,568.6L429.3,568.6z M431.5,566.4l0.3-0.8c0.2-0.5,0.2-0.8,0.2-1
					c0-0.1-0.1-0.2-0.2-0.3l-0.2,0l-0.1-0.1l-1.5,0.5c-0.3,0.1-0.5,0.2-0.6,0.3c0,0.1-0.1,0.2,0,0.3c0,0.1,0,0.2,0.1,0.2l0.7,0.2
					c0.6,0.3,0.9,0.6,0.9,0.8l0,0.5C431.2,566.9,431.3,566.7,431.5,566.4z M430,568.5c0.1,0,0.1,0,0.2,0c0.1,0,0.1-0.1,0.2-0.3
					c0.1-0.2,0.2-0.3,0.3-0.4c0.1-0.1,0.1-0.2,0.1-0.3c0-0.1,0-0.1-0.1-0.2l-0.4,0.2l-0.3,0v0.1c0,0.1-0.1,0.1-0.2,0.2
					c-0.1,0.1-0.2,0.2-0.2,0.2c0,0,0,0.1,0.1,0.2S429.9,568.6,430,568.5z"/>
			</g>
			<g>
				<path class="st0" d="M443.3,576l0.1-0.2l-0.1-0.4l0-0.2l0-0.3l0.1-0.2c0.1,0,0.1,0,0.2,0l0,0l0.3-0.7l0.2-0.3l0.4-1l0.6-1.9
					l0.2-0.6l0.3-1.4l0.1-0.3l0.3-1.4l0-0.3l0.1-0.3l0-0.3l0.2-0.4l0.1-0.7l0.1-0.2c0,0,0-0.1,0-0.2c0-0.1,0-0.2,0-0.2l0-0.4
					c0,0,0,0,0-0.1c0-0.1,0-0.2,0-0.3l0.1-0.2l0-0.2c0,0,0.1,0,0.1,0s0,0.1,0,0.2c0,0.1,0.1,0.3,0.2,0.5c0.1,0.2,0.2,0.3,0.2,0.3
					v0.2c0,0,0,0.1,0.1,0.2s0.1,0.3,0.1,0.4c0,0.2,0,0.3,0,0.4l-0.2,0.7c-0.1,0.3-0.2,0.7-0.2,1.2l-0.2,0.4c0,0,0,0.1,0,0.1
					c0,0.1,0.1,0.2,0.2,0.2c0.1,0,0.3,0,0.6-0.1l0.3-0.1l0.2,0l0.2-0.1l1.1-0.5l1-0.8c0.2-0.1,0.3-0.2,0.3-0.3c0,0,0-0.1-0.1-0.1
					l-0.3,0.3c0,0-0.2,0-0.4,0l-0.9,0.2l-0.5-0.1c-0.4-0.1-0.6-0.2-0.6-0.4c0-0.1,0-0.1,0.1-0.1h0.2l0.2-0.1l0.5,0
					c0.1,0,0.2,0,0.4-0.1c0.2-0.1,0.3-0.2,0.3-0.2l0-0.3l0-0.3l0-0.2c-0.1,0-0.3,0.1-0.4,0.1l-0.4-0.1l-0.3,0l-0.2-0.2l-0.3-0.1
					l-0.3-0.4c0.2-0.1,0.3-0.1,0.4-0.1s0.2,0,0.4-0.1h0.2c0.1-0.1,0.2-0.1,0.5-0.2c0.2-0.1,0.3-0.2,0.3-0.3c0-0.1,0-0.3-0.2-0.4
					l-0.3-0.2l-0.1-0.3c-0.4,0.2-0.9,0.3-1.4,0.5c0-0.1,0.2-0.2,0.5-0.4c0.3-0.1,0.4-0.3,0.4-0.5v0c-0.1-0.1-0.2-0.1-0.3-0.2
					s-0.2-0.1-0.2-0.1l-0.1-0.2c-0.3-0.1-0.4-0.1-0.4-0.2l0-0.1c0,0,0.1,0,0.1,0l0.2-0.1l0.2,0l0.2,0l0.2,0.1c0.1,0,0.2,0,0.4-0.1
					l0.3-0.2l0.2,0l0.3-0.1l0.3,0c0.1,0,0.4-0.1,0.8-0.3l0.4-0.2l0.3,0l0.5-0.2c0.4-0.1,0.6-0.2,0.6-0.3c-0.1,0-0.2,0-0.3,0
					l-0.5,0.1c0,0-0.1,0-0.1,0l-1,0.1l-0.7,0.3c-0.1,0-0.2,0-0.4,0l1.2-0.6c0.6-0.3,0.9-0.5,0.9-0.6l-0.2-0.3v-0.1
					c0,0-0.1,0-0.1-0.1c-0.1,0-0.1-0.1-0.1-0.1l-0.2-0.4c-0.2-0.2-0.3-0.4-0.3-0.4s0.1-0.1,0.2,0l0.6,0l0.6,0.2
					c0.2,0,0.3,0.1,0.4,0.1l0.4,0.2c0.1,0.1,0.2,0.2,0.3,0.5s0.2,0.4,0.2,0.4l-0.1,0.4l0,0.1c0.1,0,0.2,0,0.3-0.1
					c0.1,0,0.1-0.1,0.2-0.1l0.4,0l0.2,0l0.3,0.2l0.3,0.2v0.1v0.1c0.1,0,0.2,0.1,0.2,0.1c0.1,0,0.1,0.1,0.1,0.1c0,0-0.1,0.2-0.3,0.4
					c-0.2,0.2-0.4,0.3-0.8,0.3c-0.4,0-0.6,0-0.6,0c0,0,0,0.1,0,0.1c0,0,0,0.1,0,0.1l0.4,0.2c0.1,0.1,0.2,0.2,0.4,0.3l0.2,0.4l1-0.2
					h0.2l0.3,0c0,0,0.1,0.1,0.3,0.2c0.2,0.1,0.4,0.2,0.5,0.2c0.2,0.1,0.3,0.2,0.5,0.3l0.2,0.3l0.1,0.1c0,0.1,0.1,0.2,0,0.3
					c0,0.2-0.1,0.3-0.2,0.4l-0.2,0.1c0,0-0.2,0.1-0.4,0.3l-0.4,0.3l-0.3,0.3l-0.3,0.2l-0.3,0.3c-0.1,0.1-0.3,0.2-0.5,0.3
					c-0.2,0.1-0.3,0.2-0.4,0.2c-0.1,0-0.1,0.1-0.1,0.1l-0.3-0.4c-0.1-0.1-0.1-0.1-0.1-0.1c0,0-0.1,0.1-0.1,0.1
					c-0.1,0.1-0.5,0.2-1.1,0.4c-0.7,0.2-1.1,0.4-1.2,0.5c-0.1,0.1-0.2,0.2-0.2,0.2c0,0,0,0.1-0.1,0.1c0,0.1,0.2,0,0.6-0.2
					c0,0,0.2,0,0.6-0.1c0.4,0,1-0.1,2-0.3l1-0.2c0.1,0,0.1,0,0.2,0c0.1,0,0.2,0,0.5,0c0.2,0,0.4,0,0.4,0c0,0,0.1,0,0.1,0
					c0,0,0.1,0,0.3,0c0,0,0.1,0.1,0.4,0.1l0.3,0c0.1,0,0.1,0.1,0.2,0.1l0.2,0.2l0.4,0.1l0.1,0.1l0.2,0.2l0,0.1l0.1,0.1
					c0,0,0,0.2,0.1,0.4l0,0.1c0,0.1,0,0.1,0,0.2c-0.1,0.2-0.3,0.3-0.5,0.4l-0.7,0.1c-0.2,0.1-0.2,0.1-0.3,0.1l-0.2,0l-0.2,0.1
					l-0.3,0l-0.4,0.1h-0.3l-0.4,0.1l-1.2,0.2c0,0,0,0.1,0,0.1c0,0,0,0,0,0c0,0,0.1,0.1,0.4,0.1l0.6,0.1c0,0,0,0,0,0l0.3,0l0.2,0.2
					l0.4,0.1c0.2,0.1,0.3,0.3,0.3,0.4c0,0.3-0.3,0.4-0.8,0.4c-0.1,0-0.2,0-0.3,0l-0.1,0.1l-0.2-0.1l-0.2,0.1c0,0-0.2,0.1-0.5,0.1
					l-0.3,0l-0.2,0.2c0.2,0.1,0.3,0.1,0.4,0.2l0.1,0.1c0,0,0.1,0.1,0.2,0.2c0.1,0.1,0.2,0.2,0.1,0.3l-0.7,1
					c-0.1,0.1-0.1,0.2-0.1,0.4s0,0.3-0.1,0.3l-0.1,0.1c0,0.1-0.1,0.1,0,0.2c0,0.1,0,0.2,0,0.2c0,0,0.1,0.1,0.3,0.2l0.3,0.2
					c0.1,0,0.1,0.1,0.2,0.1l0.4,0c0.1,0.2,0.1,0.2,0.2,0.2l0.2,0l0.2,0.2h0.5c0,0,0.1,0,0.1,0l0.1,0.1l0.2,0l0.1,0.1h0.3l0.1,0.1
					l0.3,0.1l1.2,0.5c0.3,0.1,0.5,0.3,0.7,0.4l0.3,0.2c0.1,0.1,0.2,0.2,0.4,0.2c0.1,0,0.2,0.1,0.2,0.2c0,0.1,0,0.1-0.1,0.2
					c0,0-0.1,0-0.2,0l-0.6,0.1h-0.2l-0.2,0.1l-0.3,0l-0.1,0.1l-0.2-0.1c-0.1,0-0.2,0-0.3,0l-0.2,0.1h-0.2l-0.2,0l-0.6-0.2l-0.6,0
					l-0.3-0.1l-0.2,0l-0.2-0.3c-0.1,0-0.2-0.1-0.3-0.2l-0.3,0l-0.4-0.4l-0.2,0c-0.1,0-0.1-0.1-0.2-0.2c-0.1-0.1-0.1-0.2-0.2-0.3
					l-0.2,0c-0.1,0-0.2-0.2-0.3-0.4c-0.1-0.3-0.3-0.3-0.5-0.2l-0.3,0.4c0,0-0.1,0.1-0.2,0.1s-0.2,0.1-0.3,0.2l-0.7,0.4
					c-0.1,0-0.5,0.2-1.2,0.4c0,0-0.3,0-0.7,0c-0.4,0-0.7-0.1-0.7-0.1l-0.2-0.2l-0.3-0.1l-0.1-0.1c-0.1,0-0.1,0-0.2,0
					c0,0-0.1,0.1-0.2,0.2c-0.1,0.1-0.3,0.3-0.7,0.5c-0.3,0.2-0.5,0.3-0.5,0.2c0-0.1,0-0.2,0.1-0.2c0.1-0.1,0.1-0.1,0.1-0.1
					c0,0,0-0.1,0-0.2c0-0.1,0.1-0.4,0.4-0.8s0.3-0.5,0.4-0.6l0.1,0l-0.1,0.4c0,0,0,0,0.1,0c0,0,0.1-0.1,0.2-0.2s0.3-0.4,0.6-0.7
					l0.6-0.8c0.1-0.1,0.2-0.2,0.3-0.4c0.1-0.1,0.2-0.3,0.2-0.4c0-0.1,0-0.2,0-0.2l-0.3,0.1l-0.3-0.1h0l-0.2,0l-0.9,0.1
					c0-0.1,0-0.2,0-0.2c0-0.1,0.2-0.2,0.4-0.4c0.3-0.2,0.4-0.3,0.5-0.2c0,0.1,0.1,0.1,0.3,0c0.1,0,0.1,0,0.2,0c0,0,0.1,0,0.1,0
					l0.1,0.1l0.3,0l0.3,0.1c0.1,0,0.2-0.1,0.4-0.3c0.1-0.2,0.2-0.3,0.2-0.3l0.4-0.4c0-0.1,0.1-0.1,0.1-0.2s-0.1-0.1-0.2-0.3
					l-0.8-0.5c0,0-0.1-0.1-0.3-0.3s-0.3-0.4-0.4-0.5c-0.1-0.2-0.2-0.3-0.2-0.3l-0.4,0.2l-0.5,0.2c0,0,0,0.1,0,0.1s0,0.1,0.1,0.2
					c0,0,0,0.1,0,0.2s0.1,0.2,0.1,0.4c0.1,0.2,0.1,0.3,0.1,0.4l-0.1,0.4l-0.1,0.4l0,0l-0.1,0.4l-0.1,0.1l0,0.2l-0.2,0l-0.1,0.2
					c-0.2,0.1-0.4,0-0.4-0.1c0-0.1,0-0.3,0-0.4c0-0.1,0-0.3-0.1-0.4c0-0.1-0.1-0.3-0.1-0.3s0-0.2,0.1-0.4l0.4-1c0-0.1,0-0.1,0-0.2
					c0,0-0.2,0-0.4,0c-0.2,0-0.3,0-0.4-0.1c0-0.1-0.1-0.1-0.2-0.1c0,0-0.1,0.1-0.1,0.2l-0.1,0.3l-0.1,0.8l-0.1,0.3
					c0,0.1-0.1,0.2-0.1,0.4l-0.2,1l-0.1,0.2l-0.5,1.2l-0.2,0.6l-0.1,0.2c0,0,0,0.1,0,0.1l-0.2,0.4l-0.1,0.3l-0.3,0.4l-0.4,0.6
					c-0.4,0.3-0.6,0.5-0.6,0.5h-0.1h-0.1C443.3,576.2,443.3,576.1,443.3,576z M448.5,575.3c0.3,0.1,0.5,0.2,0.6,0.2
					c0.1,0,0.5-0.1,1.1-0.2c0.6-0.2,1-0.4,1.3-0.6l0.8-0.9l-0.2-0.3l-1.6-0.9c-0.1,0.1-0.2,0.2-0.3,0.4s-0.2,0.2-0.3,0.4l-0.1,0.4
					l-1,1.3C448.7,575.2,448.6,575.3,448.5,575.3z M451.6,567.4C451.7,567.4,451.7,567.3,451.6,567.4h0.4l0.4-0.3
					c0.2,0,0.3,0.1,0.3,0.2c0,0.1-0.1,0.2-0.1,0.3c-0.1,0.1-0.1,0.2-0.1,0.2l0,0.1c0,0,0,0.1,0,0.2c0,0.1-0.1,0.3-0.2,0.4
					c-0.1,0.1-0.3,0.2-0.4,0.2c-0.1,0-0.1,0-0.2-0.1l-0.1-0.2l-0.3-0.3l0-0.1l-0.1-0.2v-0.1l-0.1-0.4c-0.8,0.3-1.2,0.5-1.2,0.6
					l0.3,0.3l0.1,0.2l0.2,0.1l0.2,0.2l0.4,0.3c0.2,0.2,0.4,0.2,0.5,0.2c0.2,0,0.3,0,0.4-0.1s0.2-0.2,0.4-0.4s0.3-0.4,0.4-0.5
					c0.1-0.1,0.1-0.2,0.2-0.2l0.2-0.1l0.1-0.1c0,0,0-0.1,0.1-0.2c0.1-0.1,0.2-0.2,0.3-0.4s0.1-0.3,0.1-0.3c0,0-0.1-0.1-0.2-0.1
					c0,0-0.2,0-0.5,0.1l-0.3,0l-0.4,0.2l-0.4,0.1l-0.4,0.1L451.6,567.4z M450,562.2c0,0.1,0.1,0.1,0.1,0.1l0.3,0.1
					c0.3,0.2,0.5,0.3,0.6,0.4l1-0.3c0.2,0,0.3-0.1,0.3-0.1l0-0.1l0.1-0.1c0.1,0,0.1-0.1,0.1-0.3c0-0.1-0.1-0.2-0.1-0.3l-0.2,0
					c0,0-0.1,0-0.2-0.1s-0.2-0.1-0.3-0.1l-0.3,0.2l-0.8,0.2C450.3,562,450.1,562.1,450,562.2z M450.9,564.8c0.1,0,0.1,0,0.2,0
					c0.1,0,0.1,0,0.1,0c0.2,0,0.3-0.1,0.5-0.2c0.2-0.2,0.3-0.3,0.3-0.3l0.2-0.5c0-0.1,0-0.2,0-0.3c0-0.1-0.1-0.1-0.3,0l-0.2,0.2
					l-0.6,0.1c-0.1,0-0.2,0.1-0.2,0.2l0,0.3l-0.1,0.1l0,0.3C450.9,564.7,450.9,564.8,450.9,564.8z M452,571.3
					c0.4-0.1,0.7-0.3,0.8-0.4c0.1-0.2,0.2-0.3,0.2-0.3c0,0-0.2-0.1-0.5-0.1l-0.2,0l-0.3,0.2c-0.1,0.1-0.2,0.2-0.2,0.3
					c-0.1,0.1-0.2,0.2-0.3,0.3c-0.1,0.1-0.2,0.2-0.3,0.4c-0.1,0.1-0.1,0.2-0.1,0.2c0,0,0.1,0.1,0.2,0.2c0.1,0.1,0.2,0.1,0.2,0.1
					l0.2,0.2l0.3,0l0.7,0.4c0.1,0,0.1-0.1,0.2-0.2l0.1-0.3l0.2-0.4c0,0,0-0.1,0-0.2c0-0.1-0.1-0.1-0.2-0.1l-1.2,0.2l-0.2-0.1l-0.2,0
					l-0.1,0C451.4,571.6,451.6,571.5,452,571.3z M453.1,569.4c0.1,0,0.1,0.1,0.2,0.1c0,0,0.1,0,0.1,0c0,0,0.2,0,0.4-0.1
					c0.2-0.1,0.4-0.1,0.6-0.1s0.3,0,0.3-0.1c0-0.1,0-0.1-0.2-0.2c-0.2-0.1-0.3-0.2-0.4-0.3c-0.1-0.1-0.1-0.1-0.2-0.2
					c-0.1,0-0.2,0.1-0.5,0.4C453.2,569.3,453.1,569.4,453.1,569.4z M453.5,564c0,0.1,0.1,0.2,0.3,0.2c0.2,0,0.3,0.1,0.5,0.3
					c0.1,0.2,0.3,0.2,0.3,0.2c0.1,0,0.3-0.1,0.4-0.4c0.1-0.3,0.2-0.5,0.2-0.6c0-0.1,0.1-0.2,0.1-0.2l0.1-0.3V563l0.1-0.4
					c0-0.1-0.2-0.2-0.4-0.2c-0.1,0-0.3,0-0.4,0.1c-0.1,0.1-0.3,0.1-0.4,0.1c-0.1,0-0.2,0-0.2,0.1l-0.2,0.3l-0.1,0.1v0.3l-0.2,0.4
					C453.5,563.9,453.5,564,453.5,564z M454.6,568.6l1.4-0.8c0.2-0.1,0.4-0.3,0.6-0.6s0.3-0.4,0.3-0.5c0,0-0.1-0.1-0.3-0.2
					c-0.2-0.1-0.3-0.2-0.5-0.2c0,0-0.1,0-0.2,0s-0.2,0-0.5,0l-0.3,0.1l-0.4,0.1c-0.1,0-0.1,0.1-0.1,0.1l0.2,0.2c0,0,0,0.1,0.1,0.1
					l0.1,0.2l-0.1,0.4v0.2l-0.3,0.2c0,0-0.1,0.1-0.1,0.2c-0.1,0.1-0.2,0.2-0.3,0.2c-0.1,0-0.2,0.1-0.2,0.1c0,0,0,0.1,0,0.1
					L454.6,568.6z"/>
			</g>
			<g>
				<path class="st0" d="M473,557.7C473,557.7,473,557.7,473,557.7l0.5,0.2c0.1,0,0.2,0.1,0.4,0.1c0,0,0.1,0,0.1,0l0.7-0.1l0.4,0.1
					l0.6,0.1c0.2,0.1,0.3,0.2,0.4,0.2c0.1,0,0.1,0.1,0.2,0.2c0.1,0.1,0.2,0.2,0.4,0.3c0.2,0.1,0.3,0.2,0.3,0.3l0.1,0.4l0.1,0.2
					l0,0.4c0,0.1,0.1,0.2,0.1,0.2l0.6,0h0.2l0.2-0.1l0.2,0.1l0.4-0.1l0.3,0l0.1-0.1l0.3,0l0.2-0.1l0.2,0c0,0,0,0,0,0
					c0.1,0,0.3-0.1,0.6-0.2c0.3-0.1,0.6-0.2,0.9-0.2c0.5,0,0.9,0.1,1.2,0.2l0.6,0.4c0.1,0,0.2,0.1,0.3,0.1l0.1,0.2l0.3,0.1l0.1,0.4
					l0.1,0.3c0,0.2-0.1,0.3-0.4,0.3l-0.5,0l-0.5,0.1l-0.8-0.2l-0.3,0.2l-0.4-0.1c0,0-0.1,0.1-0.3,0.1l-0.8,0.1l-0.2,0.1l-0.3,0
					l-0.3,0.1l-0.2,0l-1,0.2l-0.4,0c0,0-0.4,0.1-1.2,0.3c0-0.1,0.1-0.2,0.2-0.3s0.2-0.2,0.2-0.2c-0.1-0.1-0.2-0.1-0.3-0.1
					c0,0-0.2,0.1-0.3,0.2c-0.2,0.1-0.3,0.2-0.2,0.3c0,0,0,0.1,0.1,0.2c0.1,0.1,0.1,0.2,0.2,0.2l0,0.3l0.1,0.3l-0.1,0.3l0.1,0.4v0.3
					c0,0.2,0.1,0.2,0.2,0.2c0,0,0.1,0,0.1,0c0,0,0.1-0.1,0.3-0.2c0.1-0.1,0.2-0.2,0.3-0.2c0.1,0,0.3-0.1,0.6-0.1l0.5,0
					c0.2,0,0.3,0,0.3,0l0.3,0.2l0.3,0.2c0,0,0.1,0.1,0.2,0.2l0.5,0.5c0.1,0.1,0.1,0.2,0.1,0.2l0.3,0.2c0,0.1,0.1,0.2,0.2,0.4
					c0.1,0.2,0.1,0.3,0.1,0.4l0,0.2l0,0.6c0,0.1-0.1,0.2-0.2,0.3l-0.2,1.6l0,1.4c0,0.3-0.1,0.5-0.2,0.9c-0.1,0.3-0.2,0.5-0.2,0.6
					v0.3l-0.4,0.6l0,0.1c-0.1,0.2-0.2,0.3-0.4,0.2c-0.3,0-0.6-0.2-0.9-0.6c-0.3-0.4-0.5-0.6-0.6-0.6c-0.1-0.1-0.1-0.1-0.1-0.1
					l-0.1-0.2l-0.5-0.4l-0.1-0.2c0,0-0.1-0.1-0.3-0.3c-0.2-0.1-0.3-0.2-0.3-0.1c-0.1,0-0.1,0.1-0.1,0.2c0,0.1,0,0.3,0,0.5
					s0,0.4,0,0.6l-0.1,0.3v0.4l0,0.3l0,0.5l-0.2,1.6v1l-0.1,0.4l-0.1,0.7l-0.1,0.3l-0.1,0.7c-0.1,0.2-0.1,0.2-0.3,0.1
					c0,0-0.1-0.1-0.1-0.2l-0.1-0.3c0,0,0-0.1,0-0.3l-0.2-0.7l0-0.5l-0.2-1.3l-0.1-0.8v-0.9l-0.1-0.4c0,0,0-0.1,0-0.1
					c0,0,0-0.1,0-0.3c0-0.2,0-0.3,0.1-0.5l0.2-1.3l-0.1-1.7l0-0.4l-0.1-0.2l0-0.5l0-0.3v-0.3c0-0.1-0.1-0.1-0.1-0.2l-0.4,0.1H474
					c-0.1,0-0.2,0.1-0.2,0.1l-0.3,0.7l-0.1,0.2l-0.1,0.4l-0.4,1.5l-0.5,1.2c-0.2,0.6-0.4,0.9-0.6,0.9c-0.2,0-0.4-0.2-0.6-0.5
					c-0.2-0.4-0.4-0.6-0.4-0.7l-0.1-0.5c0-0.1-0.1-0.2-0.1-0.2c0,0,0-0.2,0.1-0.4l0-0.5c0-0.2,0.1-0.3,0.2-0.4l0.2-0.2l0.1-0.3
					c0,0,0.1-0.1,0.2-0.3s0.2-0.4,0.2-0.5v0l0-0.2l0-0.4l-0.2-0.2c0,0,0,0,0-0.1s0-0.2-0.1-0.4c-0.1-0.3-0.2-0.5-0.2-0.6
					c0-0.1,0.1-0.3,0.2-0.5c0.1-0.1,0.2-0.3,0.5-0.4s0.4-0.2,0.4-0.2c0,0,0.1,0,0.1,0.1s0,0,0,0.1l0,0.1c0,0.1,0,0.1,0.1,0.2
					l0.4,0.4l0.5,0.8c0,0,0.1,0,0.2,0c0.1,0,0.2-0.1,0.3-0.2l0.8-0.6l0.2-0.2l0.1-0.1c0,0,0-0.1,0-0.4c0-0.2,0-0.3,0-0.3
					c0-0.1-0.1-0.2-0.1-0.3l-0.4-0.6c-0.1-0.1-0.1-0.1-0.1-0.2c0-0.1,0-0.2,0.1-0.3l0.2-0.2l0.1-0.3c-0.1,0-0.1-0.1-0.2-0.1
					l-0.2-0.2c-0.1-0.1-0.3,0-0.6,0.1c-0.2,0.1-0.5,0.2-0.8,0.3c-0.3,0.1-0.5,0.1-0.5,0.1l-1,0.4l-0.5,0.1l-0.6,0.3
					c-0.1,0.1-0.3,0.1-0.5,0.2s-0.5,0.2-1,0.4c-0.5,0.2-0.7,0.3-0.9,0.4s-0.2,0.1-0.4,0.2s-0.2,0.1-0.2,0.1c-0.1,0-0.1,0-0.2,0
					l-0.3-0.4l-0.3-0.2c0,0-0.1-0.2-0.3-0.6c-0.1-0.4-0.2-0.7-0.2-0.9c0-0.2,0.1-0.3,0.4-0.3h0.3l0.4,0.1c0.1,0,0.4,0,0.7,0
					c0.4,0,0.6-0.1,0.7-0.1l0.2-0.1c0,0,0.1,0,0.2,0l0.2,0h0.2l0.4-0.2h0.2l1.7-0.3l0.2-0.1l0.3,0l0.2-0.1l0.2,0.1
					c0.1,0,0.1,0,0.2-0.1l0.2-0.2l0.3,0.1l0.8-0.3h0.4c0.2,0,0.2-0.1,0.2-0.3c0-0.1,0-0.2-0.1-0.3l-0.6-0.4l-0.2-0.2l-0.3-0.3
					l-0.4-0.6c-0.2-0.2-0.3-0.3-0.3-0.3l0.1-0.3l-0.1-0.3L473,557.7C472.9,557.7,472.9,557.7,473,557.7z M476.9,566.5l0,1.4l0,0.2
					v0.3l0,0.6c0,0,0,0.1,0,0.1c0,0.2,0,0.4,0.1,0.5s0.3,0.3,0.7,0.5c0.4,0.1,0.6,0.2,0.7,0.2c0.1,0,0.1-0.1,0.2-0.2
					c0-0.1,0-0.2,0-0.3l-0.1-0.5c0-0.1,0-0.3,0-0.6c0-0.3,0.1-0.6,0.1-1c0-0.1,0-0.2-0.1-0.3c0-0.1,0-0.2,0-0.2c0,0,0-0.1,0.1-0.2
					c0-0.1,0.1-0.2,0.1-0.2c0,0,0-0.1,0-0.1c-0.1-0.2-0.1-0.3-0.1-0.4c0-0.1,0-0.2-0.1-0.2c0,0-0.1-0.1-0.1-0.1l-0.4,0.1h-0.2
					l-0.4,0.2c-0.3,0.1-0.4,0.2-0.4,0.2C476.9,566.4,476.9,566.5,476.9,566.5z M477.1,562c0,0,0.1,0,0.3-0.1
					c0.2-0.1,0.4-0.2,0.8-0.3c0.3-0.1,0.5-0.2,0.4-0.3l-0.4,0l-0.2,0l-0.2,0.1h-0.4c-0.1,0-0.1,0-0.2,0.1c-0.1,0-0.1,0.1-0.1,0.1
					c0,0.1-0.1,0.1,0,0.2C476.9,562,477,562,477.1,562z"/>
			</g>
			<g>
				<path class="st0" d="M497.8,566.4c0.1,0,0.2,0,0.2,0l0.3,0.1l0.3,0l1.6,0.6l0.4,0.2l1.9,1.3l1.2,0.9c0.3,0.2,0.5,0.4,0.6,0.4
					l0.4,0.2c0.1,0.1,0.4,0.2,0.8,0.6s0.7,0.5,0.9,0.5c0.2,0,0.3,0,0.3,0l0.2,0.2c0.1,0.1,0.1,0.1,0.2,0.2c0,0,0.1,0.1,0.1,0
					c0,0,0.1,0,0.1-0.1l1.3,0.5c0.4,0.2,0.7,0.3,0.8,0.4s0.3,0.2,0.3,0.2l0.3,0c0,0,0.1,0.1,0.3,0.3c0.1,0.2,0.2,0.3,0.3,0.3
					s0.1,0.1,0,0.2l-0.2,0.2l-0.1,0.4c-0.1,0.1-0.2,0.2-0.4,0.2h-0.4c-0.1,0-0.2,0.1-0.4,0.2c-0.2,0.1-0.4,0.2-0.6,0.2h-0.7
					l-1.4,0.2c0,0-0.2,0-0.5,0c-0.3,0-0.4-0.1-0.5-0.1l-0.3-0.2l-0.4-0.2c-0.2-0.1-0.4-0.3-0.6-0.6l-1.7-1.9l-1.4-1.6
					c-0.1-0.1-0.3-0.3-0.7-0.6c-0.4-0.3-0.6-0.5-0.9-0.6s-0.5-0.2-0.9-0.4s-0.6-0.2-0.7-0.2h-0.7c0,0-0.4,0-1,0c0,0-0.1,0.1-0.2,0.1
					c-0.1,0.1-0.2,0.2-0.3,0.5s-0.2,0.4-0.2,0.5l-0.2,0.3l-0.2,0.5l-0.1,0.2l-0.1,0.3l-0.2,0.2l0,0.3l-0.9,2.1l-0.1,0.3l-0.2,0.3
					l-0.1,0.3c-0.1,0.2-0.3,0.2-0.6,0.2c-0.3,0-0.4,0-0.5,0l-0.2,0.1l-0.3-0.1l-0.2,0c-0.2,0-0.3,0-0.3-0.1c0-0.1-0.1-0.3-0.1-0.5
					l-0.1-0.3c0-0.1,0-0.2,0-0.3c0-0.1,0-0.3,0.1-0.4c0-0.1,0.1-0.2,0.2-0.2l0.5,0c0,0,0.1-0.1,0.3-0.3l0.4-0.4l0.2-0.3l0.1-0.1
					l0.1-0.3l0.3-0.5l0-0.2l0.2-0.3l0.1-0.4l0.2-0.2l0.2-0.7l0.3-0.4l0-0.3l0.2-0.3l0.1-0.3l0.2-0.4l0.1-0.3l0.2-0.2l0-0.2l0.2-0.3
					c0,0,0.1-0.1,0.1-0.3c0-0.1,0.1-0.3,0.1-0.3l0.5-0.7l0-0.2l0.3-0.3l0.1-0.2l0.4-0.4l0.1-0.3c0-0.1,0.1-0.2,0.2-0.4l0.8-1.5
					c0.1-0.2,0.1-0.3,0.1-0.4c0,0,0-0.1,0-0.1s-0.1-0.1-0.3-0.2s-0.3-0.2-0.3-0.3c0,0,0-0.1,0.1-0.2l0.8,0l0.6-0.3c0,0,0.1,0,0.1,0
					l0.6,0.4l0.4,0.2c0.1,0.1,0.2,0.2,0.3,0.2l0.2,0.3l0.2,0.2c0,0.1,0,0.2,0,0.4s0,0.3,0,0.3c0,0.3-0.2,0.5-0.4,0.8l-0.6,0.4
					c-0.3,0.2-0.6,0.6-1,1.1L497.8,566.4L497.8,566.4z"/>
			</g>
			<g>
				<path class="st0" d="M525.5,569.9c0,0.1,0,0.2,0,0.3c0,0.2-0.1,0.3-0.2,0.4s-0.2,0.2-0.3,0.2c-0.1,0-0.2,0.1-0.3,0.1l-1.4,1.2
					l-0.3,0.2l-2.9,2.1l-0.5,0.6c-0.2,0.2-0.4,0.1-0.7-0.1c-0.3-0.2-0.4-0.3-0.5-0.4c-0.1-0.1-0.2-0.3-0.3-0.6l-0.6-1.2
					c-0.1-0.1-0.1-0.2-0.1-0.3c0,0,0-0.1,0-0.3l-0.2-1.2v-0.3l0-0.7c0-0.1,0-0.2,0.1-0.3c0-0.1,0.1-0.2,0.1-0.2l-0.1-0.4l0-0.1
					c0,0,0-0.1,0-0.2c0,0,0,0,0-0.1l0-0.4l0.1-0.5v-0.3c0-0.1,0-0.2,0-0.2l-0.1-0.3l0.1-1.4l0.1-0.8v-0.4c0-0.2,0-0.4,0.1-0.8
					s0.1-0.5,0.1-0.6c0,0,0.1-0.1,0.2-0.2c0.1-0.1,0.2-0.2,0.2-0.2l0.1-0.4l0.2-0.3l0.1-0.2c0.1-0.1,0.2-0.2,0.5-0.2
					c0.3-0.1,0.4-0.1,0.6-0.1c0.1,0,0.2,0,0.3,0l2.8,0.9c0,0,0.1,0,0.1,0c0.1,0,0.2,0,0.3-0.1l0.2-0.4l0.2-0.1l0-0.2
					c0,0,0-0.1,0.1-0.1s0.2-0.2,0.3-0.3c0.1-0.2,0.1-0.3,0.1-0.5c0-0.2-0.4,0.1-1,1c-0.1,0.1-0.1,0.1-0.2,0.1l-0.3,0l-0.2,0
					l-0.6-0.1h-0.2c0,0-0.1-0.1-0.3-0.3l-0.4-0.4c-0.2-0.1-0.3-0.2-0.3-0.2l-0.4-0.2l-0.4-0.3l-0.4-0.2c0,0-0.1-0.1-0.1-0.2
					s0-0.2,0.1-0.3c0.1-0.1,0.2-0.1,0.4-0.2l0.8-0.1c0.2,0,0.4-0.1,0.6-0.2c0.2-0.1,0.4-0.1,0.5-0.2h0.2c0,0,0.1-0.1,0.3-0.3
					l0.8-0.3l0.4-0.3l0.3-0.1l0.4-0.3l0.4,0l0.8-0.4c0.2-0.1,0.4,0,0.8,0.2c0.4,0.3,0.7,0.6,1,1c0.2,0.4,0.4,0.8,0.3,1.2
					c0,0.1-0.1,0.3-0.1,0.4l-0.2,0.3c-0.1,0.2-0.4,0.6-0.7,1.3l-0.5,1c-0.1,0.1-0.1,0.2-0.1,0.3v0.9c0,0.1-0.1,0.2-0.3,0.4
					s-0.3,0.3-0.3,0.2c0,0,0,0.1,0.1,0.2c0.1,0.1,0.2,0.3,0.3,0.6c0.1,0.3,0.3,0.4,0.4,0.4c0.1,0,0.2-0.1,0.2-0.2l-0.4-0.3
					c0-0.1,0-0.1,0-0.2l0.3,0.1c0,0,0.1,0,0.3,0l0.4,0l0.9-0.3l0.4,0.1c0.2,0.1,0.3,0.1,0.4,0.1l0.2,0.2l0.2,0.1
					c0,0,0.1,0.1,0.1,0.2c0,0.1,0,0.2-0.1,0.4c-0.1,0.2-0.2,0.3-0.2,0.3l-0.4,0.1l-1.5,0.8l-0.1,0.1l1.1,2.1l1.2,1.8l0.2,0.2
					l0.4,0.4l0.2,0.3l0.2,0.2l0.4,0.4c0.3,0.3,0.6,0.6,0.9,0.8c0.4,0.3,0.6,0.4,0.7,0.4c0,0,0.1,0,0.2-0.1c0.1,0,0.2-0.1,0.3-0.3
					s0.2-0.3,0.2-0.4c0-0.1,0.1-0.3,0.1-0.6c0-0.2,0.1-0.5,0.1-0.7c0-0.2,0.1-0.4,0.1-0.5l0-0.2c0,0,0,0,0-0.1
					c0-0.1,0.1-0.1,0.2-0.1l0,1l0.3,1.5l0.1,1.7l0.3,1.3c-0.1,0.1-0.2,0.1-0.2,0.1c-0.1,0-0.4-0.1-0.9-0.3l-0.7-0.4l-0.4-0.1
					c-0.1,0-0.2-0.1-0.3-0.2c-0.1-0.1-0.2-0.2-0.3-0.3s-0.1-0.1-0.1-0.1l-0.3-0.1c-0.1,0-0.2-0.1-0.4-0.4l-1-1.1l-1.2-1.7l-0.2-0.3
					l-1.1-1.9c-0.8-1.3-1.2-1.9-1.4-1.8l-0.5,0.3L525.5,569.9z M521.9,562.8l-0.1,0c-0.7-0.3-1.2-0.4-1.3-0.5
					c-0.2,0-0.3-0.1-0.4-0.1c-0.1,0-0.1-0.1-0.1-0.1l-0.3,0.1l-0.3,0c-0.1,0-0.2,0.1-0.4,0.3s-0.3,0.3-0.4,0.4
					c-0.1,0.1-0.1,0.4-0.1,0.8c0,0.4,0,0.8,0.1,1c0.1,0.3,0.1,0.5,0.2,0.7c0,0.2,0.1,0.3,0.1,0.3s0.1,0,0.2-0.1l0-0.1l0.1-0.4l0-0.4
					c0-0.1,0.1-0.2,0.3-0.3l0.8-0.3l0.3-0.1c0.5-0.2,0.8-0.4,0.8-0.6l0-0.4C521.9,563,521.9,562.9,521.9,562.8z M519.7,572.2
					l1.7-0.8c0.3-0.1,0.5-0.1,0.5-0.2l0.1-0.1c0,0,0.3-0.2,0.8-0.4l0.7-0.4l0.7-0.3c0.2-0.1,0.3-0.3,0.3-0.4s0-0.4-0.2-0.6
					c-0.1-0.2-0.2-0.3-0.3-0.3c-0.1,0-0.3,0.1-0.6,0.2l-1.1,0.6c-0.4,0.2-0.7,0.3-0.8,0.3c-0.1,0-0.2-0.1-0.3-0.2
					c-0.1-0.1-0.1-0.3-0.1-0.4v-0.4l-0.1-0.4c0-0.1,0-0.1,0-0.3c0-0.2,0.1-0.4,0.3-0.5l1.2-0.1l0.1-0.1l1.3-0.5
					c0.5-0.2,0.7-0.3,0.7-0.5c0,0-0.1-0.1-0.2-0.4c-0.1-0.3-0.2-0.5-0.4-0.6s-0.3-0.2-0.3-0.2c-0.1,0-0.1,0.1-0.3,0.2
					c-0.1,0.1-0.2,0.2-0.3,0.2l-1.2,0.7l-0.1,0.2l-0.9,0.5c-0.3,0.2-0.6,0.3-0.9,0.3c-0.1,0-0.2,0-0.3,0l-0.2-0.1
					c-0.1,0-0.2,0.2-0.3,0.5l0,0.6c0,0.1-0.1,0.4-0.2,0.9c-0.1,0.5-0.1,1-0.1,1.6s0,0.8,0,0.9c0,0.2,0,0.3-0.1,0.4
					c0,0.1,0,0.2,0,0.3c0,0.1,0.1,0.1,0.2,0.2C519,572.5,519.3,572.4,519.7,572.2z"/>
			</g>
			<g>
				<path class="st0" d="M541.6,573.7c0,0,0,0.1-0.1,0.3c-0.1,0.2-0.1,0.3-0.1,0.4c0,0.2,0.1,0.3,0.4,0.2c0,0,0.2-0.1,0.6-0.2
					s0.6-0.2,0.7-0.4l0.2-0.3l0.4-0.2c0,0,0.1-0.1,0.3-0.3l0.4-0.5l0.3-0.5l0.2-0.4l0.2-0.5l0.1-0.3c0,0,0-0.1,0-0.2
					c0-0.1,0-0.3,0.1-0.4c0-0.1,0.2-0.5,0.4-1s0.3-0.8,0.2-0.8c-0.1,0-0.3,0.1-0.5,0.2c-0.2,0.1-0.3,0.2-0.4,0.2l-0.7,0.3
					c-0.6,0.4-1,0.6-1,0.6c-0.2,0-0.3-0.1-0.4-0.2l-0.2-0.2l-0.3-0.2c-0.1-0.1-0.2-0.2-0.3-0.4c-0.1-0.2-0.1-0.3-0.2-0.3l-0.3-0.3
					c0,0,0-0.1,0-0.1c0,0,0-0.1,0.1-0.2c0.1-0.1,0.3-0.1,0.6-0.2c0.3-0.1,0.9-0.2,1.6-0.5c0.7-0.3,1.2-0.5,1.4-0.6
					c0.2-0.1,0.4-0.2,0.6-0.3c0.2-0.1,0.3-0.2,0.4-0.3c0.1-0.1,0.2-0.4,0.3-1c0.1-0.5,0.2-1.1,0.2-1.8c0.1-0.7,0.1-1.1,0.2-1.4
					c0.1-0.3,0.1-0.4,0.2-0.4s0-0.1,0-0.1c0-0.1,0-0.1,0-0.1c0,0-0.1-0.1-0.2-0.2l-0.2-0.4l-0.3-0.4l-0.1-0.3l-0.3-0.8
					c0-0.1,0.1-0.2,0.2-0.4c0.1-0.2,0.4-0.3,0.7-0.3c0.1,0,0.1,0,0.2,0.1c0.1,0,0.2,0.1,0.3,0.1c0.1,0.1,0.3,0.1,0.4,0.2
					c0.2,0.1,0.3,0.1,0.3,0.2l0.1,0.4c0,0.1,0.1,0.1,0.1,0l0-0.1c0,0,0.1,0,0.1,0c0,0,0.1,0.1,0.1,0.2l0.3,0.3c0,0,0.1,0.1,0.1,0.2
					l0.1,0.2c0,0.1,0,0.2,0,0.3c0,0.1,0,0.2,0,0.4c-0.1,0.6-0.2,1-0.2,1.1c0,0.2-0.1,0.3-0.1,0.4c0,0.1-0.1,0.2-0.1,0.3
					c0,0.1,0.1,0.2,0.4,0.4c0.3,0.1,0.5,0.2,0.6,0.2c0.1,0,0.3,0,0.6-0.1c0.3-0.1,0.5-0.1,0.7-0.1l0.5,0.1l0.6,0
					c0.4,0.1,0.6,0.2,0.7,0.2c0.1,0.1,0.2,0.2,0.4,0.4s0.3,0.3,0.3,0.3l0,0.3l0,0.1c0,0.1-0.1,0.3-0.4,0.4c-0.2,0.1-0.6,0.3-1.2,0.5
					c-0.6,0.2-1.1,0.4-1.5,0.7c-0.4,0.3-0.7,0.4-0.8,0.4c-0.1,0-0.2,0.1-0.2,0.1l-0.1,0.1l-0.2,0.1c-0.3,0.2-0.5,0.3-0.6,0.3
					l-0.2,0.3l-0.5,0.5c0,0-0.1,0.3-0.3,0.6l-0.2,0.4l-0.1,0.3l-0.2,0.5c0,0.1-0.1,0.2-0.1,0.2l-0.2,0.3l0,0.4l-0.2,0.6l0,0.3
					l-0.2,0.3v0.1l-0.1,0.3c0,0,0,0.1,0,0.3c0,0.1-0.1,0.4-0.2,0.8s-0.3,0.7-0.5,1c-0.2,0.3-0.5,0.6-0.9,0.7s-0.6,0.2-0.5,0.2l0.1,0
					h-0.2c-0.1,0-0.1,0-0.2,0.1c-0.1,0-0.2,0.1-0.5,0.1l-0.7,0.2h-0.8c-0.1,0-0.2,0-0.4,0.1c-0.1,0-0.2,0-0.3,0c-0.1,0-0.1,0-0.2,0
					l-0.3-0.2l-0.5,0c-0.2,0-0.3,0-0.3-0.1c0-0.1,0-0.1,0-0.1v-0.1l0.1-0.3l0.1-0.4c0-0.1,0.2-0.3,0.5-0.6S541.5,573.5,541.6,573.7z
					 M547.4,560.4c0.1,0,0.1-0.1,0.1-0.2c0-0.1-0.1-0.2-0.1-0.3c0-0.1-0.1-0.2-0.1-0.3c0-0.1-0.1-0.2-0.1-0.2c0-0.1-0.1-0.1-0.3,0
					s-0.2,0.2-0.1,0.4c0,0.1,0.1,0.2,0.1,0.2c0.1,0.1,0.1,0.1,0.1,0.1v0.1C547.1,560.4,547.2,560.5,547.4,560.4z M547.3,571.4
					c0.1-0.1,0.6-0.1,1.6-0.2l0.9,0c0,0,0.6,0.1,1.6,0.3c1,0.2,1.8,0.4,2.3,0.7c0.6,0.3,0.9,0.5,1,0.6c0.1,0.1,0.2,0.2,0.2,0.2
					l0.5,0.2c0,0,0,0.1,0.1,0.1l0.1,0.3l0.2,0.2l0.1,0.7l0.1,0.4c0,0,0,0.1,0,0.4l0,0.6c0,0.2-0.2,0.3-0.4,0.3l-1-0.5
					c-0.2,0-0.3-0.1-0.3-0.1l-0.2-0.2l-0.4-0.2c0,0-0.1-0.1-0.3-0.3l-0.9-0.6l-0.8-0.6L551,573c-0.8-0.5-1.2-0.8-1.3-0.8
					c-0.1,0-0.1-0.1-0.3-0.2c-0.1-0.1-0.4-0.2-0.9-0.3l-0.5-0.2c-0.1,0-0.2,0-0.4,0l-0.5,0C547.2,571.5,547.2,571.5,547.3,571.4z
					 M548.6,564.7c-0.2,0.5-0.2,0.8-0.1,0.9c0.1,0,0.3,0,0.6-0.2c0.4-0.2,0.8-0.4,1.2-0.5c0.4-0.1,0.5-0.3,0.4-0.6
					c0,0-0.2-0.1-0.4-0.2s-0.5-0.2-0.7-0.5s-0.4-0.4-0.4-0.4c-0.1,0-0.2,0.1-0.3,0.3s-0.1,0.3-0.1,0.5
					C548.7,564.2,548.6,564.4,548.6,564.7z"/>
			</g>
			<g>
				<path class="st0" d="M569.5,564c0.3,0.1,0.4,0.3,0.4,0.6c0,0.3-0.2,0.5-0.6,0.7c-0.4,0.2-0.5,0.4-0.5,0.5l0.2,0.4l0.1,0.3
					c0,0,0.1,0,0.1,0l0.4-0.5l0.8-0.8l0.8-0.9l-0.1-1.6c0,0,0,0,0-0.1l-0.1-0.2c-0.1-0.2-0.1-0.3-0.2-0.4c0-0.1,0-0.2,0-0.2l0-0.3
					c0-0.2,0-0.3,0.1-0.3c0,0,0.1,0.1,0.2,0.3c0,0,0.2,0.2,0.6,0.4l1.3-0.8c0.2-0.1,0.3-0.2,0.3-0.2v-0.1l0-0.1l0-0.1l0-0.2
					c0,0,0-0.1-0.1-0.1l-0.2-0.4l-0.2-0.2c0,0,0-0.1,0-0.1s-0.1-0.1-0.2-0.2c-0.1-0.1-0.2-0.2-0.2-0.3c0-0.1,0.1-0.1,0.1-0.1
					c0,0,0.1,0,0.1,0l0.6,0.1c0.1,0,0.2,0.1,0.4,0.2c0.2,0.1,0.3,0.2,0.4,0.3l0.1,0.2c0.1,0.1,0.1,0.3,0.2,0.6
					c0,0.3,0.1,0.4,0.3,0.4l1.2-0.4c0-0.1,0-0.2,0-0.3c0-0.1,0.1-0.2,0.1-0.2l0-0.2c0,0,0-0.1,0-0.2c0-0.1,0.1-0.2,0.1-0.2
					s0-0.1,0-0.1l0,0l0.1-0.2c0,0,0-0.1,0-0.1l0-0.2l-0.4-0.6c0,0,0,0,0,0l0.1-0.1c-0.1-0.1-0.2-0.1-0.2-0.2s-0.1-0.1-0.1-0.2
					c0-0.1,0.1-0.1,0.4-0.1l0.2,0.1h0.4l0.2,0.1l0.3,0l0.1,0.2c0,0,0.1,0.1,0.3,0.2s0.4,0.3,0.5,0.5c0.1,0.2,0.1,0.4,0.1,0.4
					c0,0.1,0,0.1,0,0.2l-0.1,0.3l0,0.3l-0.2,0.5c0.1,0,0.3,0.1,0.4,0.1s0.3,0,0.5,0c0,0,0.3,0,0.7,0.1l0.3,0.2l0.5,0.2
					c0,0,0.1,0.1,0.2,0.2c0.1,0.1,0.2,0.2,0.4,0.3c0.1,0.1,0.2,0.2,0.2,0.3c0,0.1,0,0.1,0,0.1l0.1,0.1c0,0,0,0.1,0,0.2l0,0.3l0,0.1
					c-0.1,0-0.1,0.1-0.2,0.1l-0.2,0.4l-0.2,0.2c-0.1,0.1-0.1,0.2-0.2,0.5s-0.1,0.4-0.2,0.5c0,0,0,0,0,0.1c0,0,0,0.2-0.1,0.3
					c0,0,0,0.1-0.1,0.3c0,0.2-0.1,0.4-0.2,0.6l-0.3,0.4l-0.4,0.7c-0.1,0.1-0.2,0.2-0.4,0.3c-0.2,0.1-0.3,0.2-0.4,0.2l-0.4-0.4
					l-0.4-0.6l-0.1,0.2l-1.3,0.9c0,0.1,0,0.1,0.1,0.1h0.1l0.6-0.2c0.1,0,0.3,0.1,0.7,0.2c0.4,0.1,0.5,0.3,0.6,0.5s-0.1,0.4-0.3,0.4
					l-2.3,0.8c-0.4,0.1-0.6,0.2-0.6,0.2l-0.4,0.3l-1.4,0.4l0.4-0.4c-0.3-0.1-0.5-0.2-0.6-0.3l-0.5-0.4l-0.1,0
					c-0.1,0-0.1-0.1-0.1-0.2s0.1-0.1,0.3-0.2l0.7,0l0.4-0.2l0.4-0.1c0,0,0.1-0.1,0.2-0.2l0.8-0.8l0.1-0.1c-0.1,0-0.1-0.1-0.1-0.1
					l-0.5,0.3l-0.2,0l-0.3,0.2c0,0-0.1,0-0.1,0l-0.5-0.1l-0.4-0.3l-0.2,0c0,0.1,0,0.2,0,0.3c0,0.1,0,0.1,0,0.1l0.1,0.3
					c-0.1,0.2-0.2,0.2-0.4,0l-0.3-0.3c-0.1-0.1-0.2-0.3-0.3-0.5c-0.1-0.3-0.2-0.5-0.2-0.6c-0.1-0.2-0.1-0.3-0.1-0.4
					c0-0.1,0-0.1,0-0.1c0,0,0,0,0,0c0,0,0,0-0.1,0c0,0-0.1,0-0.1,0.1v0.3c0,0.1-0.1,0.2-0.2,0.4l-1.3,2.1l-0.5,0.7l-0.3,0.5
					l-0.4,0.6c-0.1,0.3-0.2,0.4-0.2,0.4c0,0,0,0.1,0,0.1l-0.1,0.5l-0.2,1.1l0.1,1.6l0,0.3l0.1,1.1c0,0.3,0,0.4,0,0.6l-0.1,0.5l0,0.2
					c-0.1,0.3-0.1,0.5-0.3,0.6c-0.1,0.1-0.2,0-0.4-0.4l-0.4-0.7v-0.1c0-0.1-0.1-0.2-0.2-0.3c-0.1-0.1-0.1-0.2-0.1-0.3l0.2-1.1l0-0.6
					c0-0.1,0-0.3,0-0.5s0-0.4,0-0.5l0,0c-0.1-0.1-0.1-0.2,0-0.5c0.1-0.2,0.1-0.4-0.1-0.4l-0.4,0.4l-1,1c-0.4,0.3-0.6,0.5-0.7,0.5
					c-0.1,0-0.2-0.1-0.2-0.1c0-0.1,0-0.2,0-0.3l-0.3-0.5l-0.1-0.5l-0.1-0.2l0.1-0.5c0-0.1,0-0.2,0-0.2l0.2-0.2v-0.2
					c0,0,0-0.1,0.1-0.1l0.7-0.3c0.3-0.1,0.6-0.5,1.1-1.1l0.6-0.8l0.4-0.7c0.1-0.3,0.2-0.4,0.2-0.4l0.1-0.5c0-0.1,0-0.2,0-0.2v-0.2
					l0.1-0.2l0-0.1l-0.5,0l-1.2,0.8l-1,0.7c-0.2,0.1-0.5,0-0.8-0.3c-0.1-0.1-0.2-0.1-0.3-0.2c-0.1,0-0.1-0.1-0.2-0.1l-0.3-0.3
					l-0.4-0.2c0,0-0.1-0.2-0.2-0.4c-0.1-0.2-0.1-0.4-0.1-0.6s0-0.3,0.1-0.3c0,0,0.1,0.1,0.3,0.3c0.2,0.2,0.3,0.2,0.5,0.3
					c0.2,0,0.6,0,1.1-0.2c0.5-0.2,0.9-0.3,1.1-0.5c0.2-0.1,0.3-0.2,0.5-0.3c0.1-0.1,0.3-0.2,0.5-0.3l0.3-0.4l0.2-0.2
					c0.1-0.2,0.2-0.3,0.3-0.4l0.2,0c0.1-0.1,0.3-0.2,0.4-0.2c0.2,0,0.4,0.1,0.7,0.3l0.3,0.4C569.4,563.7,569.5,563.8,569.5,564z
					 M565.2,562.5l0.8-0.5l0.3-0.3l0.7-0.4c0,0,0.1-0.1,0.3-0.3l0.6-0.6c0-0.1,0.1-0.1,0.1-0.2l-0.4-0.3c0,0-0.1-0.1-0.1-0.2
					l-0.2-0.3l-0.2-0.4c0.2,0,0.3,0.1,0.4,0.2c0.1,0.1,0.2,0.1,0.2,0.1l0.5-0.2l0.3,0l0.2,0c0.1,0,0.2,0.1,0.4,0.2h0.3
					c0,0,0.1,0.1,0.3,0.3c0.2,0.2,0.3,0.3,0.4,0.4l0,0.3l0.1,0.2c0,0,0,0.1,0,0.1c-0.1,0.2-0.1,0.3-0.2,0.3l-1.1,0.2l-0.3,0.1
					l-1.8,0.5c-0.4,0.1-0.6,0.2-0.7,0.3c-0.1,0.1-0.1,0.1-0.1,0.1l-0.3,0l-0.2,0.2l-0.4,0.2C565.2,562.6,565.2,562.5,565.2,562.5z
					 M570.3,574.9c0.2,0,0.4,0,0.5,0.1c0.1,0,0.2,0.1,0.3,0c0.2,0,0.4-0.1,0.7-0.1c0.3,0,0.4,0,0.6-0.2c0,0,0.1,0,0.1,0l0.2,0
					c0,0,0.1,0,0.1,0c0.1,0,0.1-0.1,0.1-0.1l-0.2-0.3l-0.1-0.2l-0.1-0.1l0-0.3l-0.1-0.1c0,0,0-0.1,0-0.2l0-0.2l0.3-0.5l-0.5-0.7
					l-0.1-0.2l-0.1-0.3c0-0.1,0-0.2,0-0.4s0-0.3,0-0.4l0-0.1c0-0.1,0-0.4,0.2-0.7c0.1-0.2,0.2-0.3,0.4-0.4c0.1,0.5,0.1,0.7,0.2,0.7
					c0.1,0,0.2-0.1,0.5-0.3c0.2-0.2,0.5-0.4,0.8-0.5l1.3-0.4l0.6-0.3l0.6-0.2c0.1-0.1,0.2-0.1,0.2-0.1h0.3l0.3-0.1l0.3,0l0.2,0
					c0.1,0,0.3,0.1,0.6,0.2c0.3,0.2,0.5,0.2,0.5,0.3c0,0,0.1,0.1,0.2,0.3c0.1,0.2,0.2,0.3,0.2,0.4c0,0,0,0.1,0,0.1l-0.7,0.8
					c0,0.1-0.1,0.2-0.3,0.4c-0.1,0.2-0.2,0.4-0.2,0.4l0,0.2l-0.1,0.4l0.3,0.2l0.1,0.2l0.2,0.4c0,0.1,0,0.2,0,0.2
					c0,0.1-0.1,0.2-0.3,0.2l0,0.2c-0.2,0.1-0.4,0.2-0.4,0.3l-0.2,0.3l-0.3,0.3l-0.1,0.2h0.6l0.4,0c0.3,0,0.5,0,0.7,0.1l0.5,0
					l0.5,0.2l0.3,0.1l0.2,0.2l0.3,0.1c0.2,0.1,0.3,0.3,0.4,0.6c0.1,0.3,0,0.5-0.2,0.5c-0.2,0-0.4,0-0.6,0l-0.2,0h-0.3l-0.2-0.1h-0.3
					l-0.5-0.1l-0.2,0l-0.2-0.1h-0.2l-0.1-0.1c0,0-0.1,0-0.2,0l-0.3,0l-0.3,0l-0.2-0.1l-1.3,0.1c0,0-0.2,0-0.4,0.1l-0.2,0.1l-0.2-0.1
					l-0.2,0.1c0,0-0.1,0-0.2,0l-0.5,0.1h-0.4c-0.3,0-0.5,0.1-0.7,0.2l-0.4,0.2l-0.3,0l-0.4,0.3l-0.3-0.1l-0.3,0.1c0,0-0.1,0-0.2-0.1
					l-0.2-0.1c-0.1,0-0.2-0.2-0.4-0.4s-0.3-0.4-0.2-0.5L570.3,574.9z M572.2,563.1l0,1.1v0.3l0.2,0.9c0,0.1,0.1,0.2,0.2,0.2
					c0.1,0,0.3,0,0.6-0.1c0.3-0.1,0.5-0.2,0.5-0.2c0-0.1,0-0.1,0-0.2c0-0.2,0-0.3,0-0.3l-0.1-0.3v-0.3l-0.3-0.1
					c-0.1-0.1-0.3-0.1-0.5-0.1s-0.3-0.1-0.4-0.2c-0.1-0.1-0.1-0.2-0.2-0.2c0,0,0.1-0.1,0.2-0.2c0,0,0.2-0.1,0.4-0.1
					c0.2-0.1,0.4-0.1,0.5-0.3l0.1-0.5c0-0.1,0-0.2,0-0.2l0-0.1l0-0.2l-0.1-0.1l0-0.2c0,0-0.1-0.1-0.3-0.2c-0.2-0.1-0.3-0.1-0.5,0
					c-0.1,0.1-0.1,0.1-0.1,0.2l-0.1,0.3l-0.2,0.1c0,0,0,0.1-0.1,0.2c0,0.1,0,0.2,0,0.2L572.2,563.1z M573.3,571.7l0.4-0.1l1.3-0.4
					c0.5-0.1,0.7-0.2,0.8-0.3s0.1-0.1,0.2-0.2s0.1,0,0.1-0.1l0-0.1l0.1-0.1l0.1-0.2l0.1-0.1l0-0.2l0.1-0.3c-0.1-0.1-0.2-0.1-0.3-0.1
					l-0.8,0.3l-0.7,0.2c-0.3,0.1-0.4,0.2-0.4,0.2l-0.5,0l-0.2,0.1l-0.4-0.1c-0.2,0-0.3,0.2-0.3,0.5
					C572.9,570.9,573.1,571.2,573.3,571.7z M573.4,573c0.1,0,0.1,0,0.2,0c0.1,0,0.2,0,0.2-0.1c0.1-0.1,0.1-0.1,0.1-0.1
					c0,0,0.1,0,0.1,0.1l0.2-0.1l-0.6,1.1l-0.2,0.3c0,0,0,0.1,0,0.2c0,0.1,0.1,0.1,0.2,0.1l1.6-0.3l0.3-0.3c0.2-0.1,0.3-0.3,0.5-0.5
					c0.1-0.2,0.2-0.3,0.3-0.4c0.1-0.1,0.1-0.1,0.1-0.1c0,0,0.1-0.1,0.1-0.4s0.1-0.3,0.1-0.4l-0.1-0.3c-0.8,0-1.2,0.1-1.3,0.1
					c-0.1,0-0.1,0.1-0.1,0.1l-0.2,0l-1.2,0.4h-0.4c-0.1,0-0.1,0.1-0.1,0.1s0,0.1,0,0.1L573.4,573z M574.7,562.7l0.4-0.2
					c0.3-0.1,0.5-0.2,0.5-0.2c0,0,0.1-0.1,0.1-0.2l0.1-0.5c0-0.1,0.1-0.3,0-0.4c0-0.1-0.1-0.1-0.3,0l-0.3,0.1l-0.4,0.2
					c-0.1,0-0.2,0.1-0.2,0.1l0,0.4c0,0.1,0,0.2,0,0.2l0,0.1l-0.1,0.1c0,0,0,0,0,0v0.1C574.5,562.6,574.6,562.7,574.7,562.7z
					 M574.6,564.7c0,0.1,0,0.2,0.1,0.2l0.3-0.1l0.2,0c0.2,0,0.3-0.1,0.3-0.4V564c0,0,0-0.1,0-0.2c0-0.1,0-0.2,0-0.3
					c0-0.1-0.3,0-0.7,0.3c-0.1,0-0.1,0.1-0.1,0.1l0,0.4l-0.1,0.2C574.6,564.6,574.6,564.6,574.6,564.7z M578,560.7
					c-0.1-0.1-0.2-0.1-0.3-0.1c-0.1,0-0.2,0.1-0.2,0.2l-0.3,1.3c0.1,0.1,0.3,0.2,0.5,0.2s0.3,0.1,0.3,0.4c0,0.2,0,0.3-0.1,0.4
					l-0.4,0l-0.3,0.1c-0.1,0-0.2,0.1-0.2,0.1s0,0.2-0.1,0.5l-0.2,0.7c0,0.3,0.2,0.5,0.4,0.6c0.3,0,0.4,0,0.5-0.1l0.2-0.3l0.2-0.4
					l0-0.2l0.1-0.2v-0.3l0.1-0.1v-0.4l0.2-0.4l-0.1-0.1l0.2-0.7c0,0,0-0.1,0-0.2c0-0.1,0-0.2,0-0.2l-0.3-0.1
					C578.2,560.9,578.1,560.8,578,560.7z"/>
			</g>
			<g>
				<path class="st0" d="M599,558.1c0.2-0.1,0.3-0.2,0.5-0.2c0.2,0,0.4,0.1,0.8,0.3s0.6,0.3,0.7,0.5l0.3,0.5l0.2,0.3
					c0.1,0.2,0.2,0.4,0.2,0.6c0,0.2-0.1,0.3-0.1,0.5c-0.1,0.1-0.2,0.2-0.4,0.3l-0.3,0.1l-0.2,0.2c-0.3,0.2-0.5,0.4-0.7,0.4l-0.4,0.1
					l-0.7,0.4l-0.4,0l-0.3,0.1c-0.1,0-0.1,0-0.1-0.1c0,0,0-0.1,0.1-0.2c0.1-0.1,0.1-0.1,0.2-0.2c0-0.1-0.1,0-0.3,0.1
					c0,0-0.1,0-0.2,0c-0.1,0-0.2,0.1-0.2,0.1c-0.1,0.1-0.1,0.2-0.1,0.3c0,0.2,0.1,0.2,0.4,0.2l0.4-0.1h0.3l0.4,0l0.2,0.1l0.2-0.2
					h0.1l0.2,0l0.3,0.1l0.5-0.2l0.3,0.1l0.6,0l1.4,0.3c0.1,0,0.3,0.1,0.5,0.1c0.2,0,0.4,0,0.4,0c0,0,0.1,0,0.1,0.1l0.2,0.2l0.2,0
					c0.1,0,0.1,0.1,0.2,0.1l0.1,0.2l0.4,0.3c0.1,0.1,0.1,0.2,0.2,0.3c0.1,0.1,0.1,0.2,0.1,0.2l0.2,0.1c0,0,0.1,0.2,0.2,0.3
					s0.1,0.3,0.1,0.4c0,0.1-0.1,0.2-0.1,0.4l-0.1,0.4c0,0.1-0.1,0.1-0.1,0.1l-0.6-0.1l-0.4,0.1l-0.4-0.1l-0.3,0h-0.2l-0.5,0.2
					l-0.6,0.1l-0.4,0.1l-0.5-0.1c-0.1,0-0.3,0.1-0.3,0.1s-0.1,0.2-0.1,0.2l0,0.5c0,0.1-0.2,0.3-0.4,0.4c-0.2,0.2-0.3,0.3-0.4,0.3
					l-0.7,0.2l-0.2,0.4c-0.1,0.1-0.1,0.2-0.2,0.3c0,0,0.1,0.1,0.2,0.3c0.1,0.1,0.1,0.2,0.2,0.3s0.1,0.2,0.1,0.3
					c0,0.1-0.1,0.2-0.4,0.4c-0.1,0.1-0.1,0.1-0.2,0.1l-0.4,0c-0.1,0-0.2,0.1-0.4,0.2c-0.1,0.1-0.2,0.2-0.2,0.3l0,0.3l-0.1,0.2
					c0,0.1,0,0.1,0.1,0.2l0.6-0.1c0,0,0,0,0.1,0c0.1,0,0.1,0,0.2,0s0.1,0,0.1,0.1l0.3,0.3l0.2,0.1c0,0,0.1,0.1,0.3,0.3
					c0.2,0.2,0.3,0.3,0.3,0.4c0,0.1,0,0.1,0,0.2c0,0.2,0,0.3,0,0.3l-0.4,0.2l-0.3,0.1l-0.2-0.1c-0.1,0-0.3,0-0.6,0.2
					c-0.3,0.1-0.5,0.2-0.5,0.3c-0.1,0.1-0.1,0.1-0.1,0.2c0,0.1,0.1,0.2,0.3,0.4c0.2,0.2,0.4,0.3,0.6,0.4c0.3,0.1,0.4,0.2,0.5,0.2
					l0.4,0l0.2,0.1l0.2,0c0,0,0.1,0.1,0.3,0.2l0.3,0.1c0,0,0.1,0.1,0.3,0.2c0.1,0.1,0.2,0.2,0.3,0.3l0.1,0.3l0.4,0.4c0,0,0,0,0,0.1
					v0.1c0,0-0.1,0.1-0.1,0.3c-0.1,0.2-0.2,0.3-0.4,0.2c0,0-0.1,0-0.3-0.1s-0.3-0.1-0.4-0.1c-0.1,0-0.1-0.1-0.1-0.1l-0.4,0.1
					c0,0-0.1,0-0.2,0l-0.2-0.1l-0.5-0.2h-0.2l-0.3-0.1c-0.2,0-0.5,0-0.9,0l-1.4,0.2h-0.3l-2,0.8c-0.5,0.2-0.8,0.3-0.8,0.3l-0.4,0
					l-0.4,0.1c-0.3,0-0.6-0.1-0.9-0.3c-0.3-0.2-0.4-0.4-0.4-0.6l0-0.2c0-0.1,0-0.2,0-0.2c0-0.1,0-0.3,0.1-0.3l0.3-0.1
					c0.2-0.1,0.3-0.1,0.3-0.1l0.3,0.1l0.6-0.1l0.3,0l0.4-0.2c0.1-0.1,0.4-0.1,0.8-0.2l0.4,0c0.1,0,0.2,0,0.2,0l0.2,0
					c0,0,0.1-0.1,0.2-0.2c0.1-0.1,0.2-0.2,0.2-0.2c0,0-0.1-0.1-0.1-0.2c-0.1-0.1-0.2-0.2-0.3-0.2c-0.1,0-0.2,0-0.2-0.1l0.2-0.1
					c0,0,0.1-0.1,0-0.1l-0.4,0.1l-0.1,0c0,0-0.1,0-0.2,0c-0.1,0-0.2,0-0.3,0c-0.7-0.1-1.2-0.3-1.4-0.7c-0.2-0.4-0.3-0.6-0.3-0.7
					c0-0.1,0.1-0.2,0.1-0.2c0.1,0,0.1-0.1,0.2-0.1l0.6,0.1l0.3-0.1l1.3-0.4c0.1-0.2,0.2-0.2,0.2-0.3l-0.1-0.4l0.1-0.3
					c0,0,0-0.1,0-0.1c0,0-0.1-0.1-0.1-0.1c-0.1,0-0.1-0.1-0.1-0.1l-0.4,0.1c-0.1,0-0.3-0.1-0.4-0.2l-0.2-0.3l-0.3-0.2l-0.2-0.3
					l-0.1-0.1l-0.1-0.3c0,0-0.1-0.1-0.1-0.2c-0.1-0.1-0.1-0.3-0.1-0.4v-0.8l-0.2-0.7V567l-0.1-0.4c0-0.2,0.1-0.3,0.2-0.3
					c0,0,0.1,0,0.1,0l0.4,0.3l0.8-0.3l0.3,0l0.3-0.1l0.3-0.1l0.3-0.1l0.4-0.1l0.3-0.3l0.2,0.1c0.1,0,0.1,0,0.1-0.1
					c0,0-0.1-0.1-0.2-0.2l-0.4-0.5c-0.2-0.1-0.3-0.2-0.3-0.2l-0.1-0.4c0-0.1-0.1-0.1-0.2-0.1c-0.1,0-0.2,0-0.4,0.1
					c-0.2,0.1-0.3,0.2-0.5,0.3c-0.2,0.1-0.3,0.2-0.3,0.2l0,0.1c-0.1,0-0.1,0-0.1,0l-0.3,0c-0.3,0.1-0.6,0.1-0.8,0.1l-0.2,0l-0.2,0
					l-0.2,0c-0.7,0.1-1.2,0.3-1.3,0.6s-0.3,0.7-0.4,1l-0.3,1.3L590,569c-0.1,0.6-0.3,1-0.3,1.1c-0.1,0.1-0.2,0.1-0.4-0.1l-0.3-0.4
					l-0.3-0.3c0,0,0-0.1-0.1-0.4l-0.1-0.4c0-0.1,0-0.3,0-0.5c0-0.2,0-0.4,0.1-0.5l0.4-0.5c0.1-0.1,0.1-0.3,0.2-0.5l0-0.4
					c0-0.3,0.1-0.5,0.1-0.6l-0.1-1.1c0,0,0.1-0.1,0.1-0.1c0,0,0,0,0.1,0l0.2,0.4l0.2,0.3l0.1,0.4c0.1,0.1,0.2,0.1,0.4-0.2
					c0,0,0.1-0.1,0.2-0.2l1-0.8c0.1-0.2,0.3-0.3,0.5-0.4c0.2-0.1,0.3-0.2,0.3-0.3l-0.3-1.6c0,0,0-0.1,0-0.3l0-0.3l0.3-0.5l0.1-0.5
					c0-0.2,0.1-0.3,0.3-0.3c0,0,0.1,0.1,0.2,0.1c0.1,0.1,0.2,0.2,0.2,0.4c0.1,0.2,0.1,0.3,0.2,0.3c0.2,0,0.7-0.2,1.5-0.6l1-0.7
					c0.2-0.1,0.3-0.3,0.3-0.4c0,0,0-0.1,0-0.1l-0.3-0.3l-0.1-0.3l-0.2-0.3c-0.1-0.1-0.1-0.1-0.1-0.2L595,558v-0.3l-0.2-0.2
					c0-0.2,0.2-0.2,0.5-0.2c0.1,0,0.2,0,0.4,0.1s0.3,0,0.6,0.1l0.3,0l0.4-0.1c0,0,0.1,0.1,0.1,0.1l0,0.1l0.2,0.1
					c0,0,0.1,0.1,0.1,0.2l0.4,0.4c0,0,0.1,0.1,0.1,0.1l0.2,0l0,0.3l0.1,0.1c0,0,0,0.1,0.1,0.3s0.1,0.3,0.1,0.4
					c0,0.3-0.1,0.5-0.2,0.8l-0.2,0.3c-0.1,0.1-0.1,0.2-0.2,0.3l-0.2,0.6c-0.1,0.2-0.1,0.3-0.1,0.5c0,0.1,0.2,0.1,0.4-0.1l0.2-0.2
					l0.5-0.4l0.2-0.3l0.2-0.1c0.1,0,0.1-0.1,0.2-0.2l0-0.2l0.4-0.3l0-0.2l0.2-0.4c0,0,0-0.1,0-0.3c0-0.1,0-0.2,0-0.2l-0.1-0.3l0-0.3
					l-0.3-0.1C599.4,558.4,599.3,558.3,599,558.1z M593.7,562.8c-0.2,0.2-0.3,0.4-0.2,0.5c0,0.1,0.1,0.1,0.3,0.1l0.6-0.1
					c0.1,0,0.1,0,0.2,0l0,0.1c0,0,0,0,0.1,0c0,0,0.1-0.1,0.2-0.2s0.2-0.2,0.2-0.3c0,0,0-0.1-0.1-0.1l-0.4-0.3l-0.3-0.3l-0.2-0.1
					C594,562.4,593.9,562.6,593.7,562.8z M595.5,562.4L595.5,562.4c0-0.1,0-0.1,0.1-0.1s0.1-0.1,0.1-0.2c0-0.3,0-0.7,0.1-1.1
					c0.1-0.7,0.1-1,0.1-1c0,0,0-0.1-0.1-0.1c0,0-0.2,0.1-0.4,0.4l-0.4,0.3l-0.3,0.5l-0.3,0.3l-0.1,0.3l-0.1,0.1c0,0.1-0.1,0.1,0,0.1
					c0,0.2,0.1,0.3,0.3,0.4s0.4,0.1,0.5,0.2l0.3,0.1C595.5,562.5,595.5,562.5,595.5,562.4z M595.1,568.9c0.1-0.1,0.1-0.1,0.2-0.1
					l0.4,0.1c0,0,0.1,0,0.2-0.1l1.1-0.2c0,0,0.1,0,0.2,0s0.2-0.2,0.4-0.4c0.2-0.2,0.4-0.4,0.4-0.4c0.1-0.1,0.1-0.1,0.2-0.2l0.1-0.2
					c0.2-0.3,0.2-0.6,0.2-0.6c0-0.1-0.1-0.1-0.1-0.2l-0.4,0.3c0,0-0.1,0-0.3,0l-0.9,0.7c-0.4,0.2-0.8,0.3-1.3,0.4l-0.4,0
					c-0.1,0.1-0.1,0.1-0.2,0.2s0,0.2,0.1,0.4L595.1,568.9z M597,565.6l0.5-0.2l0.3,0.1l0.2-0.3l0.3,0c0,0,0.1-0.1,0.3-0.2
					s0.3-0.2,0.4-0.1c0,0,0.2,0.1,0.4,0.2c0.3,0.1,0.5,0.2,0.6,0.2c0.1,0,0.3,0,0.4-0.2c0.1-0.1,0.1-0.1,0.1-0.1l0.3,0l0.2-0.2
					l0.4-0.1l0.2-0.1l0.3,0c0,0,0,0,0,0c0.1,0,0.1,0,0.2-0.1l0-0.3c0,0,0,0,0.1-0.1s0.1-0.1,0.2-0.2c0.1-0.1,0.1-0.1,0.1-0.1
					l0.2-0.1c0.1,0,0.1-0.1,0.1-0.2c0-0.2-0.2-0.4-0.7-0.5c-0.4-0.2-0.9-0.2-1.4-0.2l-0.5,0.1l-0.2,0l-0.4,0.1h-0.2l-0.4,0.1h-0.2
					l-0.7,0.3l-0.5,0.1c-0.1,0.1-0.2,0.1-0.3,0.2l-0.2,0.9l-0.1,0.2c0,0.1-0.1,0.2-0.1,0.4L597,565.6
					C596.9,565.5,597,565.5,597,565.6z M597.3,575l0.5-0.1l0.5,0.1c0.1,0,0.2-0.1,0.2-0.2s0-0.2,0-0.2c0,0-0.2-0.1-0.4-0.4
					c-0.2-0.2-0.4-0.3-0.4-0.3c-0.1,0-0.2,0.1-0.3,0.3l-0.3,0.5C597,574.9,597.1,575,597.3,575z"/>
			</g>
		</g>
		<g>
			<path class="st0" d="M398.5,589.3h227v-43.5h-227V589.3z M408.2,555.5h207.7v24.1H408.2V555.5z"/>
			<path class="st0" d="M697.9,486.7c-6.6,2-13.4,3-20.2,3c-16.2,0-32.2-5.6-44.9-16.3h-96.6c0-11.7-8.3-21.4-19.3-23.7v-19.8h-9.7
				v19.8c-11,2.2-19.3,12-19.3,23.7h-96.6c-12.8,10.7-28.7,16.3-44.9,16.3c-6.7,0-13.5-1-20.2-3L314,483l11.1,17.8
				c7.2,11.5,19.1,19,32.4,20.6v72.8v19.3v9.7v9.7v9.7v9.7v9.7v29l43.5-29H454H570h53.1l43.5,29v-29v-9.7v-9.7v-9.7v-9.7v-9.7v-19.3
				v-72.8c13.2-1.6,25.2-9.1,32.4-20.5L710,483L697.9,486.7z M512,458.9c8,0,14.5,6.5,14.5,14.5h-29
				C497.5,465.4,504,458.9,512,458.9z M367.1,672.7v-10.9h16.4L367.1,672.7z M391.1,652.1h-24v-9.7h24l-4.7,4.8L391.1,652.1z
				 M576.4,603.8h43.1l4.7,4.8l-4.7,4.8H614h-20.4h-17.2l3.2-4.8L576.4,603.8z M623.6,594.1H570H454h-53.7h-14V541h251.2v53.1H623.6
				z M536,632.7H488l4.7-4.8l-4.7-4.8H536l-4.7,4.8L536,632.7z M478.7,613.4h-19.5l-3.2-4.8l3.2-4.8h105.6l3.2,4.8l-3.2,4.8h-19.5
				H478.7z M447.6,613.4h-17.2H410h-5.6l-4.7-4.8l4.7-4.8h43.1l-3.2,4.8L447.6,613.4z M391.1,603.8l-4.7,4.8l4.7,4.8h-24v-9.7h9.7
				H391.1z M400.4,623.1h0.4l-4.7,4.8l4.7,4.8h-0.4h-33.3v-9.7H400.4z M447.6,652.1h-32.2h-10.9l-4.7-4.8l4.7-4.8h5.6h20.4h17.2
				l-3.2,4.8L447.6,652.1z M423.6,632.7l-3.4-4.8l3.4-4.8H454h11.1l3.4,4.8l-3.4,4.8H454H423.6z M564.8,652.1H459.2l-3.2-4.8
				l3.2-4.8h19.5h66.5h19.5l3.2,4.8L564.8,652.1z M558.9,632.7l-3.4-4.8l3.4-4.8H570h30.4l3.4,4.8l-3.4,4.8H570H558.9z M619.5,652.1
				h-10.9h-32.2l3.2-4.8l-3.2-4.8h17.2H614h5.6l4.7,4.8L619.5,652.1z M656.9,672.7l-16.4-10.9h16.4V672.7z M656.9,652.1h-24l4.7-4.8
				l-4.7-4.8h24V652.1z M656.9,632.7h-33.3h-0.4l4.7-4.8l-4.7-4.8h0.4h33.3V632.7z M656.9,613.4h-24l4.7-4.8l-4.7-4.8h14.3h9.7
				V613.4z M656.9,594.1h-9.7v-62.8H376.8v62.8h-9.7v-72.4h289.8V594.1z M661.3,512H362.7c-10.9,0-20.9-5-27.5-13.5
				c3.7,0.5,7.3,0.8,11.1,0.8c17.4,0,34.5-5.8,48.3-16.3h93.2h48.3h93.2c13.9,10.5,30.9,16.3,48.3,16.3c3.7,0,7.4-0.3,11-0.8
				C682.2,507,672.1,512,661.3,512z"/>
		</g>
	</g>
	<g>
		<g>
			<rect x="280.2" y="589.3" class="st1" width="86.9" height="19.3"/>
		</g>
		<g>
			
				<rect x="139.5" y="658.7" transform="matrix(0.7071 0.7071 -0.7071 0.7071 516.8974 90.0422)" class="st2" width="20.5" height="20.5"/>
		</g>
		<g>
			<g>
				<path class="st0" d="M327.7,637.6l4.1,7.2l-4.1,7.2h-8.1l-4.1-7.2l4.1-7.2H327.7 M333.3,627.9H314l-9.7,16.9l9.7,16.9h19.3
					l9.7-16.9L333.3,627.9L333.3,627.9z"/>
			</g>
		</g>
		<g>
			<path class="st0" d="M149.8,661.3l7.7,7.7l-7.7,7.7l-7.7-7.7L149.8,661.3 M149.8,654.5L135.3,669l14.5,14.5l14.5-14.5
				L149.8,654.5L149.8,654.5z"/>
		</g>
		<g>
			<polygon class="st0" points="251.7,661.7 241,661.7 251.2,676.2 241,690.7 251.7,690.7 265.7,676.2 251.7,661.7 			"/>
		</g>
		<g>
			<path class="st0" d="M215,632.7h33.8v-33.8H215V632.7z M224.6,608.6h14.5v14.5h-14.5V608.6z"/>
			<path class="st0" d="M376.8,879.1h-9.7V690.7v-38.6v-14.5v-9.7v-38.6h-77.3v-19.6c13.2-1.6,25.2-9.1,32.4-20.5l11.1-17.8
				l-12.2,3.7c-6.6,2-13.4,3-20.2,3c-16.2,0-32.2-5.6-44.9-16.3h-48.3c-12.8,10.6-28.7,16.3-44.9,16.3c-6.7,0-13.5-1-20.2-3
				l-12.2-3.7l11.1,17.8c7.2,11.5,19.1,19,32.4,20.6v19.6h-24.1c-12.8,10.7-28.8,16.3-45,16.3c-6.7,0-13.5-1-20.1-3l-12.2-3.7
				l11.1,17.8c7.2,11.5,19.1,18.9,32.4,20.5v14.8v24.1v9.7V710v169h-9.7l16.1,24.1l-16.1,24.1h86.9l-16.1-24.1l16.1-24.1h-9.7V732.6
				l33.8-22.5h4.8h19.3h4.8l33.8,22.5v146.5h-9.7l16.1,24.1l-16.1,24.1h106.3l-16.1-24.1L376.8,879.1z M357.4,598.9v29h-4.8h-4.8
				h-48.3h-4.8h-4.8v-29H357.4z M309.1,690.7h4.8h19.3h4.8h4.8v188.4h-38.6V690.7H309.1z M304.3,681v-19.3h4.8V681H304.3z M314,681
				v-19.3h19.3V681H314z M338.1,681v-19.3h4.8V681H338.1z M338.1,652.1h-4.8H314h-4.8h-4.8h-4.8v-14.5h48.3v14.5H343H338.1z
				 M347.8,690.7h9.7v188.4h-9.7V690.7z M347.8,681v-19.3h4.8h4.8V681H347.8z M352.6,652.1v-14.5h4.8v14.5H352.6z M289.8,681v-9.7
				v-9.7h4.8h4.8V681H289.8z M299.5,690.7v188.4h-9.7V739v-29v-9.7v-9.7H299.5z M289.8,652.1v-9.7v-4.8h4.8v14.5H289.8z
				 M121.3,627.9c-10.9,0-20.9-5-27.5-13.5c3.6,0.5,7.3,0.8,11,0.8c17.4,0,34.5-5.8,48.4-16.3h20.8v29H121.3z M164.2,700.4v-14.5
				h9.7v4.8v9.7H164.2z M173.9,710v29v140.1h-9.7V710H173.9z M164.2,676.2h-4.8h-21.7h-4.8h-7.2v-14.5h7.2h4.8h21.7h4.8h9.7v9.7v4.8
				H164.2z M137.7,700.4v-14.5h21.7v14.5H137.7z M159.4,710v169h-21.7V710H159.4z M125.6,700.4v-14.5h7.2v14.5H125.6z M132.9,710
				v169h-7.2V710H132.9z M125.6,652.1v-14.5h7.2v14.5H125.6z M137.7,652.1v-14.5h21.7v14.5H137.7z M164.2,652.1v-14.5h9.7v4.8v9.7
				H164.2z M124.3,917.7l6.4-9.7h38l6.4,9.7H124.3z M168.7,898.4h-38l-6.4-9.7h8.5h4.8h21.7h4.8h10.9L168.7,898.4z M183.6,721V710
				H200L183.6,721z M193,579.6h-9.5V570h9.5l-4.7,4.8L193,579.6z M193.2,589.3v53.1h-9.7v-4.8v-9.7v-38.6H193.2z M193,652.1
				l-4.7,4.8l4.7,4.8h-9.5v-9.7H193z M202.4,671.4h0.4l-4.7,4.8l4.7,4.8h-0.4h-18.8v-4.8v-4.8H202.4z M241.5,589.3h19.3v53.1h-19.3
				h-19.3h-19.3v-53.1h19.3H241.5z M224.2,574.8l3.2-4.8h9l3.2,4.8l-3.2,4.8h-9L224.2,574.8z M248,570h9.3l4.7,4.8l-4.7,4.8H248
				l3.2-4.8L248,570z M248,652.1h9.3l4.7,4.8l-4.7,4.8H248l3.2-4.8L248,652.1z M239.6,656.9l-3.2,4.8h-9l-3.2-4.8l3.2-4.8h9
				L239.6,656.9z M215.8,579.6h-9.3l-4.7-4.8l4.7-4.8h9.3l-3.2,4.8L215.8,579.6z M206.5,652.1h9.3l-3.2,4.8l3.2,4.8H212h-5.6
				l-4.7-4.8L206.5,652.1z M193,690.7l-4.7,4.8l4.7,4.8h-9.5v-9.7H193z M215.8,700.4h-9.3l-4.7-4.8l4.7-4.8h5.6h3.8l-3.2,4.8
				L215.8,700.4z M236.4,700.4h-4.5h-4.5l-3.2-4.8l3.2-4.8h9l3.2,4.8L236.4,700.4z M257.3,700.4H248l3.2-4.8l-3.2-4.8h9.3l4.7,4.8
				L257.3,700.4z M280.2,721L263.8,710h16.4V721z M280.2,700.4h-9.5l4.7-4.8l-4.7-4.8h9.5V700.4z M280.2,681h-18.8h-19.9h-19.3h-6.3
				l-3.4-4.8l3.4-4.8h6.3h19.3h19.9h18.8V681z M280.2,661.7h-9.5l4.7-4.8l-4.7-4.8h9.5V661.7z M280.2,627.9v9.7v4.8h-9.7v-53.1h9.7
				V627.9z M280.2,579.6h-9.5l4.7-4.8l-4.7-4.8h9.5V579.6z M284.5,560.3h-23.1h-19.9h-19.3h-19.9h-23.1c-10.9,0-20.9-5-27.5-13.5
				c3.7,0.5,7.3,0.8,11.1,0.8c17.4,0,34.5-5.8,48.3-16.3h41.6c13.9,10.5,30.9,16.3,48.3,16.3c3.7,0,7.4-0.3,11.1-0.8
				C305.5,555.3,295.4,560.3,284.5,560.3z M288.6,917.7l6.4-9.7h57.3l6.4,9.7H288.6z M352.3,898.4H295l-6.4-9.7h10.9h4.8H343h4.8
				h10.9L352.3,898.4z"/>
		</g>
		<g>
			<rect x="314" y="661.7" class="st2" width="19.3" height="19.3"/>
		</g>
	</g>
	<g>
		<g>
			<rect x="656.9" y="589.3" class="st1" width="86.9" height="19.3"/>
		</g>
		<g>
			
				<rect x="864" y="658.7" transform="matrix(0.7071 -0.7071 0.7071 0.7071 -216.9747 814.1196)" class="st2" width="20.5" height="20.5"/>
		</g>
		<g>
			<g>
				<path class="st0" d="M898.4,661.7v14.5h-48.3v-14.5H898.4 M908.1,652.1h-67.6v33.8h67.6V652.1L908.1,652.1z"/>
			</g>
		</g>
		<g>
			<rect x="690.7" y="661.7" class="st2" width="19.3" height="19.3"/>
		</g>
		<g>
			<path class="st0" d="M775.2,632.7H809v-33.8h-33.8V632.7z M784.9,608.6h14.5v14.5h-14.5V608.6z"/>
			<path class="st0" d="M939.3,602.6c-6.6,2-13.4,3-20.1,3c-16.2,0-32.2-5.6-45-16.3h-24.1v-19.6c13.2-1.6,25.2-9.1,32.4-20.6
				l11.1-17.8l-12.2,3.7c-6.6,2-13.4,3-20.2,3c-16.2,0-32.2-5.6-44.9-16.3H768c-12.8,10.6-28.7,16.3-44.9,16.3c-6.7,0-13.5-1-20.2-3
				l-12.2-3.7l11.1,17.8c7.2,11.5,19.1,19,32.4,20.5v19.6h-77.3v38.6v9.7v14.5v38.6v188.4h-9.7l16.1,24.1l-16.1,24.1h106.3
				l-16.1-24.1l16.1-24.1h-9.7V732.6l33.8-22.5h4.8h19.3h4.8l33.8,22.5v146.5h-9.7l16.1,24.1l-16.1,24.1h86.9l-16.1-24.1l16.1-24.1
				h-9.7V710v-33.8v-39c13.2-1.6,25.2-9.1,32.4-20.5l11.1-17.8L939.3,602.6z M666.6,598.9h67.6v29h-4.8h-4.8H710h-19.3h-14.5h-4.8
				h-4.8V598.9z M681,690.7h4.8h4.8H710h4.8h4.8v188.4H681V690.7z M676.2,637.6h9l-4.1,7.2l4.1,7.2H681h-4.8V637.6z M710,661.7V681
				h-19.3v-19.3H710z M714.9,661.7h4.8V681h-4.8V661.7z M715.5,652.1l4.1-7.2l-4.1-7.2h9v14.5h-4.8H715.5z M708.6,644.8l-4.1,7.2
				h-8.1l-4.1-7.2l4.1-7.2h8.1L708.6,644.8z M681,661.7h4.8V681H681V661.7z M724.5,690.7h9.7v9.7v9.7v29v140.1h-9.7V690.7z
				 M724.5,681v-19.3h4.8h4.8v9.7v9.7H724.5z M729.3,652.1v-14.5h4.8v4.8v9.7H729.3z M666.6,637.6h4.8v14.5h-4.8V637.6z
				 M666.6,661.7h4.8h4.8V681h-9.7V661.7z M666.6,690.7h9.7v188.4h-9.7V690.7z M665.3,917.7l6.4-9.7H729l6.4,9.7H665.3z M729,898.4
				h-57.3l-6.4-9.7h10.9h4.8h38.6h4.8h10.9L729,898.4z M743.8,721V710h16.4L743.8,721z M753.3,579.6h-9.5V570h9.5l-4.7,4.8
				L753.3,579.6z M753.5,589.3v53.1h-9.7v-4.8v-9.7v-38.6H753.5z M753.3,652.1l-4.7,4.8l4.7,4.8h-9.5v-9.7H753.3z M762.6,671.4h0.4
				l-4.7,4.8l4.7,4.8h-0.4h-18.8v-9.7H762.6z M801.8,589.3h19.3v53.1h-19.3h-19.3h-19.3v-53.1h19.3H801.8z M784.4,574.8l3.2-4.8h9
				l3.2,4.8l-3.2,4.8h-9L784.4,574.8z M808.2,570h9.3l4.7,4.8l-4.7,4.8h-9.3l3.2-4.8L808.2,570z M808.2,652.1h9.3l4.7,4.8l-4.7,4.8
				H812h-3.8l3.2-4.8L808.2,652.1z M799.8,656.9l-3.2,4.8h-9l-3.2-4.8l3.2-4.8h9L799.8,656.9z M776,579.6h-9.3l-4.7-4.8l4.7-4.8h9.3
				l-3.2,4.8L776,579.6z M766.7,652.1h9.3l-3.2,4.8l3.2,4.8h-3.8h-5.6l-4.7-4.8L766.7,652.1z M753.3,690.7l-4.7,4.8l4.7,4.8h-9.5
				v-9.7H753.3z M776,700.4h-9.3l-4.7-4.8l4.7-4.8h5.6h3.8l-3.2,4.8L776,700.4z M796.6,700.4h-4.5h-4.5l-3.2-4.8l3.2-4.8h9l3.2,4.8
				L796.6,700.4z M801.8,681h-19.3h-6.3l-3.4-4.8l3.4-4.8h6.3h19.3h6.3l3.4,4.8l-3.4,4.8H801.8z M817.5,700.4h-9.3l3.2-4.8l-3.2-4.8
				h3.8h5.6l4.7,4.8L817.5,700.4z M840.4,721L824,710h16.4V721z M840.4,700.4H831l4.7-4.8l-4.7-4.8h9.5V700.4z M840.4,676.2v4.8
				h-18.8h-0.4l4.7-4.8l-4.7-4.8h0.4h18.8V676.2z M840.4,661.7H831l4.7-4.8l-4.7-4.8h9.5V661.7z M840.4,627.9v9.7v4.8h-9.7v-53.1
				h9.7V627.9z M840.4,579.6H831l4.7-4.8L831,570h9.5V579.6z M844.8,560.3h-23.1h-19.9h-19.3h-19.9h-23.1c-10.9,0-20.9-5-27.5-13.5
				c3.7,0.5,7.3,0.8,11.1,0.8c17.4,0,34.5-5.8,48.3-16.3h41.6c13.9,10.5,30.9,16.3,48.3,16.3c3.7,0,7.4-0.3,11.1-0.8
				C865.7,555.3,855.7,560.3,844.8,560.3z M864.6,661.7v-24.1h21.7v24.1h4.8v-24.1h7.2v38.6h-7.2h-4.8h-4.8l7.2-7.2l-14.5-14.5
				L859.8,669l7.2,7.2h-2.4h-4.8h-9.7v-4.8v-9.7v-19.3v-4.8h9.7v24.1H864.6z M891.1,700.4v-14.5h7.2v14.5H891.1z M898.4,710v169
				h-7.2V710H898.4z M864.6,700.4v-14.5h21.7v14.5H864.6z M886.3,710v169h-21.7V710H886.3z M873.8,676.2l-7.2-7.2l7.7-7.7l7.7,7.7
				l-7.2,7.2H873.8z M850.1,700.4v-9.7v-4.8h9.7v14.5H850.1z M859.8,710v169h-9.7V739v-29H859.8z M848.8,917.7l6.4-9.7h38l6.4,9.7
				H848.8z M893.2,898.4h-38l-6.4-9.7h10.9h4.8h21.7h4.8h8.5L893.2,898.4z M902.7,627.9h-52.6v-29h20.8
				c13.9,10.5,30.9,16.3,48.4,16.3c3.7,0,7.4-0.3,11-0.8C923.7,622.9,913.6,627.9,902.7,627.9z"/>
		</g>
	</g>
</g>
</svg>
