<?xml version="1.0" encoding="utf-8"?>
<!-- Generator: Adobe Illustrator 21.0.0, SVG Export Plug-In . SVG Version: 6.00 Build 0)  -->
<svg version="1.1" id="图层_1" xmlns="http://www.w3.org/2000/svg" xmlns:xlink="http://www.w3.org/1999/xlink" x="0px" y="0px"
	 viewBox="0 0 1024 1024" style="enable-background:new 0 0 1024 1024;" xml:space="preserve">
<style type="text/css">
	.st0{clip-path:url(#SVGID_2_);}
	.st1{fill:#70F3FF;}
	.st2{clip-path:url(#SVGID_4_);}
	.st3{fill:#4B5CC4;}
	.st4{fill:none;stroke:#70F3FF;stroke-width:0.75;stroke-miterlimit:10;}
</style>
<g>
	<defs>
		<rect id="SVGID_1_" x="64.2" y="63.9" width="895.1" height="864.4"/>
	</defs>
	<clipPath id="SVGID_2_">
		<use xlink:href="#SVGID_1_"  style="overflow:visible;"/>
	</clipPath>
	<g class="st0">
		
			<rect x="704.1" y="393.8" transform="matrix(0.7071 0.7071 -0.7071 0.7071 492.0599 -385.6187)" class="st1" width="14.8" height="14.8"/>
		
			<rect x="722.6" y="759.5" transform="matrix(0.7071 0.7071 -0.7071 0.7071 756.1117 -291.5488)" class="st1" width="14.8" height="14.8"/>
		<polygon class="st1" points="733.7,552 723.2,541.6 733.7,531.1 740.1,545.6 		"/>
		<polygon class="st1" points="685.7,640.7 685.7,630.2 685.7,619.8 696.1,630.2 		"/>
		<polygon class="st1" points="682,481.8 682,467.7 682,460.9 692.4,471.4 		"/>
		
			<rect x="731.8" y="368.7" transform="matrix(0.7071 0.7071 -0.7071 0.7071 480.582 -413.3288)" class="st1" width="14.8" height="9.6"/>
		<polygon class="st1" points="689.3,348.8 678.9,338.3 689.3,338.3 699.8,338.3 		"/>
		<g>
			<defs>
				<path id="SVGID_3_" d="M667.2,844.5c0,0,14.8-193.9,14.8-258.6c0-39.9-5.6-128.8-9.9-191.1c-1.8-26.1-3.4-47.6-4.2-58.9
					c6.2-0.5,12.6-0.7,19.2-0.7c26.9,0,51,3.9,67.5,10.2c-0.8,10.3-1.8,24.3-2.9,40.7c-4.4,62.5-10.5,158.1-10.5,199.8
					c0,64.8,14.8,258.6,14.8,258.6H667.2z"/>
			</defs>
			<clipPath id="SVGID_4_">
				<use xlink:href="#SVGID_3_"  style="overflow:visible;"/>
			</clipPath>
			<g class="st2">
				<g>
					<path class="st3" d="M777.5,185.6l3.8,3.8c0.4,0.4,0.4,1,0,1.4L312.5,659.7c-0.4,0.4-1,0.4-1.4,0l-3.8-3.8
						c-0.4-0.4-0.4-1,0-1.4l468.8-468.8C776.5,185.2,777.1,185.2,777.5,185.6z"/>
				</g>
				<g>
					<path class="st3" d="M798.4,206.5l3.8,3.8c0.4,0.4,0.4,1,0,1.4L333.4,680.6c-0.4,0.4-1,0.4-1.4,0l-3.8-3.8
						c-0.4-0.4-0.4-1,0-1.4L797,206.5C797.4,206.1,798,206.1,798.4,206.5z"/>
				</g>
				<g>
					<path class="st3" d="M819.3,227.4l3.8,3.8c0.4,0.4,0.4,1,0,1.4L354.3,701.5c-0.4,0.4-1,0.4-1.4,0l-3.8-3.8
						c-0.4-0.4-0.4-1,0-1.4l468.8-468.8C818.3,227,818.9,227,819.3,227.4z"/>
				</g>
				<g>
					<path class="st3" d="M840.2,248.3l3.8,3.8c0.4,0.4,0.4,1,0,1.4L375.2,722.4c-0.4,0.4-1,0.4-1.4,0l-3.8-3.8
						c-0.4-0.4-0.4-1,0-1.4l468.8-468.8C839.2,247.9,839.8,247.9,840.2,248.3z"/>
				</g>
				<g>
					<path class="st3" d="M861.1,269.2l3.8,3.8c0.4,0.4,0.4,1,0,1.4L396.1,743.3c-0.4,0.4-1,0.4-1.4,0l-3.8-3.8
						c-0.4-0.4-0.4-1,0-1.4l468.8-468.8C860.1,268.8,860.7,268.8,861.1,269.2z"/>
				</g>
				<g>
					<path class="st3" d="M882,290.1l3.8,3.8c0.4,0.4,0.4,1,0,1.4L417,764.2c-0.4,0.4-1,0.4-1.4,0l-3.8-3.8c-0.4-0.4-0.4-1,0-1.4
						l468.8-468.8C881,289.7,881.6,289.7,882,290.1z"/>
				</g>
				<g>
					<path class="st3" d="M902.9,311l3.8,3.8c0.4,0.4,0.4,1,0,1.4L437.9,785.1c-0.4,0.4-1,0.4-1.4,0l-3.8-3.8c-0.4-0.4-0.4-1,0-1.4
						L901.5,311C901.9,310.6,902.5,310.6,902.9,311z"/>
				</g>
				<g>
					<path class="st3" d="M923.8,331.9l3.8,3.8c0.4,0.4,0.4,1,0,1.4L458.8,806c-0.4,0.4-1,0.4-1.4,0l-3.8-3.8c-0.4-0.4-0.4-1,0-1.4
						l468.8-468.8C922.8,331.5,923.4,331.5,923.8,331.9z"/>
				</g>
				<g>
					<path class="st3" d="M944.7,352.8l3.8,3.8c0.4,0.4,0.4,1,0,1.4L479.7,826.9c-0.4,0.4-1,0.4-1.4,0l-3.8-3.8
						c-0.4-0.4-0.4-1,0-1.4l468.8-468.8C943.7,352.4,944.3,352.4,944.7,352.8z"/>
				</g>
				<g>
					<path class="st3" d="M965.6,373.7l3.8,3.8c0.4,0.4,0.4,1,0,1.4L500.6,847.8c-0.4,0.4-1,0.4-1.4,0l-3.8-3.8
						c-0.4-0.4-0.4-1,0-1.4l468.8-468.8C964.6,373.3,965.2,373.3,965.6,373.7z"/>
				</g>
				<g>
					<path class="st3" d="M986.5,394.6l3.8,3.8c0.4,0.4,0.4,1,0,1.4L521.5,868.7c-0.4,0.4-1,0.4-1.4,0l-3.8-3.8
						c-0.4-0.4-0.4-1,0-1.4l468.8-468.8C985.5,394.2,986.1,394.2,986.5,394.6z"/>
				</g>
				<g>
					<path class="st3" d="M1007.4,415.5l3.8,3.8c0.4,0.4,0.4,1,0,1.4L542.4,889.6c-0.4,0.4-1,0.4-1.4,0l-3.8-3.8
						c-0.4-0.4-0.4-1,0-1.4L1006,415.5C1006.4,415.1,1007,415.1,1007.4,415.5z"/>
				</g>
				<g>
					<path class="st3" d="M1028.3,436.4l3.8,3.8c0.4,0.4,0.4,1,0,1.4L563.3,910.5c-0.4,0.4-1,0.4-1.4,0l-3.8-3.8
						c-0.4-0.4-0.4-1,0-1.4l468.8-468.8C1027.3,436,1027.9,436,1028.3,436.4z"/>
				</g>
				<g>
					<path class="st3" d="M1049.2,457.3l3.8,3.8c0.4,0.4,0.4,1,0,1.4L584.2,931.4c-0.4,0.4-1,0.4-1.4,0l-3.8-3.8
						c-0.4-0.4-0.4-1,0-1.4l468.8-468.8C1048.2,456.9,1048.8,456.9,1049.2,457.3z"/>
				</g>
				<g>
					<path class="st3" d="M1070.1,478.2l3.8,3.8c0.4,0.4,0.4,1,0,1.4L605.1,952.3c-0.4,0.4-1,0.4-1.4,0l-3.8-3.8
						c-0.4-0.4-0.4-1,0-1.4l468.8-468.8C1069.1,477.8,1069.7,477.8,1070.1,478.2z"/>
				</g>
				<g>
					<path class="st3" d="M1091,499.1l3.8,3.8c0.4,0.4,0.4,1,0,1.4L626,973.2c-0.4,0.4-1,0.4-1.4,0l-3.8-3.8c-0.4-0.4-0.4-1,0-1.4
						l468.8-468.8C1090,498.7,1090.6,498.7,1091,499.1z"/>
				</g>
				<g>
					<path class="st3" d="M1111.9,520l3.8,3.8c0.4,0.4,0.4,1,0,1.4L646.9,994.1c-0.4,0.4-1,0.4-1.4,0l-3.8-3.8c-0.4-0.4-0.4-1,0-1.4
						L1110.5,520C1110.9,519.6,1111.5,519.6,1111.9,520z"/>
				</g>
				<g>
					<path class="st3" d="M1115.7,655.9l-3.8,3.8c-0.4,0.4-1,0.4-1.4,0L641.7,190.8c-0.4-0.4-0.4-1,0-1.4l3.8-3.8
						c0.4-0.4,1-0.4,1.4,0l468.8,468.8C1116.1,654.8,1116.1,655.5,1115.7,655.9z"/>
				</g>
				<g>
					<path class="st3" d="M1094.8,676.8l-3.8,3.8c-0.4,0.4-1,0.4-1.4,0L620.8,211.7c-0.4-0.4-0.4-1,0-1.4l3.8-3.8
						c0.4-0.4,1-0.4,1.4,0l468.8,468.8C1095.2,675.7,1095.2,676.4,1094.8,676.8z"/>
				</g>
				<g>
					<path class="st3" d="M1073.9,697.7l-3.8,3.8c-0.4,0.4-1,0.4-1.4,0L599.9,232.6c-0.4-0.4-0.4-1,0-1.4l3.8-3.8
						c0.4-0.4,1-0.4,1.4,0l468.8,468.8C1074.3,696.6,1074.3,697.3,1073.9,697.7z"/>
				</g>
				<g>
					<path class="st3" d="M1053,718.6l-3.8,3.8c-0.4,0.4-1,0.4-1.4,0L579,253.5c-0.4-0.4-0.4-1,0-1.4l3.8-3.8c0.4-0.4,1-0.4,1.4,0
						L1053,717.2C1053.4,717.5,1053.4,718.2,1053,718.6z"/>
				</g>
				<g>
					<path class="st3" d="M1032.1,739.5l-3.8,3.8c-0.4,0.4-1,0.4-1.4,0L558.1,274.4c-0.4-0.4-0.4-1,0-1.4l3.8-3.8
						c0.4-0.4,1-0.4,1.4,0l468.8,468.8C1032.5,738.4,1032.5,739.1,1032.1,739.5z"/>
				</g>
				<g>
					<path class="st3" d="M1011.2,760.4l-3.8,3.8c-0.4,0.4-1,0.4-1.4,0L537.2,295.3c-0.4-0.4-0.4-1,0-1.4l3.8-3.8
						c0.4-0.4,1-0.4,1.4,0L1011.2,759C1011.6,759.3,1011.6,760,1011.2,760.4z"/>
				</g>
				<g>
					<path class="st3" d="M990.3,781.3l-3.8,3.8c-0.4,0.4-1,0.4-1.4,0L516.3,316.2c-0.4-0.4-0.4-1,0-1.4l3.8-3.8
						c0.4-0.4,1-0.4,1.4,0l468.8,468.8C990.7,780.2,990.7,780.9,990.3,781.3z"/>
				</g>
				<g>
					<path class="st3" d="M969.4,802.2l-3.8,3.8c-0.4,0.4-1,0.4-1.4,0L495.4,337.1c-0.4-0.4-0.4-1,0-1.4l3.8-3.8
						c0.4-0.4,1-0.4,1.4,0l468.8,468.8C969.8,801.1,969.8,801.8,969.4,802.2z"/>
				</g>
				<g>
					<path class="st3" d="M948.5,823.1l-3.8,3.8c-0.4,0.4-1,0.4-1.4,0L474.5,358c-0.4-0.4-0.4-1,0-1.4l3.8-3.8c0.4-0.4,1-0.4,1.4,0
						l468.8,468.8C948.9,822,948.9,822.7,948.5,823.1z"/>
				</g>
				<g>
					<path class="st3" d="M927.6,844l-3.8,3.8c-0.4,0.4-1,0.4-1.4,0L453.6,378.9c-0.4-0.4-0.4-1,0-1.4l3.8-3.8c0.4-0.4,1-0.4,1.4,0
						l468.8,468.8C928,842.9,928,843.6,927.6,844z"/>
				</g>
				<g>
					<path class="st3" d="M906.7,864.9l-3.8,3.8c-0.4,0.4-1,0.4-1.4,0L432.7,399.8c-0.4-0.4-0.4-1,0-1.4l3.8-3.8
						c0.4-0.4,1-0.4,1.4,0l468.8,468.8C907.1,863.8,907.1,864.5,906.7,864.9z"/>
				</g>
				<g>
					<path class="st3" d="M885.8,885.8l-3.8,3.8c-0.4,0.4-1,0.4-1.4,0L411.8,420.7c-0.4-0.4-0.4-1,0-1.4l3.8-3.8
						c0.4-0.4,1-0.4,1.4,0l468.8,468.8C886.2,884.7,886.2,885.4,885.8,885.8z"/>
				</g>
				<g>
					<path class="st3" d="M864.9,906.7l-3.8,3.8c-0.4,0.4-1,0.4-1.4,0L390.9,441.6c-0.4-0.4-0.4-1,0-1.4l3.8-3.8
						c0.4-0.4,1-0.4,1.4,0l468.8,468.8C865.3,905.6,865.3,906.3,864.9,906.7z"/>
				</g>
				<g>
					<path class="st3" d="M844,927.6l-3.8,3.8c-0.4,0.4-1,0.4-1.4,0L370,462.5c-0.4-0.4-0.4-1,0-1.4l3.8-3.8c0.4-0.4,1-0.4,1.4,0
						L844,926.2C844.4,926.5,844.4,927.2,844,927.6z"/>
				</g>
				<g>
					<path class="st3" d="M823.1,948.5l-3.8,3.8c-0.4,0.4-1,0.4-1.4,0L349.1,483.4c-0.4-0.4-0.4-1,0-1.4l3.8-3.8
						c0.4-0.4,1-0.4,1.4,0l468.8,468.8C823.5,947.4,823.5,948.1,823.1,948.5z"/>
				</g>
				<g>
					<path class="st3" d="M802.2,969.4l-3.8,3.8c-0.4,0.4-1,0.4-1.4,0L328.2,504.3c-0.4-0.4-0.4-1,0-1.4l3.8-3.8
						c0.4-0.4,1-0.4,1.4,0L802.2,968C802.6,968.3,802.6,969,802.2,969.4z"/>
				</g>
				<g>
					<path class="st3" d="M781.3,990.3l-3.8,3.8c-0.4,0.4-1,0.4-1.4,0L307.3,525.2c-0.4-0.4-0.4-1,0-1.4l3.8-3.8
						c0.4-0.4,1-0.4,1.4,0l468.8,468.8C781.7,989.2,781.7,989.9,781.3,990.3z"/>
				</g>
			</g>
		</g>
		<path class="st3" d="M755.8,844.5c0,0-14.8-193.9-14.8-258.6c0-41.8,6.2-137.3,10.5-199.8c1.1-16.4,2.1-30.4,2.9-40.7
			c-8.7-3.3-19.6-5.9-31.9-7.7v-84.3h-7.4l-3.7-73.9l-3.7,73.9h-7.4v82.2c-4.4-0.2-8.8-0.4-13.4-0.4c-6.6,0-13,0.2-19.2,0.7
			c0.8,11.3,2.4,32.8,4.2,58.9c4.3,62.4,9.9,151.2,9.9,191.1c0,64.8-14.8,258.6-14.8,258.6H755.8z M707.8,260.8h7.4v75.9
			c-2.4-0.3-4.9-0.5-7.4-0.7V260.8z M679.4,394.3c-1.5-22.1-2.9-40.5-3.7-51.5c3.6-0.2,7.4-0.2,11.3-0.2c5.1,0,10.2,0.2,15.2,0.5
			c1.6,0.1,3.1,0.2,4.7,0.3c15,1.2,28.8,3.6,39.9,7.1c-0.7,9.6-1.6,21.5-2.5,35.1c-4.8,69-10.5,159.8-10.5,200.4
			c0,56.8,11.4,214,14.2,251.2h-72.7c2.8-37.2,14.2-194.4,14.2-251.2C689.3,546.8,684,460.1,679.4,394.3z"/>
		<g>
			<path class="st1" d="M585.9,844.5h-7.4l0-20.3c0-9.3-0.1-18.5-0.2-27.7l7.4-0.1c0.1,9.2,0.2,18.4,0.2,27.8L585.9,844.5z"/>
		</g>
		<g>
			<path class="st1" d="M577.6,767.1c-6.4-199.7-45.3-354.7-92.5-368.6l2.1-7.1c51,15,91.2,169.4,97.8,375.5L577.6,767.1z"/>
		</g>
		<g>
			<path class="st3" d="M539.7,807.6h-44.3c-2,0-3.7,1.7-3.7,3.7c0,2,1.7,3.7,3.7,3.7h44.3c2,0,3.7-1.7,3.7-3.7
				C543.4,809.2,541.8,807.6,539.7,807.6z"/>
			<path class="st3" d="M646.9,807.6h-22.2c-2,0-3.7,1.7-3.7,3.7c0,2,1.7,3.7,3.7,3.7h22.2c2,0,3.7-1.7,3.7-3.7
				C650.6,809.2,648.9,807.6,646.9,807.6z"/>
			<path class="st3" d="M626.5,822.4h-22.2c-2,0-3.7,1.7-3.7,3.7c0,2,1.7,3.7,3.7,3.7h22.2c2,0,3.7-1.7,3.7-3.7
				C630.2,824,628.6,822.4,626.5,822.4z"/>
			<path class="st3" d="M338.3,822.4h-51.7c-2,0-3.7,1.7-3.7,3.7c0,2,1.7,3.7,3.7,3.7h51.7c2,0,3.7-1.7,3.7-3.7
				C342,824,340.4,822.4,338.3,822.4z"/>
			<path class="st3" d="M371.6,807.6h-59.1c-2,0-3.7,1.7-3.7,3.7c0,2,1.7,3.7,3.7,3.7h59.1c2,0,3.7-1.7,3.7-3.7
				C375.3,809.2,373.6,807.6,371.6,807.6z"/>
			<path class="st3" d="M500.9,822.4h-48c-2,0-3.7,1.7-3.7,3.7c0,2,1.7,3.7,3.7,3.7h48c2,0,3.7-1.7,3.7-3.7
				C504.6,824,503,822.4,500.9,822.4z"/>
			<path class="st3" d="M534.2,822.4h-7.4c-2,0-3.7,1.7-3.7,3.7c0,2,1.7,3.7,3.7,3.7h7.4c2,0,3.7-1.7,3.7-3.7
				C537.9,824,536.2,822.4,534.2,822.4z"/>
			<path class="st3" d="M441.8,807.6h-3.7c-2,0-3.7,1.7-3.7,3.7c0,2,1.7,3.7,3.7,3.7h3.7c2,0,3.7-1.7,3.7-3.7
				C445.5,809.2,443.8,807.6,441.8,807.6z"/>
			<path class="st3" d="M290.3,811.3c0-2-1.7-3.7-3.7-3.7h-18.5c-2,0-3.7,1.7-3.7,3.7c0,2,1.7,3.7,3.7,3.7h18.5
				C288.7,815,290.3,813.3,290.3,811.3z"/>
		</g>
		<g>
			<path class="st1" d="M507.3,512H465c-0.5,0-1-0.5-1-1v-5.4c0-0.5,0.5-1,1-1h42.3c0.5,0,1,0.5,1,1v5.4
				C508.3,511.5,507.9,512,507.3,512z"/>
		</g>
		<g>
			<g>
				<path class="st3" d="M486.1,427c12.3,0,18.5,21.3,18.5,33.3c0,10.9-9.5,14.8-18.5,14.8s-18.5-3.9-18.5-14.8
					C467.7,448.3,473.8,427,486.1,427 M486.1,419.6c-18.5,0-25.9,26.4-25.9,40.6c0,14.3,11.6,22.2,25.9,22.2
					c14.3,0,25.9-7.9,25.9-22.2C512,446,504.6,419.6,486.1,419.6L486.1,419.6z"/>
			</g>
		</g>
		<g>
			<path d="M411.5,543.6l-7.2-1.5c1.3-6.1,2.6-12,3.9-17.7l7.2,1.7C414,531.7,412.7,537.6,411.5,543.6z"/>
		</g>
		<g>
			<path d="M561.3,546c-1.2-6-2.5-11.8-3.8-17.4l-0.1-0.8l3.8,0l3.5-0.8c1.3,5.7,2.6,11.6,3.8,17.6L561.3,546z"/>
		</g>
		<g>
			<path class="st3" d="M112.4,794.6l-5.2-5.3l10.6-10.4L418,514.8l-2.6,11.2c-1.3,5.7-2.6,11.5-3.9,17.5l-0.2,1.2l-0.9,0.8
				L163.8,774.1l-5-5.4l245.7-227.8c0.4-1.8,0.8-3.6,1.1-5.4L122.8,784.5L112.4,794.6z"/>
		</g>
		<g>
			<path class="st3" d="M861.1,796.3l-8.6-8.2L487.4,472.6c-1.8-1.5-4.4-1.5-6.2,0l-7.8,6.9l-4.9-5.5l7.8-6.9c4.5-4,11.4-4,15.9-0.1
				l365.2,315.6l8.7,8.4L861.1,796.3z"/>
		</g>
		<g>
			<path class="st3" d="M809.4,772.7L487.6,479.9c-1.8-1.7-4.6-1.7-6.4,0l-1,0.9l-5-5.4l1-0.9c4.7-4.3,11.7-4.3,16.4-0.1l74.9,68.1
				l246.9,224.7L809.4,772.7z"/>
		</g>
		<path class="st3" d="M972.8,766.9H588.7l3.7-0.1c-7-218.3-51.6-376.7-106.2-376.7c-55.3,0-99.5,161.4-106.3,376.9H9.5v29.6h369.7
			c0,1.8,0,3.7,0,5.5c0,1.9-0.1,3.7-0.1,5.5l0.1,0c-0.1,5.5-0.1,11.1-0.1,16.7l0,20.3h7.4l0-20.3c0-7.9,0.1-15.8,0.2-23.7
			c0.1-3.9,0.1-7.7,0.2-11.5c0.1-6.6,0.3-13.3,0.5-19.8c6.5-206.5,49.2-371.8,98.9-371.8c48.8,0,92.2,162.3,98.8,369.5h-27l3.7-0.2
			c-6.8-118.9-32.8-238.9-75.5-238.9c-1.1,0-2.3,0.1-3.4,0.3c-0.4,0.1-0.9,0.2-1.3,0.2c-0.7,0.1-1.3,0.3-2,0.5
			c-0.8,0.2-1.6,0.5-2.4,0.9c-0.6,0.3-1.2,0.5-1.8,0.8l0,0c-36.2,18.5-58.4,127.7-64.6,236.1l3.7,0.2h-3.7c-0.6,9.7-1,19.5-1.4,29.6
			h0c-0.4,10.8-0.6,21.9-0.7,33.2c0,2.4,0,12.3,0,14.8h7.4c0-2.5,0-12.3,0-14.8c0.1-11.3,0.3-22.4,0.7-33.2l-3.7-0.1h124.3
			c0.3,10.7,0.5,23.9,0.6,33.3c0,2.4,0,12.3,0,14.7h7.4c0-2.5,0-12.3,0-14.8h11.1c0,0,0,0,0,0.1c0,2.4,0,12.3,0,14.7h7.4
			c0-2.5,0-12.4,0-14.8c-0.1-9.4-0.2-22.5-0.6-33.2h26.2l-3.7,0.1c0.1,9.1,0.2,18.4,0.2,27.6l0,20.3h7.4l0-20.3
			c0-9.3-0.1-18.5-0.2-27.7h379.7V766.9z M16.9,789.1v-14.8h362.8c-0.1,4.9-0.3,9.8-0.3,14.8H16.9z M554.3,766.9h-14.7l3.7-0.2
			c-0.1-1.2-0.1-2.3-0.2-3.5h11C554.1,764.5,554.2,765.7,554.3,766.9z M553.6,755.8h-11c-0.3-5-0.7-9.9-1.1-14.8h11
			C552.9,745.9,553.2,750.9,553.6,755.8z M551.8,733.7h-11c-0.4-5-0.9-9.9-1.4-14.8h11C550.9,723.8,551.4,728.7,551.8,733.7z
			 M549.6,711.5h-10.9c-0.5-5-1.1-9.9-1.7-14.8h10.9C548.5,701.6,549,706.5,549.6,711.5z M546.9,689.3H536c-0.7-5-1.4-9.9-2.1-14.8
			h10.8C545.5,679.4,546.2,684.3,546.9,689.3z M543.5,667.2h-10.8c-0.8-5-1.7-10-2.5-14.8h10.7C541.8,657.2,542.7,662.1,543.5,667.2
			z M539.5,645h-10.7c-1-5.1-2-10-3.1-14.8h10.6C537.5,635,538.5,639.9,539.5,645z M534.7,622.8h-10.6c-1.2-5.1-2.5-10-3.7-14.8
			h10.6C532.2,612.8,533.5,617.7,534.7,622.8z M528.8,600.7h-10.5c-1.5-5.2-3.1-10.1-4.7-14.8H524
			C525.7,590.5,527.2,595.5,528.8,600.7z M521.3,578.5h-10.4c-2-5.3-4.1-10.2-6.2-14.8h10.2C517.1,568.2,519.2,573.1,521.3,578.5z
			 M486.1,535.2c8.6,0,17,7.5,24.8,21.1h-10c-4.9-9.1-10.2-16.2-15.7-21C485.6,535.3,485.8,535.2,486.1,535.2z M476.9,538.2
			c28.4,17.8,52,108.8,59,228.7H418C424.9,648,449.3,555.5,476.9,538.2z M544.7,796.5h11.1c0,0,0,0.1,0,0.1l-0.1,0
			c0,1.2,0.1,2.4,0.1,3.6h-11C544.7,798.9,544.7,797.7,544.7,796.5z M545.1,822.4c-0.1-4.7-0.1-9.7-0.2-14.8h11
			c0.1,4.9,0.2,9.8,0.3,14.8H545.1z M965.4,789.1H416.9c0.2-5.1,0.4-10,0.7-14.8h547.8V789.1z"/>
		<g>
			<path class="st3" d="M331,294c2,0,3.7-1.7,3.7-3.7c0-16.3-13.3-29.6-29.6-29.6c-16.3,0-29.6,13.3-29.6,29.6c0,2,1.7,3.7,3.7,3.7
				s3.7-1.7,3.7-3.7c0-12.2,9.9-22.2,22.2-22.2c12.2,0,22.2,9.9,22.2,22.2C327.3,292.4,328.9,294,331,294z"/>
			<path class="st3" d="M367.9,301.4c0-2-1.7-3.7-3.7-3.7h-36.9c-2,0-3.7,1.7-3.7,3.7c0,2,1.7,3.7,3.7,3.7h36.9
				C366.3,305.1,367.9,303.4,367.9,301.4z"/>
			<path class="st3" d="M375.3,312.5h-22.2c-2,0-3.7,1.7-3.7,3.7c0,2,1.7,3.7,3.7,3.7h22.2c2,0,3.7-1.7,3.7-3.7
				C379,314.1,377.3,312.5,375.3,312.5z"/>
			<path class="st3" d="M914.7,271.8h-33.5c-1.8-14.6-14.3-25.9-29.3-25.9c-11.2,0-21.3,6.2-26.4,16.2c-1.6,3.1-2.5,6.3-2.9,9.7
				h-11.3c-2,0-3.7,1.7-3.7,3.7c0,2,1.7,3.7,3.7,3.7H826c2,0,3.7-1.7,3.7-3.7c0-3.5,0.8-6.9,2.4-10c3.8-7.5,11.4-12.2,19.8-12.2
				c12.2,0,22.2,9.9,22.2,22.2c0,0.5,0.1,1,0.3,1.4c0.6,1.3,1.9,2.3,3.4,2.3h36.9c2,0,3.7-1.7,3.7-3.7
				C918.4,273.5,916.8,271.8,914.7,271.8z"/>
			<path class="st3" d="M541.6,205.3c-5.4,0-10.3,2.3-13.8,6.2c-4.7-10.2-14.9-17.3-26.9-17.3c-11.2,0-21.3,6.2-26.4,16.2
				c-1.6,3.1-2.5,6.3-2.9,9.7h-11.3c-2,0-3.7,1.7-3.7,3.7c0,2,1.7,3.7,3.7,3.7h14.8c2,0,3.7-1.7,3.7-3.7c0-3.5,0.8-6.9,2.4-10
				c3.8-7.5,11.4-12.2,19.8-12.2c12.2,0,22.2,9.9,22.2,22.2c0,2,1.7,3.7,3.7,3.7s3.7-1.7,3.7-3.7c0-1.8,0.4-3.4,1.2-5
				c1.9-3.7,5.7-6.1,9.9-6.1c6.1,0,11.1,5,11.1,11.1c0,2,1.7,3.7,3.7,3.7s3.7-1.7,3.7-3.7C560,213.6,551.7,205.3,541.6,205.3z"/>
			<circle class="st3" cx="449.2" cy="223.8" r="3.7"/>
		</g>
		<g>
			<rect x="9.5" y="837.1" class="st3" width="1005" height="7.4"/>
		</g>
		<line class="st4" x1="186.9" y1="779.9" x2="238.6" y2="779.9"/>
		<line class="st4" x1="312.5" y1="783.6" x2="364.2" y2="783.6"/>
		<line class="st4" x1="475.1" y1="779.9" x2="508.3" y2="779.9"/>
		<line class="st4" x1="589.6" y1="783.6" x2="622.8" y2="783.6"/>
	</g>
</g>
</svg>
