<?xml version="1.0" encoding="utf-8"?>
<!-- Generator: Adobe Illustrator 21.0.0, SVG Export Plug-In . SVG Version: 6.00 Build 0)  -->
<svg version="1.1" id="图层_1" xmlns="http://www.w3.org/2000/svg" xmlns:xlink="http://www.w3.org/1999/xlink" x="0px" y="0px"
	 viewBox="0 0 1024 1024" style="enable-background:new 0 0 1024 1024;" xml:space="preserve">
<style type="text/css">
	.st0{clip-path:url(#SVGID_2_);}
	.st1{fill:#4B5CC4;}
	.st2{fill:#70F3FF;}
	.st3{clip-path:url(#SVGID_4_);}
	.st4{clip-path:url(#SVGID_6_);}
	.st5{clip-path:url(#SVGID_8_);}
	.st6{clip-path:url(#SVGID_10_);}
	.st7{clip-path:url(#SVGID_12_);}
	.st8{fill:none;stroke:#4B5CC4;stroke-width:2;stroke-miterlimit:10;}
</style>
<g>
	<defs>
		<rect id="SVGID_1_" x="64.2" y="64.2" width="895.1" height="895.1"/>
	</defs>
	<clipPath id="SVGID_2_">
		<use xlink:href="#SVGID_1_"  style="overflow:visible;"/>
	</clipPath>
	<g class="st0">
		<g>
			<rect x="23.1" y="837.6" class="st1" width="977.9" height="8.1"/>
		</g>
		<g>
			<polygon points="743.4,569.2 739.2,569.2 739.2,615.1 743.4,615.1 743.4,569.2 			"/>
		</g>
		<g>
			<g>
				<path class="st2" d="M637.1,288.3l-28-1.2h33.1v0c12.8,20.7,78.8,33.3,103,33.3h0.3v0c0,6-3.1,11.2-7.8,14.1
					c0.2-0.9,0.3-1.8,0.3-2.8v0h-0.3c-24.3,0-90.2-12.6-103-33.3v0l6.3-2.6L637.1,288.3z"/>
			</g>
			<g>
				<path class="st2" d="M505.8,320.4L505.8,320.4"/>
			</g>
			<g>
				<defs>
					<path id="SVGID_3_" d="M722.7,543.4L722.7,543.4l-192.1,0v0c0,9.2-17.7,16.7-26.9,16.7h-22.7l0,0c0,9.2,7.4,16.7,16.5,16.7
						h256.1c9.1,0,16.5-7.5,16.5-16.7l0,0h-22.7C738.4,560.1,722.7,552.7,722.7,543.4z"/>
				</defs>
				<clipPath id="SVGID_4_">
					<use xlink:href="#SVGID_3_"  style="overflow:visible;"/>
				</clipPath>
				<g class="st3">
					<g>
						<path class="st1" d="M507.1,602.8c-1,0-1.9-0.4-2.7-1.1c-1.5-1.5-1.5-3.9,0-5.4l132.5-133.8c1.5-1.5,3.9-1.5,5.4,0
							c1.5,1.5,1.5,3.9,0,5.4L509.7,601.6C509,602.4,508,602.8,507.1,602.8z"/>
					</g>
					<g>
						<path class="st1" d="M582.2,646.6c-0.3,0-0.6,0-1-0.1c-2-0.5-3.2-2.6-2.7-4.6l48.5-182.7c0.5-2,2.6-3.2,4.6-2.7
							c2,0.5,3.2,2.6,2.7,4.6l-48.5,182.7C585.4,645.5,583.9,646.6,582.2,646.6z"/>
					</g>
					<g>
						<path class="st1" d="M669,646.6c-1.7,0-3.2-1.1-3.7-2.8L616.9,461c-0.5-2,0.7-4.1,2.7-4.6c2-0.5,4.1,0.7,4.6,2.7l48.5,182.7
							c0.5,2-0.7,4.1-2.7,4.6C669.7,646.5,669.4,646.6,669,646.6z"/>
					</g>
					<g>
						<path class="st1" d="M744.2,602.8c-1,0-2-0.4-2.7-1.1L609,467.9c-1.5-1.5-1.5-3.9,0-5.4c1.5-1.5,3.9-1.5,5.4,0l132.5,133.8
							c1.5,1.5,1.5,3.9,0,5.4C746.2,602.4,745.2,602.8,744.2,602.8z"/>
					</g>
				</g>
			</g>
			<g>
				<defs>
					<path id="SVGID_5_" d="M714.5,483.4L714.5,483.4l-177.6,0v0c0,9.2-15.7,16.7-24.8,16.7h-22.7v0c0,9.2,7.4,16.7,16.5,16.7h239.6
						c9.1,0,16.5-7.5,16.5-16.7v0h-22.7C730.1,500.1,714.5,492.7,714.5,483.4z"/>
				</defs>
				<clipPath id="SVGID_6_">
					<use xlink:href="#SVGID_5_"  style="overflow:visible;"/>
				</clipPath>
				<g class="st4">
					<g>
						<path class="st1" d="M507.1,549c-1,0-1.9-0.4-2.7-1.1c-1.5-1.5-1.5-3.9,0-5.4l132.5-133.8c1.5-1.5,3.9-1.5,5.4,0
							c1.5,1.5,1.5,3.9,0,5.4L509.7,547.9C509,548.7,508,549,507.1,549z"/>
					</g>
					<g>
						<path class="st1" d="M582.2,592.8c-0.3,0-0.6,0-1-0.1c-2-0.5-3.2-2.6-2.7-4.6l48.5-182.7c0.5-2,2.6-3.2,4.6-2.7
							c2,0.5,3.2,2.6,2.7,4.6L585.9,590C585.4,591.7,583.9,592.8,582.2,592.8z"/>
					</g>
					<g>
						<path class="st1" d="M669,592.8c-1.7,0-3.2-1.1-3.7-2.8l-48.5-182.7c-0.5-2,0.7-4.1,2.7-4.6c2-0.5,4.1,0.7,4.6,2.7l48.5,182.7
							c0.5,2-0.7,4.1-2.7,4.6C669.7,592.8,669.4,592.8,669,592.8z"/>
					</g>
					<g>
						<path class="st1" d="M744.2,549c-1,0-2-0.4-2.7-1.1L609,414.1c-1.5-1.5-1.5-3.9,0-5.4c1.5-1.5,3.9-1.5,5.4,0l132.5,133.8
							c1.5,1.5,1.5,3.9,0,5.4C746.2,548.7,745.2,549,744.2,549z"/>
					</g>
				</g>
			</g>
			<g>
				<defs>
					<path id="SVGID_7_" d="M706.2,423.6L706.2,423.6l-161.1,0v0c0,9.2-15.7,16.7-24.8,16.7h-22.7v0c0,9.2,7.4,16.7,16.5,16.7h223.1
						c9.1,0,16.5-7.5,16.5-16.7v0H731C721.9,440.2,706.2,432.8,706.2,423.6z"/>
				</defs>
				<clipPath id="SVGID_8_">
					<use xlink:href="#SVGID_7_"  style="overflow:visible;"/>
				</clipPath>
				<g class="st5">
					<g>
						<path class="st1" d="M507.9,497.1c-1,0-1.9-0.4-2.7-1.1c-1.5-1.5-1.5-3.9,0-5.4l131.6-132.8c1.5-1.5,3.9-1.5,5.4,0
							c1.5,1.5,1.5,3.9,0,5.4L510.6,496C509.9,496.8,508.9,497.1,507.9,497.1z"/>
					</g>
					<g>
						<path class="st1" d="M582.5,540.6c-0.3,0-0.6,0-1-0.1c-2-0.5-3.2-2.6-2.7-4.6L627,354.5c0.5-2,2.6-3.2,4.6-2.7
							c2,0.5,3.2,2.6,2.7,4.6l-48.2,181.4C585.8,539.5,584.2,540.6,582.5,540.6z"/>
					</g>
					<g>
						<path class="st1" d="M668.7,540.6c-1.7,0-3.2-1.1-3.7-2.8l-48.2-181.4c-0.5-2,0.7-4.1,2.7-4.6c2-0.5,4.1,0.7,4.6,2.7
							l48.2,181.4c0.5,2-0.7,4.1-2.7,4.6C669.4,540.6,669.1,540.6,668.7,540.6z"/>
					</g>
					<g>
						<path class="st1" d="M743.4,497.1c-1,0-2-0.4-2.7-1.1L609.1,363.2c-1.5-1.5-1.5-3.9,0-5.4c1.5-1.5,3.9-1.5,5.4,0l131.6,132.8
							c1.5,1.5,1.5,3.9,0,5.4C745.3,496.8,744.3,497.1,743.4,497.1z"/>
					</g>
				</g>
			</g>
			<g>
				<defs>
					<path id="SVGID_9_" d="M697.9,363.7L697.9,363.7H553.3l0,0c0,9.2-15.7,16.7-24.8,16.7h-22.7l0,0c0,9.2,7.4,16.7,16.5,16.7
						h206.6c9.1,0,16.5-7.5,16.5-16.7l0,0h-22.7C713.6,380.4,697.9,372.9,697.9,363.7z"/>
				</defs>
				<clipPath id="SVGID_10_">
					<use xlink:href="#SVGID_9_"  style="overflow:visible;"/>
				</clipPath>
				<g class="st6">
					<g>
						<path class="st1" d="M539.5,414.2c-1,0-1.9-0.4-2.7-1.1c-1.5-1.5-1.5-3.9,0-5.4l96.2-97.1c1.5-1.5,3.9-1.5,5.4,0
							c1.5,1.5,1.5,3.9,0,5.4L542.2,413C541.5,413.8,540.5,414.2,539.5,414.2z"/>
					</g>
					<g>
						<path class="st1" d="M594.1,446c-0.3,0-0.6,0-1-0.1c-2-0.5-3.2-2.6-2.7-4.6l35.2-132.7c0.5-2,2.6-3.2,4.6-2.7
							c2,0.5,3.2,2.6,2.7,4.6l-35.2,132.7C597.3,444.8,595.8,446,594.1,446z"/>
					</g>
					<g>
						<path class="st1" d="M657.2,446c-1.7,0-3.2-1.1-3.7-2.8l-35.2-132.7c-0.5-2,0.7-4.1,2.7-4.6c2-0.5,4.1,0.7,4.6,2.7l35.2,132.7
							c0.5,2-0.7,4.1-2.7,4.6C657.8,445.9,657.5,446,657.2,446z"/>
					</g>
					<g>
						<path class="st1" d="M711.8,414.2c-1,0-2-0.4-2.7-1.1l-96.2-97.1c-1.5-1.5-1.5-3.9,0-5.4c1.5-1.5,3.9-1.5,5.4,0l96.2,97.1
							c1.5,1.5,1.5,3.9,0,5.4C713.7,413.8,712.7,414.2,711.8,414.2z"/>
					</g>
				</g>
			</g>
			<g>
				<defs>
					<path id="SVGID_11_" d="M642.2,287.1L642.2,287.1l-33,0l0,0c-12.8,20.7-78.8,33.4-103,33.4h-0.3l0,0c0,9.2,7.4,16.7,16.5,16.7
						h206.6c9.1,0,16.5-7.5,16.5-16.7l0,0h-0.3C720.9,320.4,655,307.8,642.2,287.1z"/>
				</defs>
				<clipPath id="SVGID_12_">
					<use xlink:href="#SVGID_11_"  style="overflow:visible;"/>
				</clipPath>
				<g class="st7">
					<g>
						<g>
							<path class="st1" d="M541,376.6c-1,0-1.9-0.4-2.7-1.1c-1.5-1.5-1.5-3.9,0-5.4l124.7-125.8c1.5-1.5,3.9-1.5,5.4,0
								c1.5,1.5,1.5,3.9,0,5.4L543.7,375.5C542.9,376.2,541.9,376.6,541,376.6z"/>
						</g>
						<g>
							<path class="st1" d="M710.4,376.6c-1,0-2-0.4-2.7-1.1L583.1,249.7c-1.5-1.5-1.5-3.9,0-5.4c1.5-1.5,3.9-1.5,5.4,0l124.7,125.8
								c1.5,1.5,1.5,3.9,0,5.4C712.4,376.2,711.4,376.6,710.4,376.6z"/>
						</g>
					</g>
				</g>
			</g>
			<path class="st1" d="M743.4,607.6v-30.8h10.3c9.1,0,16.5-7.5,16.5-16.7h-22.7c-9.1,0-24.8-7.5-24.8-16.7h-4.1v-26.6h26.9
				c9.1,0,16.5-7.5,16.5-16.7h-22.7c-9.1,0-24.8-7.5-24.8-16.7h-4.1v-26.5h26.9c9.1,0,16.5-7.5,16.5-16.7H731
				c-9.1,0-24.8-7.5-24.8-16.7h-4.1V397h26.9c9.1,0,16.5-7.5,16.5-16.7h-22.7c-9.1,0-24.8-7.5-24.8-16.7h-4.1v-26.6h35.1
				c9.1,0,16.5-7.5,16.5-16.7h-0.3c-24.2,0-90.2-12.6-103-33.4v-13.6h-12.7v-9.7h7.6v-7.6h-7.6v-10.5c3.3-1.5,5.7-4.8,5.7-8.7
				c0-4-2.5-7.5-6.1-8.8l-3.4-33.7l-3.4,33.7c-3.6,1.4-6.1,4.8-6.1,8.8c0,3.9,2.3,7.2,5.7,8.7v10.5h-7.6v7.6h7.6v9.7h-12.7v13.6
				c-12.8,20.7-78.8,33.4-103,33.4h-0.3c0,9.2,7.4,16.7,16.5,16.7h35.1v26.6h-4.1c0,9.2-15.7,16.7-24.8,16.7h-22.7
				c0,9.2,7.4,16.7,16.5,16.7h26.9v26.5h-4.1c0,9.2-15.7,16.7-24.8,16.7h-22.7c0,9.2,7.4,16.7,16.5,16.7H541v26.5h-4.1
				c0,9.2-15.7,16.7-24.8,16.7h-22.7c0,9.2,7.4,16.7,16.5,16.7h26.9v26.6h-2.1c0,9.2-17.7,16.7-26.9,16.7h-22.7
				c0,9.2,7.4,16.7,16.5,16.7h10.3v11c2,0,4-0.1,6-0.1h1.6v-10.8h24.3v14c2.5,0.2,5.1,0.4,7.6,0.6v-14.6h25v20.8
				c2.6,0.4,5.1,0.9,7.6,1.4v-22.2h25.5v30.7h-3.5c0.4,0.2,0.8,0.4,1.2,0.6v7h219.8v-7.6H743.4z M675.9,423.6h-9.6v-9.2
				c0-2.7,2.2-4.8,4.8-4.8s4.8,2.2,4.8,4.8V423.6z M671.1,402c-6.8,0-12.4,5.5-12.4,12.4v9.2H638v-9.2c0-6.8-5.5-12.4-12.4-12.4
				c-6.8,0-12.4,5.5-12.4,12.4v9.2h-20.7v-9.2c0-6.8-5.5-12.4-12.4-12.4c-6.8,0-12.4,5.5-12.4,12.4v9.2h-11V397h137.7v26.5h-11v-9.2
				C683.5,407.5,677.9,402,671.1,402z M630.5,423.6h-9.6v-9.2c0-2.7,2.2-4.8,4.8-4.8c2.7,0,4.8,2.2,4.8,4.8V423.6z M585,423.6h-9.6
				v-9.2c0-2.7,2.2-4.8,4.8-4.8c2.7,0,4.8,2.2,4.8,4.8V423.6z M625.6,235.1c1,0,1.9,0.9,1.9,1.9s-0.9,1.9-1.9,1.9
				c-1,0-1.9-0.9-1.9-1.9S624.6,235.1,625.6,235.1z M616.7,281h17.9v3.8h-17.9V281z M522.4,329.5c-2.2,0-4.1-0.8-5.7-2.1
				c26.7-2.4,78.9-12.7,96.2-32.8h25.5c17.4,20.1,69.5,30.3,96.2,32.8c-1.5,1.3-3.5,2.1-5.7,2.1H522.4z M666.9,342.1
				c-6.8,0-12.4,5.5-12.4,12.4v9.2H638v-9.2c0-6.8-5.5-12.4-12.4-12.4c-6.8,0-12.4,5.5-12.4,12.4v9.2h-16.5v-9.2
				c0-6.8-5.5-12.4-12.4-12.4c-6.8,0-12.4,5.5-12.4,12.4v9.2h-6.9v-26.5h121.2v26.5h-6.9v-9.2C679.3,347.6,673.8,342.1,666.9,342.1z
				 M671.8,354.5v9.2h-9.6v-9.2c0-2.7,2.2-4.8,4.8-4.8C669.6,349.7,671.8,351.8,671.8,354.5z M630.5,354.5v9.2h-9.6v-9.2
				c0-2.7,2.2-4.8,4.8-4.8C628.3,349.7,630.5,351.8,630.5,354.5z M589.1,354.5v9.2h-9.6v-9.2c0-2.7,2.2-4.8,4.8-4.8
				S589.1,351.8,589.1,354.5z M522.4,389.5c-1.8,0-3.5-0.6-4.9-1.5h11.1c9.3,0,25.1-6.2,30.5-16.7h12.9h24.8h16.5H638h16.5h24.8
				h12.9c5.4,10.5,21.1,16.7,30.5,16.7h11.1c-1.4,1-3.1,1.5-4.9,1.5h-26.9H549.2H522.4z M514.1,449.3c-1.8,0-3.5-0.6-4.9-1.5h11.1
				c9.3,0,25.1-6.2,30.5-16.7h17h24.8h20.7H638h20.7h24.8h17c5.4,10.5,21.1,16.7,30.5,16.7h11.1c-1.4,1-3.1,1.5-4.9,1.5h-26.9H541
				H514.1z M680,483.4h-9.6v-9.2c0-2.7,2.2-4.8,4.8-4.8s4.8,2.2,4.8,4.8V483.4z M675.2,461.8c-6.8,0-12.4,5.5-12.4,12.4v9.2H638
				v-9.2c0-6.8-5.5-12.4-12.4-12.4c-6.8,0-12.4,5.5-12.4,12.4v9.2h-24.8v-9.2c0-6.8-5.5-12.4-12.4-12.4c-6.8,0-12.4,5.5-12.4,12.4
				v9.2h-15.1v-26.5h154.2v26.5h-15.1v-9.2C687.6,467.4,682.1,461.8,675.2,461.8z M630.5,483.4h-9.6v-9.2c0-2.7,2.2-4.8,4.8-4.8
				c2.7,0,4.8,2.2,4.8,4.8V483.4z M580.9,483.4h-9.6v-9.2c0-2.7,2.2-4.8,4.8-4.8c2.7,0,4.8,2.2,4.8,4.8V483.4z M505.8,509.2
				c-1.8,0-3.5-0.6-4.9-1.5H512c9.3,0,25.1-6.2,30.5-16.7h21.2h24.8h24.8H638h24.8h24.8h21.2c5.4,10.5,21.1,16.7,30.5,16.7h11.1
				c-1.4,1-3.1,1.5-4.9,1.5h-26.9H532.7H505.8z M684.2,543.3h-9.6v-9.2c0-2.7,2.2-4.8,4.8-4.8s4.8,2.2,4.8,4.8V543.3z M679.3,521.7
				c-6.8,0-12.4,5.5-12.4,12.4v9.2H638v-9.2c0-6.8-5.5-12.4-12.4-12.4c-6.8,0-12.4,5.5-12.4,12.4v9.2h-28.9v-9.2
				c0-6.8-5.5-12.4-12.4-12.4c-6.8,0-12.4,5.5-12.4,12.4v9.2h-19.3v-26.5H711v26.5h-19.3v-9.2C691.7,527.3,686.2,521.7,679.3,521.7z
				 M630.5,543.3h-9.6v-9.2c0-2.7,2.2-4.8,4.8-4.8c2.7,0,4.8,2.2,4.8,4.8V543.3z M576.7,543.3h-9.6v-9.2c0-2.7,2.2-4.8,4.8-4.8
				s4.8,2.2,4.8,4.8V543.3z M497.6,569.2c-1.8,0-3.5-0.6-4.9-1.5h11.1c9.9,0,26.7-6.2,32.4-16.7H717c5.4,10.5,21.1,16.7,30.5,16.7
				h11.1c-1.4,1-3.1,1.5-4.9,1.5H497.6z M638.4,607.5h-25.5v-30.7h25.5V607.5z M671.4,607.5H646v-30.7h25.5V607.5z M704.5,607.5H679
				v-30.7h25.5V607.5z M735.8,607.5H712v-30.7h23.7V607.5z"/>
		</g>
		<g>
			<path class="st1" d="M572.6,709h-22.7c-2.1,0-3.8,1.7-3.8,3.8s1.7,3.8,3.8,3.8h22.7c2.1,0,3.8-1.7,3.8-3.8S574.7,709,572.6,709z"
				/>
			<path class="st1" d="M519.6,701.4h7.6c2.1,0,3.8-1.7,3.8-3.8c0-2.1-1.7-3.8-3.8-3.8h-7.6c-2.1,0-3.8,1.7-3.8,3.8
				C515.8,699.7,517.5,701.4,519.6,701.4z"/>
			<path class="st1" d="M424.8,743.1h49.3c2.1,0,3.8-1.7,3.8-3.8c0-2.1-1.7-3.8-3.8-3.8h-49.3c-2.1,0-3.8,1.7-3.8,3.8
				C421,741.4,422.7,743.1,424.8,743.1z"/>
			<path class="st1" d="M548,750.7h-22.7c-2.1,0-3.8,1.7-3.8,3.8s1.7,3.8,3.8,3.8H548c2.1,0,3.8-1.7,3.8-3.8S550.1,750.7,548,750.7z
				"/>
			<path class="st1" d="M443.8,724.1h22.7c2.1,0,3.8-1.7,3.8-3.8c0-2.1-1.7-3.8-3.8-3.8h-22.7c-2.1,0-3.8,1.7-3.8,3.8
				C440,722.4,441.7,724.1,443.8,724.1z"/>
			<path class="st1" d="M500.6,769.6c0,2.1,1.7,3.8,3.8,3.8h22.7c2.1,0,3.8-1.7,3.8-3.8s-1.7-3.8-3.8-3.8h-22.7
				C502.3,765.8,500.6,767.5,500.6,769.6z"/>
			<path class="st1" d="M531,796.1c0-2.1-1.7-3.8-3.8-3.8h-60.6c-2.1,0-3.8,1.7-3.8,3.8s1.7,3.8,3.8,3.8h60.6
				C529.3,799.9,531,798.2,531,796.1z"/>
			<path class="st1" d="M496.8,720.3h7.6c2.1,0,3.8-1.7,3.8-3.8s-1.7-3.8-3.8-3.8h-7.6c-2.1,0-3.8,1.7-3.8,3.8
				S494.7,720.3,496.8,720.3z"/>
			<path class="st1" d="M322.5,818.9h-22.7c-2.1,0-3.8,1.7-3.8,3.8c0,2.1,1.7,3.8,3.8,3.8h22.7c2.1,0,3.8-1.7,3.8-3.8
				C326.3,820.6,324.6,818.9,322.5,818.9z"/>
			<path class="st1" d="M182.2,818.9h-22.7c-2.1,0-3.8,1.7-3.8,3.8c0,2.1,1.7,3.8,3.8,3.8h22.7c2.1,0,3.8-1.7,3.8-3.8
				C186,820.6,184.3,818.9,182.2,818.9z"/>
			<path class="st1" d="M269.4,788.6h-22.7c-2.1,0-3.8,1.7-3.8,3.8s1.7,3.8,3.8,3.8h22.7c2.1,0,3.8-1.7,3.8-3.8
				S271.5,788.6,269.4,788.6z"/>
			<path class="st1" d="M231.5,803.7h-22.7c-2.1,0-3.8,1.7-3.8,3.8s1.7,3.8,3.8,3.8h22.7c2.1,0,3.8-1.7,3.8-3.8
				S233.6,803.7,231.5,803.7z"/>
			<path class="st1" d="M231.5,765.8h-53.1c-2.1,0-3.8,1.7-3.8,3.8s1.7,3.8,3.8,3.8h53.1c2.1,0,3.8-1.7,3.8-3.8
				S233.6,765.8,231.5,765.8z"/>
			<path class="st1" d="M205,758.2h60.6c2.1,0,3.8-1.7,3.8-3.8s-1.7-3.8-3.8-3.8H205c-2.1,0-3.8,1.7-3.8,3.8S202.9,758.2,205,758.2z
				"/>
			<path class="st1" d="M398.3,773.4c2.1,0,3.8-1.7,3.8-3.8s-1.7-3.8-3.8-3.8H349c-2.1,0-3.8,1.7-3.8,3.8s1.7,3.8,3.8,3.8H398.3z"/>
			<path class="st1" d="M424.8,773.4h7.6c2.1,0,3.8-1.7,3.8-3.8s-1.7-3.8-3.8-3.8h-7.6c-2.1,0-3.8,1.7-3.8,3.8
				S422.7,773.4,424.8,773.4z"/>
			<path class="st1" d="M337.6,784.8h-19c-2.1,0-3.8,1.7-3.8,3.8s1.7,3.8,3.8,3.8h19c2.1,0,3.8-1.7,3.8-3.8S339.7,784.8,337.6,784.8
				z"/>
			<path class="st1" d="M337.6,750.7h-3.8c-2.1,0-3.8,1.7-3.8,3.8s1.7,3.8,3.8,3.8h3.8c2.1,0,3.8-1.7,3.8-3.8
				S339.7,750.7,337.6,750.7z"/>
			<path class="st1" d="M159.5,796.1c0-2.1-1.7-3.8-3.8-3.8h-15.2c-2.1,0-3.8,1.7-3.8,3.8s1.7,3.8,3.8,3.8h15.2
				C157.8,799.9,159.5,798.2,159.5,796.1z"/>
			<path class="st1" d="M159.5,758.2h19c2.1,0,3.8-1.7,3.8-3.8s-1.7-3.8-3.8-3.8h-19c-2.1,0-3.8,1.7-3.8,3.8
				S157.4,758.2,159.5,758.2z"/>
			<path class="st1" d="M405.9,807.5h-53.1c-2.1,0-3.8,1.7-3.8,3.8s1.7,3.8,3.8,3.8h53.1c2.1,0,3.8-1.7,3.8-3.8
				S408,807.5,405.9,807.5z"/>
			<path class="st1" d="M440,792.4h-19c-2.1,0-3.8,1.7-3.8,3.8s1.7,3.8,3.8,3.8h19c2.1,0,3.8-1.7,3.8-3.8S442.1,792.4,440,792.4z"/>
			<path class="st1" d="M538.5,818.9h-19c-2.1,0-3.8,1.7-3.8,3.8c0,2.1,1.7,3.8,3.8,3.8h19c2.1,0,3.8-1.7,3.8-3.8
				C542.3,820.6,540.6,818.9,538.5,818.9z"/>
			<path class="st1" d="M701.5,818.9h-7.6c-2.1,0-3.8,1.7-3.8,3.8c0,2.1,1.7,3.8,3.8,3.8h7.6c2.1,0,3.8-1.7,3.8-3.8
				C705.3,820.6,703.6,818.9,701.5,818.9z"/>
			<path class="st1" d="M701.5,792.4h-49.3c-2.1,0-3.8,1.7-3.8,3.8s1.7,3.8,3.8,3.8h49.3c2.1,0,3.8-1.7,3.8-3.8
				S703.6,792.4,701.5,792.4z"/>
			<path class="st1" d="M724.3,754.4H603c-2.1,0-3.8,1.7-3.8,3.8c0,2.1,1.7,3.8,3.8,3.8h121.3c2.1,0,3.8-1.7,3.8-3.8
				C728,756.1,726.3,754.4,724.3,754.4z"/>
			<path class="st1" d="M659.8,807.5h-49.3c-2.1,0-3.8,1.7-3.8,3.8s1.7,3.8,3.8,3.8h49.3c2.1,0,3.8-1.7,3.8-3.8
				S661.9,807.5,659.8,807.5z"/>
			<path class="st1" d="M599.2,792.4h-3.8c-2.1,0-3.8,1.7-3.8,3.8s1.7,3.8,3.8,3.8h3.8c2.1,0,3.8-1.7,3.8-3.8
				S601.3,792.4,599.2,792.4z"/>
			<path class="st1" d="M809.5,750.7h-22.7c-2.1,0-3.8,1.7-3.8,3.8s1.7,3.8,3.8,3.8h22.7c2.1,0,3.8-1.7,3.8-3.8
				S811.6,750.7,809.5,750.7z"/>
			<path class="st1" d="M792.5,769.6c0-2.1-1.7-3.8-3.8-3.8h-22.7c-2.1,0-3.8,1.7-3.8,3.8s1.7,3.8,3.8,3.8h22.7
				C790.8,773.4,792.5,771.7,792.5,769.6z"/>
			<path class="st1" d="M800.1,803.7h-19c-2.1,0-3.8,1.7-3.8,3.8s1.7,3.8,3.8,3.8h19c2.1,0,3.8-1.7,3.8-3.8S802.2,803.7,800.1,803.7
				z"/>
		</g>
		<g>
			<path class="st2" d="M435.4,646.5l-1.1-2.6c24.8-10.6,51.6-15.9,79.6-15.9c26.3,0,51.5,4.7,75.1,14.1l-1,2.6
				c-23.2-9.2-48.1-13.9-74-13.9C486.2,630.8,459.8,636.1,435.4,646.5z"/>
		</g>
		<g>
			<g>
				<g>
					<path class="st8" d="M637.5,708.6"/>
				</g>
			</g>
		</g>
		<g>
			<path class="st1" d="M636.9,630.1c-31.6-26.2-75-42.4-123-42.4s-91.4,16.2-123,42.4h-364v78.5h363.7c0.1,0,0.2,0,0.2-0.1
				c0,0,0.1,0,0.1,0c0,0,0.1,0,0.1,0c0,0,0.1,0,0.1-0.1c0.3-0.1,0.6-0.4,0.9-0.7c31.5-25.8,74.5-41.6,122-41.6
				c47.9,0,91.3,16.2,122.9,42.4c0,0,0.1,0,0.1,0c0,0,0.1,0,0.1-0.1c0.1,0,0.3,0.1,0.4,0.1h363.5v-78.5H636.9z M993.4,701H639.6
				c-34-27.4-78.6-42.4-125.7-42.4c-47.1,0-91.6,15.1-125.7,42.4H34.4v-63.3h356.5h2.7l2.1-1.7c31.6-26.2,73.5-40.7,118.2-40.7
				s86.6,14.4,118.2,40.7l2.1,1.7h2.7h356.5V701z"/>
			<path class="st1" d="M513.9,681.7c-46.8,0-90.9,15.1-124.4,42.4H26.9v7.6h365.4l1.1-0.9c32.3-26.8,75.1-41.6,120.6-41.6
				s88.3,14.8,120.6,41.6l1.1,0.9h365.4v-7.6H638.3C604.8,696.8,560.7,681.7,513.9,681.7z"/>
		</g>
		<g>
			<path class="st1" d="M231.5,280.7c2.1,0,3.8-1.7,3.8-3.8c0-16.7-13.6-30.3-30.3-30.3s-30.3,13.6-30.3,30.3c0,2.1,1.7,3.8,3.8,3.8
				s3.8-1.7,3.8-3.8c0-12.5,10.2-22.7,22.7-22.7s22.7,10.2,22.7,22.7C227.7,279,229.4,280.7,231.5,280.7z"/>
			<path class="st1" d="M269.4,288.3c0-2.1-1.7-3.8-3.8-3.8h-37.9c-2.1,0-3.8,1.7-3.8,3.8s1.7,3.8,3.8,3.8h37.9
				C267.7,292,269.4,290.3,269.4,288.3z"/>
			<path class="st1" d="M277,299.6h-22.7c-2.1,0-3.8,1.7-3.8,3.8c0,2.1,1.7,3.8,3.8,3.8H277c2.1,0,3.8-1.7,3.8-3.8
				C280.8,301.3,279.1,299.6,277,299.6z"/>
			<path class="st1" d="M489.3,189.7c-5.5,0-10.6,2.4-14.1,6.4c-4.8-10.4-15.3-17.7-27.5-17.7c-11.5,0-21.9,6.4-27.1,16.6
				c-1.6,3.1-2.6,6.5-3,9.9h-11.6c-2.1,0-3.8,1.7-3.8,3.8c0,2.1,1.7,3.8,3.8,3.8H421c0.6,0,1.2-0.2,1.7-0.4c0.8-0.4,1.4-1,1.8-1.9
				c0.2-0.5,0.3-1,0.3-1.5c0-3.6,0.8-7.1,2.4-10.3c3.9-7.7,11.7-12.5,20.3-12.5c12.5,0,22.7,10.2,22.7,22.7c0,2.1,1.7,3.8,3.8,3.8
				s3.8-1.7,3.8-3.8c0-1.8,0.4-3.5,1.2-5.1c2-3.8,5.8-6.2,10.1-6.2c6.3,0,11.4,5.1,11.4,11.4c0,2.1,1.7,3.8,3.8,3.8s3.8-1.7,3.8-3.8
				C508.2,198.2,499.7,189.7,489.3,189.7z"/>
			<circle class="st1" cx="394.5" cy="208.7" r="3.8"/>
			<path class="st1" d="M368,371.6c-5.5,0-10.6,2.4-14.1,6.4c-4.8-10.4-15.3-17.7-27.5-17.7c-11.5,0-21.9,6.4-27.1,16.6
				c-1.6,3.1-2.6,6.5-3,9.9h-11.6c-2.1,0-3.8,1.7-3.8,3.8c0,2.1,1.7,3.8,3.8,3.8h15.2c0.6,0,1.2-0.2,1.7-0.4c0.8-0.4,1.4-1,1.8-1.9
				c0.2-0.5,0.3-1,0.3-1.5c0-3.6,0.8-7.1,2.4-10.3c3.9-7.7,11.7-12.5,20.3-12.5c12.5,0,22.7,10.2,22.7,22.7c0,2.1,1.7,3.8,3.8,3.8
				s3.8-1.7,3.8-3.8c0-1.8,0.4-3.5,1.2-5.1c2-3.8,5.8-6.2,10.1-6.2c6.3,0,11.4,5.1,11.4,11.4c0,2.1,1.7,3.8,3.8,3.8s3.8-1.7,3.8-3.8
				C386.9,380.1,378.4,371.6,368,371.6z"/>
			<circle class="st1" cx="273.2" cy="390.6" r="3.8"/>
			<path class="st1" d="M826.6,239h-34.4c-1.9-14.9-14.6-26.5-30.1-26.5c-11.5,0-21.9,6.4-27.1,16.6c-1.6,3.1-2.6,6.5-3,9.9h-11.6
				c-2.1,0-3.8,1.7-3.8,3.8s1.7,3.8,3.8,3.8h15.2c0.6,0,1.2-0.2,1.7-0.4c0.8-0.4,1.4-1,1.8-1.9c0.2-0.5,0.3-1,0.3-1.5
				c0-3.6,0.8-7.1,2.4-10.3c3.9-7.7,11.7-12.5,20.3-12.5c12.5,0,22.7,10.2,22.7,22.7c0,1.6,1,2.9,2.3,3.5c0.5,0.2,1,0.3,1.5,0.3
				h37.9c2.1,0,3.8-1.7,3.8-3.8S828.7,239,826.6,239z"/>
		</g>
		<g>
			<rect x="112.1" y="664" class="st2" width="144" height="2.8"/>
		</g>
		<g>
			<rect x="728" y="679.1" class="st2" width="68.2" height="2.8"/>
		</g>
		<g>
			<rect x="868.3" y="660.2" class="st2" width="37.9" height="2.8"/>
		</g>
		<g>
			
				<rect x="688.7" y="552.4" transform="matrix(0.8321 -0.5547 0.5547 0.8321 -194.3086 476.7477)" class="st2" width="2.8" height="13.7"/>
		</g>
		<g>
			
				<rect x="673.9" y="553.6" transform="matrix(0.832 -0.5547 0.5547 0.832 -197.1004 468.6675)" class="st2" width="2.8" height="12.4"/>
		</g>
		<g>
			
				<rect x="673.6" y="434.9" transform="matrix(0.8321 -0.5547 0.5547 0.8321 -131.6791 448.6042)" class="st2" width="2.8" height="13.7"/>
		</g>
		<g>
			
				<rect x="658.8" y="436.1" transform="matrix(0.832 -0.5547 0.5547 0.832 -134.4672 440.5209)" class="st2" width="2.8" height="12.4"/>
		</g>
	</g>
</g>
</svg>
