<?xml version="1.0" encoding="utf-8"?>
<!-- Generator: Adobe Illustrator 21.0.0, SVG Export Plug-In . SVG Version: 6.00 Build 0)  -->
<svg version="1.1" id="图层_1" xmlns="http://www.w3.org/2000/svg" xmlns:xlink="http://www.w3.org/1999/xlink" x="0px" y="0px"
	 viewBox="0 0 1024 1024" style="enable-background:new 0 0 1024 1024;" xml:space="preserve">
<style type="text/css">
	.st0{fill:#70F3FF;}
	.st1{fill:#4B5CC4;}
	.st2{fill:#FFFFFF;}
</style>
<g>
	<g>
		<path class="st0" d="M567.4,405.8c0,3.1-0.3,6.2-0.8,9.2c-4.4-26.2-27.1-46.2-54.6-46.2s-50.2,19.9-54.6,46.2
			c-0.5-3-0.8-6.1-0.8-9.2c0-30.6,24.8-55.4,55.4-55.4S567.4,375.2,567.4,405.8z"/>
	</g>
	<g>
		<path class="st1" d="M502.8,239.6h18.5c2.5,0,4.6-2.1,4.6-4.6c0-2.5-2.1-4.6-4.6-4.6h-18.5c-2.5,0-4.6,2.1-4.6,4.6
			C498.1,237.5,500.2,239.6,502.8,239.6z"/>
		<path class="st1" d="M629.3,918.3l-69-119.6c15.7-13.5,25.6-33.5,25.6-55.9c0-27.3-14.9-51.1-36.9-63.9V447
			c11.3-10.1,18.5-24.8,18.5-41.2c0-22.3-13.3-41.6-32.3-50.3V332v-9.2v-18.5V295v-25.5c11.1-7.5,18.5-20.1,18.5-34.5
			c0-21.5-16.3-39.1-37.1-41.3L512,96.5l-4.4,97.2c-20.9,2.2-37.1,19.9-37.1,41.3c0,14.4,7.3,27.1,18.5,34.5V295v9.2v18.5v9.2v23.6
			c-19.1,8.8-32.3,28-32.3,50.3c0,16.4,7.2,31.1,18.5,41.2v231.9c-22.1,12.8-36.9,36.6-36.9,63.9c0,22.3,10,42.3,25.6,55.9
			l-69,119.6l-5.4,9.2h32l5.3-9.2l61.1-105.7c3.4,1.2,6.8,2.1,10.4,2.8v112.1h27.7V815.4c3.6-0.7,7-1.6,10.4-2.8l61.1,105.7l5.3,9.2
			h32L629.3,918.3z M480,239.6h4.3c2.5,0,4.6-2.1,4.6-4.6c0-2.5-2.1-4.6-4.6-4.6h-4.2c2.3-15.6,15.7-27.7,31.9-27.7
			s29.7,12.1,31.9,27.7h-4.2c-2.5,0-4.6,2.1-4.6,4.6c0,2.5,2.1,4.6,4.6,4.6h4.3c-2,14.2-13.4,25.4-27.6,27.4
			c-1.4,0.2-2.9,0.3-4.3,0.3s-2.9-0.2-4.3-0.3C493.4,265.1,482.1,253.8,480,239.6z M498.1,322.7v-18.5h27.7v18.5H498.1z M525.8,332
			v19.9c-2.6-0.6-5.3-0.9-8-1.2c-1.9-0.2-3.8-0.3-5.8-0.3s-3.9,0.1-5.8,0.3c-2.7,0.2-5.4,0.6-8,1.2V332H525.8z M498.1,295v-20.4
			c2.8,0.8,5.7,1.3,8.7,1.6c1.7,0.2,3.4,0.4,5.2,0.4s3.5-0.1,5.2-0.4c2.9-0.3,5.8-0.8,8.7-1.6V295H498.1z M469.7,424.3h23.8
			c2.5,0,4.6-2.1,4.6-4.6c0-2.5-2.1-4.6-4.6-4.6h-26.8c-0.6-3-0.9-6.1-0.9-9.2c0-4.8,0.8-9.5,2.1-13.9h48.7c2.5,0,4.6-2.1,4.6-4.6
			c0-2.5-2.1-4.6-4.6-4.6h-44.5c8-13.8,22.9-23.1,39.9-23.1s31.9,9.3,39.9,23.1h-16.8c-2.5,0-4.6,2.1-4.6,4.6c0,2.5,2.1,4.6,4.6,4.6
			h21c1.4,4.4,2.1,9,2.1,13.9c0,3.2-0.3,6.2-0.9,9.2H512c-2.5,0-4.6,2.1-4.6,4.6c0,2.5,2.1,4.6,4.6,4.6h42.3
			c-7.1,16.3-23.4,27.7-42.3,27.7S476.9,440.6,469.7,424.3z M539.7,455v218.7c-3-1.1-6.1-1.9-9.2-2.6v-25.2v-9.2v-21.2v-9.2v-21.2
			v-9.2v-21.2v-9.2v-86.8C533.6,457.5,536.7,456.4,539.7,455z M502.8,636.7v-21.2h18.5v21.2H502.8z M521.2,645.9v23.7
			c-3.1-0.3-6.1-0.6-9.2-0.6s-6.2,0.2-9.2,0.6v-23.7H521.2z M502.8,606.2v-21.2h18.5v21.2H502.8z M502.8,575.7v-21.2h18.5v21.2
			H502.8z M502.8,545.2v-84.8c0.8,0.1,1.7,0.2,2.5,0.3c0.5,0.1,1.1,0.1,1.6,0.2c1.7,0.2,3.4,0.3,5.1,0.3s3.4-0.1,5.1-0.3
			c0.5,0,1.1-0.1,1.6-0.2c0.8-0.1,1.7-0.2,2.5-0.3v84.8H502.8z M493.5,458.4v86.8v9.2v21.2v9.2v21.2v9.2v21.2v9.2v25.2
			c-3.1,0.7-6.2,1.5-9.2,2.6V455C487.3,456.4,490.4,457.5,493.5,458.4z M418.7,913.7l-2.6,4.6h-10.6l65.5-113.5
			c1.3,0.9,2.6,1.7,3.9,2.5c1.3,0.8,2.7,1.5,4.1,2.2L418.7,913.7z M516.6,918.3h-9.2V816.6c1.5,0.1,3.1,0.1,4.6,0.1s3.1,0,4.6-0.1
			V918.3z M512,807.5c-21.9,0-41.3-11-53-27.7h71.4c2.5,0,4.6-2.1,4.6-4.6c0-2.5-2.1-4.6-4.6-4.6h-73.9c-0.9,0-1.8,0.4-2.5,0.8
			c-4.3-8.6-6.7-18.3-6.7-28.5c0-9.9,2.3-19.3,6.3-27.7h76.8c2.5,0,4.6-2.1,4.6-4.6c0-2.5-2.1-4.6-4.6-4.6H459
			c11.7-16.7,31.1-27.7,53-27.7s41.3,11,53,27.7h-16c-2.5,0-4.6,2.1-4.6,4.6c0,2.5,2.1,4.6,4.6,4.6h21.4c4,8.4,6.3,17.8,6.3,27.7
			s-2.3,19.3-6.3,27.7h-21.4c-2.5,0-4.6,2.1-4.6,4.6c0,2.5,2.1,4.6,4.6,4.6h16C553.3,796.5,533.9,807.5,512,807.5z M608,918.3
			l-2.7-4.6l-60.1-104.1c1.4-0.7,2.8-1.4,4.1-2.2c1.3-0.8,2.6-1.6,3.9-2.5l65.4,113.3H608z"/>
		<path class="st1" d="M493.5,738.2h-27.7c-2.5,0-4.6,2.1-4.6,4.6c0,2.5,2.1,4.6,4.6,4.6h27.7c2.5,0,4.6-2.1,4.6-4.6
			C498.1,740.3,496.1,738.2,493.5,738.2z"/>
		<path class="st1" d="M562.8,742.8c0-2.5-2.1-4.6-4.6-4.6H512c-2.5,0-4.6,2.1-4.6,4.6c0,2.5,2.1,4.6,4.6,4.6h46.2
			C560.7,747.5,562.8,745.4,562.8,742.8z"/>
	</g>
	<g>
		<polygon class="st1" points="927.5,918.3 96.5,918.3 96.5,927.5 927.5,927.5 927.5,918.3 		"/>
	</g>
	<g>
		<polygon class="st1" points="394.7,918.3 96.5,918.3 96.5,927.5 389.4,927.5 394.7,918.3 		"/>
	</g>
	<g>
		<path class="st1" d="M170.4,193.4c2.6,0,4.6-2.1,4.6-4.6c0-20.4-16.6-36.9-36.9-36.9s-36.9,16.6-36.9,36.9c0,2.5,2.1,4.6,4.6,4.6
			c2.6,0,4.6-2.1,4.6-4.6c0-15.3,12.4-27.7,27.7-27.7s27.7,12.4,27.7,27.7C165.8,191.4,167.8,193.4,170.4,193.4z"/>
		<path class="st1" d="M216.5,202.7c0-2.5-2.1-4.6-4.6-4.6h-46.2c-2.5,0-4.6,2.1-4.6,4.6c0,2.5,2.1,4.6,4.6,4.6h46.2
			C214.5,207.3,216.5,205.2,216.5,202.7z"/>
		<path class="st1" d="M225.8,216.5h-27.7c-2.5,0-4.6,2.1-4.6,4.6c0,2.5,2.1,4.6,4.6,4.6h27.7c2.5,0,4.6-2.1,4.6-4.6
			C230.4,218.6,228.3,216.5,225.8,216.5z"/>
		<path class="st1" d="M899.8,211.9h-41.9c-2.3-18.2-17.8-32.3-36.6-32.3c-14,0-26.6,7.8-33,20.2c-1.9,3.8-3.2,7.9-3.7,12.1h-14.1
			c-2.5,0-4.6,2.1-4.6,4.6c0,2.5,2.1,4.6,4.6,4.6H789c2.6,0,4.6-2.1,4.6-4.6c0-4.4,1-8.6,3-12.5c4.8-9.4,14.2-15.2,24.7-15.2
			c15.3,0,27.7,12.4,27.7,27.7c0,0.6,0.1,1.2,0.4,1.8c0.7,1.7,2.3,2.8,4.3,2.8h46.2c2.5,0,4.6-2.1,4.6-4.6
			C904.4,214,902.3,211.9,899.8,211.9z"/>
		<path class="st1" d="M410.4,128.8c-6.7,0-12.9,2.9-17.2,7.7c-5.8-12.7-18.7-21.6-33.6-21.6c-14,0-26.6,7.8-33,20.2
			c-1.9,3.8-3.2,7.9-3.7,12.1h-14.1c-2.5,0-4.6,2.1-4.6,4.6c0,2.5,2.1,4.6,4.6,4.6h18.5c2.6,0,4.6-2.1,4.6-4.6c0-4.4,1-8.6,3-12.5
			c4.8-9.4,14.2-15.2,24.7-15.2c15.3,0,27.7,12.4,27.7,27.7c0,2.5,2.1,4.6,4.6,4.6s4.6-2.1,4.6-4.6c0-2.2,0.5-4.3,1.5-6.3
			c2.4-4.7,7.1-7.6,12.4-7.6c7.6,0,13.9,6.2,13.9,13.8c0,2.5,2.1,4.6,4.6,4.6s4.6-2.1,4.6-4.6C433.5,139.2,423.2,128.8,410.4,128.8z
			"/>
		<circle class="st1" cx="295" cy="151.9" r="4.6"/>
	</g>
	<g>
		<path class="st2" d="M512,886c-10.2,0-18.5-8.3-18.5-18.5S501.8,849,512,849s18.5,8.3,18.5,18.5S522.2,886,512,886z"/>
	</g>
	<g>
		<g>
			<path class="st1" d="M512,853.6c7.6,0,13.8,6.2,13.8,13.8s-6.2,13.8-13.8,13.8c-7.6,0-13.9-6.2-13.9-13.8S504.4,853.6,512,853.6
				 M512,844.4c-12.7,0-23.1,10.3-23.1,23.1s10.3,23.1,23.1,23.1s23.1-10.3,23.1-23.1S524.7,844.4,512,844.4L512,844.4z"/>
		</g>
	</g>
	<g>
		<g>
			<path class="st2" d="M525.8,867.5c0,7.6-6.2,13.8-13.8,13.8c-0.8,0-1.7-0.1-2.4-0.2c-6.5-1.2-11.4-6.8-11.4-13.6
				c0-7.6,6.2-13.8,13.9-13.8c6.8,0,12.5,4.9,13.6,11.4C525.8,865.8,525.8,866.7,525.8,867.5z"/>
		</g>
	</g>
	<g>
		<path class="st0" d="M525.8,867.5c0,7.6-6.2,13.8-13.8,13.8c-0.8,0-1.7-0.1-2.4-0.2c-1.4-1.9-2.2-4.2-2.2-6.7
			c0-6.4,5.2-11.5,11.5-11.5c2.5,0,4.8,0.8,6.7,2.2C525.8,865.8,525.8,866.7,525.8,867.5z"/>
	</g>
	<g>
		<path class="st2" d="M574.3,869.3c-6.6,0-12.7-3.5-16-9.2c-2.5-4.3-3.1-9.2-1.8-14c1.3-4.8,4.3-8.7,8.6-11.2
			c2.8-1.6,6-2.5,9.2-2.5c6.6,0,12.7,3.5,16,9.2c2.5,4.3,3.1,9.2,1.8,14c-1.3,4.8-4.3,8.7-8.6,11.2
			C580.7,868.4,577.6,869.3,574.3,869.3z"/>
	</g>
	<g>
		<g>
			<path class="st1" d="M574.3,836.9L574.3,836.9c4.9,0,9.5,2.7,12,6.9c3.8,6.6,1.5,15.1-5.1,18.9c-2.1,1.2-4.5,1.9-6.9,1.9
				c-4.9,0-9.5-2.7-12-6.9c-3.8-6.6-1.5-15.1,5.1-18.9C569.5,837.6,571.9,836.9,574.3,836.9 M574.3,827.7c-3.9,0-7.9,1-11.5,3.1
				c-11,6.4-14.8,20.5-8.4,31.5c4.3,7.4,12,11.5,20,11.5c3.9,0,7.9-1,11.5-3.1c11-6.4,14.8-20.5,8.4-31.5
				C590,831.8,582.3,827.7,574.3,827.7L574.3,827.7z"/>
		</g>
	</g>
	<g>
		<path class="st2" d="M449.7,869.3c-3.2,0-6.4-0.9-9.2-2.5c-4.3-2.5-7.3-6.4-8.6-11.2c-1.3-4.8-0.6-9.7,1.8-14
			c3.3-5.7,9.4-9.2,16-9.2c3.2,0,6.4,0.9,9.2,2.5c4.3,2.5,7.3,6.4,8.6,11.2c1.3,4.8,0.6,9.7-1.8,14
			C462.4,865.7,456.2,869.3,449.7,869.3z"/>
	</g>
	<g>
		<path class="st1" d="M449.7,836.9L449.7,836.9c2.4,0,4.8,0.6,6.9,1.9c6.6,3.8,8.9,12.3,5.1,18.9c-2.5,4.3-7.1,6.9-12,6.9
			c-2.4,0-4.8-0.6-6.9-1.9c-6.6-3.8-8.9-12.3-5.1-18.9C440.1,839.6,444.8,836.9,449.7,836.9 M449.7,827.7c-8,0-15.7,4.1-20,11.5
			c-6.4,11-2.6,25.2,8.4,31.5c3.6,2.1,7.6,3.1,11.5,3.1c8,0,15.7-4.1,20-11.5c6.4-11,2.6-25.2-8.4-31.5
			C457.6,828.7,453.6,827.7,449.7,827.7L449.7,827.7z"/>
	</g>
	<g>
		<g>
			<path class="st2" d="M462.1,856.8c-0.1,0.3-0.3,0.6-0.5,0.9c-2.5,4.3-7.1,6.9-12,6.9c-2.4,0-4.8-0.6-6.9-1.8
				c-0.8-0.5-1.6-1.1-2.3-1.7c-4.8-4.2-6.2-11.4-2.8-17.3c2.5-4.2,7-6.9,12-6.9c2.4,0,4.8,0.6,6.9,1.8
				C462.9,842.4,465.3,850.4,462.1,856.8z"/>
		</g>
	</g>
	<g>
		<g>
			<path class="st2" d="M451,869.2c-3.4-0.5-6-3.4-6-6.9c0-3.8,3.1-6.9,6.9-6.9s6.9,3.1,6.9,6.9c0,2.4-1.3,4.7-3.4,5.9
				C454.1,868.8,452.5,869.1,451,869.2z"/>
		</g>
		<g>
			<path class="st1" d="M452,860c1.3,0,2.3,1,2.3,2.3c0,0.9-0.4,1.4-0.8,1.8c-0.7,0.2-1.5,0.4-2.2,0.5c-0.9-0.3-1.6-1.2-1.6-2.2
				C449.7,861,450.7,860,452,860 M452,850.8c-6.4,0-11.5,5.2-11.5,11.5c0,6,4.5,10.9,10.3,11.5h0.3c2.2-0.1,4.3-0.6,6.4-1.3
				c3.6-2,6-5.8,6-10.2C463.5,855.9,458.4,850.8,452,850.8L452,850.8z"/>
		</g>
	</g>
	<g>
		<polygon class="st1" points="530.5,484.3 493.5,484.3 493.5,493.5 530.5,493.5 530.5,484.3 		"/>
	</g>
	<g>
		<polygon class="st1" points="530.5,514.8 493.5,514.8 493.5,524 530.5,524 530.5,514.8 		"/>
	</g>
	<g>
		<rect x="488.9" y="249.4" class="st0" width="36.9" height="3.5"/>
	</g>
	<g>
		<rect x="512" y="217.1" class="st0" width="23.1" height="3.5"/>
	</g>
	<g>
		<path class="st0" d="M462.1,856.8c-0.1,0.3-0.3,0.6-0.5,0.9c-2.5,4.3-7.1,6.9-12,6.9c-2.4,0-4.8-0.6-6.9-1.8
			c-0.8-0.5-1.6-1.1-2.3-1.7c0.6-5.8,5.5-10.3,11.5-10.3C456.4,850.8,460.2,853.2,462.1,856.8z"/>
	</g>
	<g>
		<path class="st0" d="M581.3,862.8c-1.7,0.9-3.5,1.6-5.4,1.7c-2.4-2.1-3.8-5.1-3.8-8.5c0-6.4,5.2-11.5,11.5-11.5
			c1.2,0,2.2,0.2,3.3,0.5C589.9,851.3,587.5,859.1,581.3,862.8z"/>
	</g>
	<g>
		<g>
			<path class="st0" d="M581.3,862.8c-1.7,0.9-3.5,1.6-5.4,1.7c-2.4-2.1-3.8-5.1-3.8-8.5c0-6.4,5.2-11.5,11.5-11.5
				c1.2,0,2.2,0.2,3.3,0.5C589.9,851.3,587.5,859.1,581.3,862.8z"/>
		</g>
	</g>
</g>
</svg>
