<?xml version="1.0" encoding="utf-8"?>
<!-- Generator: Adobe Illustrator 21.0.0, SVG Export Plug-In . SVG Version: 6.00 Build 0)  -->
<svg version="1.1" id="图层_1" xmlns="http://www.w3.org/2000/svg" xmlns:xlink="http://www.w3.org/1999/xlink" x="0px" y="0px"
	 viewBox="0 0 1024 1024" style="enable-background:new 0 0 1024 1024;" xml:space="preserve">
<style type="text/css">
	.st0{fill:#70F3FF;}
	.st1{fill:#4B5CC4;}
</style>
<g>
	<g>
		<path class="st0" d="M738.2,844.4c-22.9,0-41.5,18.6-41.5,41.5c0,22.9,18.6,41.5,41.5,41.5c10.7,0,20.3-4,27.7-10.6V855
			C758.5,848.4,748.9,844.4,738.2,844.4z"/>
	</g>
	<g>
		<path class="st0" d="M405.8,927.5h-32.3c0,0,0-704.7-57.7-816.2c4.9-9.6,10.3-14.8,16.2-14.8C405.8,96.5,405.8,927.5,405.8,927.5z
			"/>
	</g>
	<path class="st1" d="M378.1,96.5H332c0,0,0,0,0,0c0,0,0,0,0,0c-73.9,0-73.9,830.9-73.9,830.9h140.4h7.3H450c1.1,0,2-0.8,2-1.9
		C451.9,881.4,449.9,96.5,378.1,96.5z M392.5,429.9l37.2,6.6c0.3,6.1,0.7,12.2,1,18.5l-37.1-6.5C393.2,442.2,392.9,436,392.5,429.9z
		 M392,420.4c-3.2-52.5-7-103-11.8-148l37.5,6.6c4.3,42.2,8.2,91.7,11.5,148L392,420.4z M416.7,269.4l-37.5-6.6
		c-0.7-6.1-1.4-12-2.1-17.9l37.6,6.6C415.3,257.3,416,263.3,416.7,269.4z M369.8,262.7h-75.6c0.7-6.3,1.4-12.5,2.1-18.5h71.3
		C368.4,250.2,369.1,256.4,369.8,262.7z M370.8,272c4.5,41.9,8.4,91.3,11.8,147.7H281.4c3.4-56.4,7.3-105.8,11.8-147.7H370.8z
		 M383.1,428.9c0.4,6.1,0.7,12.2,1,18.5H279.8c0.3-6.2,0.7-12.4,1-18.5H383.1z M391.9,636.6H272c0.2-6.1,0.4-12.3,0.6-18.5h118.7
		C391.5,624.4,391.7,630.5,391.9,636.6z M400.7,618.9l37,6.5c0.2,6.2,0.4,12.3,0.5,18.4l-37-6.5
		C401.1,631.2,400.9,625.1,400.7,618.9z M400.4,609.5c-1.6-49.6-3.7-101.2-6.3-151.7l37.1,6.5c0.5,10,1,20.2,1.5,30.6
		c1.9,40.7,3.5,81.6,4.7,121.1L400.4,609.5z M378.1,105.8c0.2,0,16.9,1.3,32.7,115.4c0.9,6.7,1.8,13.6,2.7,20.8l-37.6-6.6
		c-4.2-33.3-9-62.4-14.5-85.5c-0.7-2.9-1.3-5.6-2-8.3c-4.1-15.5-8.3-27.2-12.9-35.8H378.1z M332,105.8c0.2,0,17.5,1.4,33.5,121.8
		c0.3,2.4,0.6,5,1,7.5h-69c0.3-2.5,0.6-5,1-7.4C314.5,107.2,331.8,105.8,332,105.8z M279.3,456.6h105.4c1,18,1.9,36.5,2.7,55.8
		c1.4,32.4,2.7,64.9,3.7,96.6H272.9c1-31.7,2.2-64.1,3.7-96.5C277.4,493.2,278.3,474.6,279.3,456.6z M267.4,918.2
		c0.1-31.9,0.7-142.7,4.4-272.4H392v-6.6c3.9,132.4,4.5,246.5,4.6,279H267.4z M405.8,918.2c-0.1-36.2-0.7-144.6-4.3-271.5l37,6.5
		c3.5,126.7,4.1,233.5,4.2,264.9H405.8z"/>
	<path class="st1" d="M742.8,428.9v-55.4H729V239.6c0-2.5-2.1-4.6-4.6-4.6c-2.5,0-4.6,2.1-4.6,4.6v133.9h-13.8v55.4h-23.1V452h-73.9
		v-23.1h-23.1v-55.4H572V239.6c0-2.5-2.1-4.6-4.6-4.6c-2.5,0-4.6,2.1-4.6,4.6v133.9h-13.8v55.4h-23.1v46.2v9.2v443.2h36.9H729h36.9
		V484.3v-9.2v-46.2H742.8z M715.1,382.7h4.6h9.2h4.6v46.2h-18.5V382.7z M682.8,461.2v13.8h-73.9v-13.8H682.8z M558.2,382.7h4.6h9.2
		h4.6v46.2h-18.5V382.7z M535.1,438.1h13.8h36.9h13.8V452v23.1h-64.6V438.1z M572,918.2v-18.5h147.7v18.5H572z M719.7,530.5H669
		h-46.2H572V512h147.7V530.5z M632,650.5v-9.2v-18.5v-9.2v-18.5v-9.2v-18.5v-9.2v-18.5h27.7v18.5v9.2v18.5v9.2v18.5v9.2v18.5v9.2
		V669H632V650.5z M669,650.5h50.8V669H669V650.5z M669,641.3v-18.5h50.8v18.5H669z M669,613.6v-18.5h50.8v18.5H669z M669,585.9
		v-18.5h50.8v18.5H669z M669,558.2v-18.5h50.8v18.5H669z M622.8,539.7v18.5H572v-18.5H622.8z M622.8,567.4v18.5H572v-18.5H622.8z
		 M622.8,595.1v18.5H572v-18.5H622.8z M622.8,622.8v18.5H572v-18.5H622.8z M622.8,650.5V669H572v-18.5H622.8z M622.8,678.2H669h50.8
		v18.5H572v-18.5H622.8z M719.7,705.9v18.5H572v-18.5H719.7z M719.7,733.6V752H572v-18.5H719.7z M719.7,761.3v18.5H572v-18.5H719.7z
		 M719.7,789v18.5H572V789H719.7z M719.7,816.7v18.5H572v-18.5H719.7z M719.7,844.4v18.5H572v-18.5H719.7z M719.7,872.1v18.5H572
		v-18.5H719.7z M756.7,918.2H729v-18.5v-9.2v-18.5v-9.2v-18.5v-9.2v-18.5v-9.2V789v-9.2v-18.5V752v-18.5v-9.2v-18.5v-9.2v-18.5V669
		v-18.5v-9.2v-18.5v-9.2v-18.5v-9.2v-18.5v-9.2v-18.5v-9.2v-27.7H562.8v27.7v9.2v18.5v9.2v18.5v9.2v18.5v9.2v18.5v9.2V669v9.2v18.5
		v9.2v18.5v9.2V752v9.2v18.5v9.2v18.5v9.2v18.5v9.2v18.5v9.2v18.5v9.2v18.5h-27.7V484.3h64.6h9.2h73.9h9.2h64.6V918.2z M692,475.1
		V452v-13.8h13.8h36.9h13.8v36.9H692z"/>
	<g>
		<polygon class="st1" points="927.5,918.2 96.5,918.2 96.5,927.5 927.5,927.5 927.5,918.2 		"/>
	</g>
	<g>
		<path class="st1" d="M184.2,193.5c2.5,0,4.6-2.1,4.6-4.6c0-20.4-16.6-36.9-36.9-36.9S115,168.5,115,188.9c0,2.5,2.1,4.6,4.6,4.6
			s4.6-2.1,4.6-4.6c0-15.3,12.4-27.7,27.7-27.7s27.7,12.4,27.7,27.7C179.6,191.4,181.7,193.5,184.2,193.5z"/>
		<path class="st1" d="M230.4,202.7c0-2.5-2.1-4.6-4.6-4.6h-46.2c-2.5,0-4.6,2.1-4.6,4.6c0,2.5,2.1,4.6,4.6,4.6h46.2
			C228.3,207.3,230.4,205.3,230.4,202.7z"/>
		<path class="st1" d="M239.6,216.6h-27.7c-2.5,0-4.6,2.1-4.6,4.6c0,2.5,2.1,4.6,4.6,4.6h27.7c2.5,0,4.6-2.1,4.6-4.6
			C244.3,218.6,242.2,216.6,239.6,216.6z"/>
		<path class="st1" d="M913.6,211.9h-41.9c-2.3-18.2-17.8-32.3-36.6-32.3c-14,0-26.6,7.8-32.9,20.2c-1.9,3.8-3.2,7.9-3.7,12.1h-14.1
			c-2.5,0-4.6,2.1-4.6,4.6c0,2.5,2.1,4.6,4.6,4.6h18.5c2.6,0,4.6-2.1,4.6-4.6c0-4.4,1-8.6,3-12.5c4.8-9.4,14.2-15.2,24.7-15.2
			c15.3,0,27.7,12.4,27.7,27.7c0,0.6,0.1,1.2,0.4,1.8c0.7,1.7,2.3,2.8,4.3,2.8h46.2c2.5,0,4.6-2.1,4.6-4.6
			C918.2,214,916.2,211.9,913.6,211.9z"/>
		<path class="st1" d="M599.7,128.9c-6.7,0-12.9,2.9-17.2,7.7c-5.8-12.7-18.7-21.6-33.6-21.6c-14,0-26.6,7.8-32.9,20.2
			c-1.9,3.8-3.2,7.9-3.7,12.1h-14.1c-2.5,0-4.6,2.1-4.6,4.6c0,2.5,2.1,4.6,4.6,4.6h18.5c2.5,0,4.6-2.1,4.6-4.6c0-4.4,1-8.6,3-12.5
			c4.8-9.4,14.2-15.2,24.7-15.2c15.3,0,27.7,12.4,27.7,27.7c0,2.5,2.1,4.6,4.6,4.6s4.6-2.1,4.6-4.6c0-2.2,0.5-4.3,1.5-6.3
			c2.4-4.7,7.1-7.6,12.4-7.6c7.6,0,13.8,6.2,13.8,13.8c0,2.5,2.1,4.6,4.6,4.6c2.5,0,4.6-2.1,4.6-4.6
			C622.8,139.2,612.4,128.9,599.7,128.9z"/>
		<circle class="st1" cx="484.3" cy="151.9" r="4.6"/>
	</g>
	<g>
		<rect x="705.9" y="447.9" class="st0" width="36.9" height="3.5"/>
		<rect x="705.9" y="461.8" class="st0" width="36.9" height="3.5"/>
		<rect x="548.9" y="447.9" class="st0" width="36.9" height="3.5"/>
		<rect x="548.9" y="461.8" class="st0" width="36.9" height="3.5"/>
	</g>
</g>
</svg>
