<?xml version="1.0" encoding="utf-8"?>
<!-- Generator: Adobe Illustrator 21.0.0, SVG Export Plug-In . SVG Version: 6.00 Build 0)  -->
<svg version="1.1" id="图层_1" xmlns="http://www.w3.org/2000/svg" xmlns:xlink="http://www.w3.org/1999/xlink" x="0px" y="0px"
	 viewBox="0 0 1024 1024" style="enable-background:new 0 0 1024 1024;" xml:space="preserve">
<style type="text/css">
	.st0{fill:#4B5CC4;}
	.st1{fill:#70F3FF;}
</style>
<g>
	<g>
		<rect x="64.2" y="887.4" class="st0" width="895.6" height="9"/>
	</g>
	<g>
		<g>
			<path class="st0" d="M521,480.3V512v9h9h4.5v9h-4.5h-9v9v88.7c0,25.8,13.9,49.8,36.2,62.7l341.1,196.9h-36.2l-13.6-7.8L561.8,714
				c-15.1-8.7-32.3-13.3-49.8-13.3c-17.4,0-34.6,4.6-49.8,13.3L175.4,879.6l-13.5,7.8h-36.2l341.1-196.9
				c22.3-12.9,36.2-36.9,36.2-62.7v-88.7v-9h-9h-4.5v-9h4.5h9v-9v-31.7H521 M530.1,471.3h-36.2V512h-13.6v27.1h13.6v88.7
				c0,22.6-12.1,43.5-31.7,54.8L107.6,887.4l-2.7,1.6l0,7.5h59.4l15.7-9l286.8-165.6c14-8.1,29.6-12.1,45.2-12.1s31.2,4,45.2,12.1
				l286.8,165.6l15.7,9h59.4l0-7.5l-2.7-1.6L561.8,682.7c-19.6-11.3-31.7-32.2-31.7-54.8v-88.7h13.6V512h-13.6V471.3L530.1,471.3z"
				/>
		</g>
	</g>
	<g>
		<g>
			<path class="st0" d="M639.1,775.6c-2.2,1.1-4.3,2.2-6.5,3.2c-1.4,0.6-2.7,1.3-4.1,1.9c-2.2,1-4.4,2-6.6,2.9l-6.9,24.8l-21.2-14.6
				c-2.3,0.7-4.6,1.4-6.9,2c-1.4,0.4-2.9,0.8-4.4,1.2c-2.3,0.6-4.6,1.2-7,1.7l-11.1,23.2L545.8,804c-2.4,0.3-4.7,0.5-7.1,0.8
				c-1.5,0.1-3.1,0.3-4.6,0.4c-2.4,0.2-4.7,0.4-7.1,0.5l-15,21l-15-21c-2.4-0.1-4.8-0.3-7.1-0.5c-1.5-0.1-3.1-0.3-4.6-0.4
				c-2.4-0.2-4.7-0.5-7.1-0.8l-18.5,18.1l-11.1-23.2c-2.4-0.5-4.7-1.1-7-1.7c-1.5-0.4-3-0.8-4.4-1.2c-2.4-0.6-4.6-1.3-6.9-2
				L409,808.5l-6.9-24.8c-2.3-1-4.5-1.9-6.6-2.9c-1.4-0.6-2.8-1.3-4.1-1.9c-2.2-1-4.3-2.1-6.5-3.2l-23.4,10.7l-0.3-3.5l-8.6,5
				l1.2,12l38.6-17.6l11.4,40.9l35-24l18.3,38.3l30.3-29.8l24.7,34.6l24.7-34.6l30.3,29.8l18.3-38.3l35,24l11.4-40.9l38.6,17.6
				l1.2-12l-8.6-5l-0.3,3.5L639.1,775.6L639.1,775.6z"/>
		</g>
		<g>
			<path class="st0" d="M512,208.9l-24.7,34.6L457,213.7L438.7,252l-35-24L392.3,269l-38.6-17.6l-4.1,42.3L308.5,283l3.3,42.3
				l-42.3-3.3l10.6,41.2l-42.3,4.1l17.6,38.6l-40.9,11.4l24,35l-38.3,18.3l29.8,30.3l-34.6,24.7l34.6,24.7l-29.8,30.3l38.3,18.3
				l-24,35l40.9,11.4l-17.6,38.6l42.3,4.1l-10.6,41.2l42.3-3.3l-3.3,42.3l10.5-2.7l25.7-14.8c-0.4-0.2-0.8-0.5-1.1-0.8l-25,6.5
				l2-25.8c-1.7-1.6-3.4-3.3-5.1-4.9c-1.1-1.1-2.2-2.2-3.3-3.3c-1.7-1.7-3.3-3.4-4.9-5.1l-25.8,2l6.5-25c-1.4-1.9-2.8-3.8-4.2-5.7
				c-0.9-1.3-1.8-2.5-2.7-3.8c-1.4-1.9-2.7-3.9-4-5.9l-25.7-2.5l10.7-23.4c-1.1-2.2-2.2-4.3-3.2-6.5c-0.6-1.4-1.3-2.7-1.9-4.1
				c-1-2.2-2-4.4-2.9-6.6l-24.8-6.9l14.6-21.2c-0.7-2.3-1.4-4.6-2-6.9c-0.4-1.4-0.8-2.9-1.2-4.4c-0.6-2.3-1.2-4.6-1.7-7l-23.2-11.1
				l18.1-18.5c-0.3-2.4-0.5-4.7-0.8-7.1c-0.1-1.5-0.3-3.1-0.4-4.6c-0.2-2.4-0.4-4.7-0.5-7.1l-21-15l21-15c0.1-2.4,0.3-4.8,0.5-7.1
				c0.1-1.5,0.3-3.1,0.4-4.6c0.2-2.4,0.5-4.7,0.8-7.1l-18.1-18.5l23.2-11.1c0.5-2.4,1.1-4.7,1.7-7c0.4-1.5,0.8-3,1.2-4.4
				c0.6-2.4,1.3-4.6,2-6.9l-14.6-21.2l24.8-6.9c0.9-2.3,1.9-4.5,2.9-6.6c0.6-1.4,1.3-2.8,1.9-4.1c1-2.2,2.1-4.3,3.2-6.5L251.3,375
				l25.7-2.5c1.3-2,2.6-4,4-5.9c0.9-1.3,1.8-2.5,2.7-3.8c1.4-1.9,2.8-3.8,4.2-5.7l-6.5-25l25.8,2c1.6-1.7,3.3-3.4,4.9-5.1
				c1.1-1.1,2.2-2.2,3.3-3.3c1.7-1.7,3.4-3.3,5.1-4.9l-2-25.8l25,6.5c1.9-1.4,3.8-2.8,5.7-4.2c1.3-0.9,2.5-1.8,3.8-2.7
				c1.9-1.4,3.9-2.7,5.9-4l2.5-25.7l23.4,10.7c2.2-1.1,4.3-2.2,6.5-3.2c1.4-0.6,2.7-1.3,4.1-1.9c2.2-1,4.4-2,6.6-2.9l6.9-24.8
				l21.2,14.6c2.3-0.7,4.6-1.4,6.9-2c1.4-0.4,2.9-0.8,4.4-1.2c2.3-0.6,4.6-1.2,7-1.7l11.1-23.2l18.5,18.1c2.4-0.3,4.7-0.5,7.1-0.8
				c1.5-0.1,3.1-0.3,4.6-0.4c2.4-0.2,4.7-0.4,7.1-0.5l15-21l15,21c2.4,0.1,4.8,0.3,7.1,0.5c1.5,0.1,3.1,0.3,4.6,0.4
				c2.4,0.2,4.7,0.5,7.1,0.8l18.5-18.1l11.1,23.2c2.4,0.5,4.7,1.1,7,1.7c1.5,0.4,3,0.8,4.4,1.2c2.4,0.6,4.6,1.3,6.9,2l21.2-14.6
				l6.9,24.8c2.3,0.9,4.5,1.9,6.6,2.9c1.4,0.6,2.8,1.3,4.1,1.9c2.2,1,4.3,2.1,6.5,3.2l23.4-10.7l2.5,25.7c2,1.3,4,2.6,5.9,4
				c1.3,0.9,2.5,1.8,3.8,2.7c1.9,1.4,3.8,2.8,5.7,4.2l25-6.5l-2,25.8c1.7,1.6,3.4,3.3,5.1,4.9c1.1,1.1,2.2,2.2,3.3,3.3
				c1.7,1.7,3.3,3.4,4.9,5.1l25.8-2l-6.5,25c1.4,1.9,2.8,3.8,4.2,5.7c0.9,1.3,1.8,2.5,2.7,3.8c1.4,1.9,2.7,3.9,4,5.9l25.7,2.5
				L762,398.5c1.1,2.2,2.2,4.3,3.2,6.5c0.6,1.4,1.3,2.7,1.9,4.1c1,2.2,2,4.4,2.9,6.6l24.8,6.9l-14.6,21.2c0.7,2.3,1.4,4.6,2,6.9
				c0.4,1.4,0.8,2.9,1.2,4.4c0.6,2.3,1.2,4.6,1.7,7l23.2,11.1l-18.1,18.5c0.3,2.4,0.5,4.7,0.8,7.1c0.1,1.5,0.3,3.1,0.4,4.6
				c0.2,2.4,0.4,4.7,0.5,7.1l21,15l-21,15c-0.1,2.4-0.3,4.8-0.5,7.1c-0.1,1.5-0.3,3.1-0.4,4.6c-0.2,2.4-0.5,4.7-0.8,7.1l18.1,18.5
				L785.3,589c-0.5,2.4-1.1,4.7-1.7,7c-0.4,1.5-0.8,3-1.2,4.4c-0.6,2.4-1.3,4.6-2,6.9l14.6,21.2l-24.8,6.9c-0.9,2.3-1.9,4.5-2.9,6.6
				c-0.6,1.4-1.3,2.8-1.9,4.1c-1,2.2-2.1,4.3-3.2,6.5l10.7,23.4l-25.7,2.5c-1.3,2-2.6,4-4,5.9c-0.9,1.3-1.8,2.5-2.7,3.8
				c-1.4,1.9-2.8,3.8-4.2,5.7l6.5,25l-25.8-2c-1.6,1.7-3.3,3.4-4.9,5.1c-1.1,1.1-2.2,2.2-3.3,3.3c-1.7,1.7-3.4,3.3-5.1,4.9l2,25.8
				l-25-6.5c-0.4,0.3-0.8,0.6-1.1,0.8l25.7,14.8l10.5,2.7l-3.3-42.3l42.3,3.3L743.9,688l42.3-4.1l-17.6-38.6l40.9-11.4l-24-35
				l38.3-18.3l-29.8-30.3l34.6-24.7l-34.6-24.7l29.8-30.3l-38.3-18.3l24-35l-40.9-11.4l17.6-38.6l-42.3-4.1l10.6-41.2l-42.3,3.3
				l3.3-42.3l-41.2,10.6l-4.1-42.3L631.7,269L620.3,228l-35,24L567,213.7l-30.3,29.8L512,208.9L512,208.9z"/>
		</g>
	</g>
	<g>
		<g>
			<g>
				<rect x="509.7" y="245.1" class="st0" width="4.5" height="226.2"/>
			</g>
			<g>
				<path class="st0" d="M509.7,709.8c1.5,0,3,0,4.5,0V806h-4.5V709.8z"/>
			</g>
		</g>
		<g>
			<g>
				<polygon class="st0" points="441.6,254.1 499.8,471.3 495.1,471.3 437.2,255.3 				"/>
			</g>
			<g>
				<path class="st0" d="M555.3,678.4c-2.2-1.6-4.2-3.4-6.1-5.3l-19.1-71.2v-17.6L555.3,678.4z"/>
			</g>
			<g>
				<polygon class="st0" points="586.8,795.9 582.4,797.1 563.2,725.2 568.7,728.4 				"/>
			</g>
		</g>
		<g>
			<g>
				<polygon class="st0" points="373.7,281.6 493.9,489.7 493.9,498.7 369.8,283.8 				"/>
			</g>
			<g>
				<polygon class="st0" points="627.1,720.4 619.3,715.9 530.1,561.4 530.1,552.4 				"/>
			</g>
		</g>
		<g>
			<g>
				<polygon class="st0" points="315.3,325.7 493.9,504.3 493.9,510.6 312.1,328.9 				"/>
			</g>
			<g>
				<polygon class="st0" points="711.9,722.3 708.7,725.5 530.1,546.8 530.1,540.5 				"/>
			</g>
		</g>
		<g>
			<g>
				<polygon class="st0" points="270.3,383.4 493,512 484,512 268,387.3 				"/>
			</g>
			<g>
				<polygon class="st0" points="756,663.8 753.7,667.7 531,539.1 540,539.1 				"/>
			</g>
		</g>
		<g>
			<g>
				<polygon class="st0" points="241.7,450.8 480.3,514.7 480.3,519.4 240.5,455.2 				"/>
			</g>
			<g>
				<polygon class="st0" points="783.5,596 782.3,600.3 543.7,536.4 543.7,531.7 				"/>
			</g>
		</g>
		<g>
			<g>
				<rect x="231.6" y="523.3" class="st0" width="248.8" height="4.5"/>
			</g>
			<g>
				<rect x="543.7" y="523.3" class="st0" width="248.8" height="4.5"/>
			</g>
		</g>
		<g>
			<g>
				<polygon class="st0" points="240.5,596 480.3,531.7 480.3,536.4 241.7,600.3 				"/>
			</g>
			<g>
				<polygon class="st0" points="783.5,455.2 543.7,519.4 543.7,514.7 782.3,450.8 				"/>
			</g>
		</g>
		<g>
			<g>
				<polygon class="st0" points="484,539.1 493,539.1 270.3,667.7 268,663.8 				"/>
			</g>
			<g>
				<polygon class="st0" points="756,387.3 540,512 531,512 753.7,383.4 				"/>
			</g>
		</g>
		<g>
			<g>
				<polygon class="st0" points="312.1,722.3 493.9,540.5 493.9,546.8 315.3,725.5 				"/>
			</g>
			<g>
				<polygon class="st0" points="711.9,328.9 530.1,510.6 530.1,504.3 708.7,325.7 				"/>
			</g>
		</g>
		<g>
			<g>
				<polygon class="st0" points="396.9,720.4 493.9,552.4 493.9,561.4 404.8,715.9 404.7,715.9 				"/>
			</g>
			<g>
				<polygon class="st0" points="654.2,283.8 530.1,498.7 530.1,489.7 650.3,281.6 				"/>
			</g>
		</g>
		<g>
			<g>
				<polygon class="st0" points="460.8,725.2 441.6,797.1 437.2,795.9 455.3,728.4 455.3,728.4 				"/>
			</g>
			<g>
				<path class="st0" d="M468.7,678.4l25.2-94v17.6l-19.1,71.2C472.9,675,470.9,676.7,468.7,678.4z"/>
			</g>
			<g>
				<polygon class="st0" points="586.8,255.3 528.9,471.3 524.2,471.3 582.4,254.1 				"/>
			</g>
		</g>
	</g>
	<g>
		<g>
			<g>
				<path class="st0" d="M512,208.9c-174.9,0-316.6,141.8-316.6,316.6c0,98.5,45,186.5,115.4,244.5l8.5-4.9
					c-70.1-56.4-114.9-142.8-114.9-239.6c0-169.6,138-307.6,307.6-307.6s307.6,138,307.6,307.6c0,96.8-44.9,183.2-114.9,239.6
					l8.5,4.9C783.7,712,828.6,624,828.6,525.6C828.6,350.7,686.9,208.9,512,208.9z M512,833.2c-58.6,0-113.4-16.5-160.1-45l-9,5.2
					c48.9,31,106.9,48.9,169,48.9s120.1-17.9,169-48.9l-9-5.2C625.4,816.7,570.6,833.2,512,833.2z"/>
			</g>
		</g>
		<g>
			<g>
				<path class="st1" d="M635.6,767.1C598.5,786.2,556.5,797,512,797s-86.5-10.8-123.6-29.9l-9.4,5.4c39.6,21.4,84.9,33.5,133,33.5
					s93.5-12.1,133-33.5L635.6,767.1z M512,245.1c-154.9,0-280.4,125.6-280.4,280.4c0,92.1,44.5,173.9,113.1,225l8.7-5
					c-68.3-49.3-112.7-129.6-112.7-220c0-149.6,121.8-271.4,271.4-271.4s271.4,121.8,271.4,271.4c0,90.4-44.5,170.7-112.7,220l8.7,5
					c68.6-51.1,113.1-132.8,113.1-225C792.4,370.7,666.9,245.1,512,245.1z"/>
			</g>
		</g>
	</g>
	<g>
		<path class="st0" d="M837.7,236.1c-2.5,0-4.5-2-4.5-4.5c0-15-12.2-27.1-27.1-27.1s-27.1,12.2-27.1,27.1c0,2.5-2,4.5-4.5,4.5
			s-4.5-2-4.5-4.5c0-20,16.2-36.2,36.2-36.2s36.2,16.2,36.2,36.2C842.2,234.1,840.2,236.1,837.7,236.1z"/>
	</g>
	<g>
		<path class="st0" d="M881.9,249.6h-52.3c-0.6,0-1-0.4-1-1v-7c0-0.6,0.4-1,1-1h52.3c0.6,0,1,0.4,1,1v7
			C882.9,249.2,882.5,249.6,881.9,249.6z"/>
	</g>
	<g>
		<path class="st0" d="M895.5,267.7h-34.2c-0.6,0-1-0.4-1-1v-7c0-0.6,0.4-1,1-1h34.2c0.6,0,1,0.4,1,1v7
			C896.5,267.3,896,267.7,895.5,267.7z"/>
	</g>
	<g>
		<g>
			<path class="st0" d="M254.2,168.2c-2.5,0-4.5-2-4.5-4.5c0-15-12.2-27.1-27.1-27.1c-10.3,0-19.6,5.7-24.2,14.9
				c-1.9,3.8-2.9,7.9-2.9,12.3c0,2.5-2,4.5-4.5,4.5s-4.5-2-4.5-4.5c0-5.8,1.3-11.3,3.9-16.4c6.2-12.2,18.6-19.8,32.3-19.8
				c20,0,36.2,16.2,36.2,36.2C258.7,166.2,256.7,168.2,254.2,168.2z"/>
		</g>
		<g>
			<path class="st0" d="M290.4,168.2c-2.5,0-4.5-2-4.5-4.5c0-7.5-6.1-13.6-13.6-13.6c-5.1,0-9.8,2.8-12.1,7.4c-1,1.9-1.5,4-1.5,6.1
				c0,2.5-2,4.5-4.5,4.5s-4.5-2-4.5-4.5c0-3.5,0.8-7.1,2.4-10.2c3.9-7.6,11.6-12.4,20.2-12.4c12.5,0,22.6,10.1,22.6,22.6
				C294.9,166.2,292.9,168.2,290.4,168.2z"/>
		</g>
		<g>
			<path class="st0" d="M194.4,168.2h-25.1c-0.6,0-1-0.4-1-1v-7c0-0.6,0.4-1,1-1h25.1c0.6,0,1,0.4,1,1v7
				C195.4,167.8,194.9,168.2,194.4,168.2z"/>
		</g>
		<g>
			<path class="st0" d="M162.7,168.2h-7c-0.6,0-1-0.4-1-1v-7c0-0.6,0.4-1,1-1h7c0.6,0,1,0.4,1,1v7
				C163.7,167.8,163.3,168.2,162.7,168.2z"/>
		</g>
	</g>
	<g>
		<rect x="507.5" y="484.9" class="st1" width="9" height="36.2"/>
	</g>
</g>
</svg>
