<?xml version="1.0" encoding="utf-8"?>
<!-- Generator: Adobe Illustrator 21.0.0, SVG Export Plug-In . SVG Version: 6.00 Build 0)  -->
<svg version="1.1" id="图层_1" xmlns="http://www.w3.org/2000/svg" xmlns:xlink="http://www.w3.org/1999/xlink" x="0px" y="0px"
	 viewBox="0 0 1024 1024" style="enable-background:new 0 0 1024 1024;" xml:space="preserve">
<style type="text/css">
	.st0{fill:#70F3FF;}
	.st1{fill:#4B5CC4;}
</style>
<g>
	<g>
		<path class="st0" d="M551.3,821.9l-7.1,14.2h-64.4l-7.1-14.2C498.9,823.9,525.1,823.9,551.3,821.9z"/>
	</g>
	<g>
		<path class="st0" d="M551.3,821.9l-7.1,14.2h-64.4l-7.1-14.2C498.9,823.9,525.1,823.9,551.3,821.9z"/>
	</g>
	<g>
		<rect x="98.3" y="882" class="st1" width="827.4" height="9.2"/>
	</g>
	<g>
		<path class="st1" d="M161.2,790.1L161.2,790.1c0.9,0.6,1.9,1.1,3,1.6C163.2,791.2,162.2,790.7,161.2,790.1L161.2,790.1z"/>
	</g>
	<g>
		<path class="st1" d="M168.8,868.2c1.4,2.6,2.6,5,3.6,6.9C171.4,873.1,170.2,870.8,168.8,868.2L168.8,868.2z"/>
	</g>
	<g>
		<path class="st1" d="M165.5,861.8c1.2,2.3,2.3,4.4,3.4,6.4C167.8,866.2,166.6,864,165.5,861.8L165.5,861.8z"/>
	</g>
	<g>
		<rect x="498.2" y="863.6" class="st1" width="27.6" height="9.2"/>
	</g>
	<path class="st1" d="M651,844.3l-74.7,0.6c-22.3,0.2-40.8,16.1-45,37.1h-38.6c-4.2-21.1-22.8-37-45-37.1l-74.7-0.6
		c-94.6-0.8-186.6-30.9-263.2-86.4L181,891.2h303.4h9.2h36.8h9.2H843l71.2-133.3C837.6,813.4,745.6,843.5,651,844.3z M186.5,882
		l-51.4-96.2c71.6,43.7,153.1,67,237.8,67.7l74.7,0.6c17.1,0.1,31.6,12,35.7,27.9H186.5z M837.5,882H540.7
		c4.1-15.9,18.5-27.8,35.7-27.9l74.7-0.6c84.7-0.7,166.2-24,237.8-67.7L837.5,882z"/>
	<g>
		<path class="st1" d="M801.4,790.1c-2.2-50.6-4.4-106.9-4.4-135.6c0-51.2,6.9-190.6,8.7-227.5h0.5l13.8-87.3h-0.5l2.2-32l-9.2-0.6
			l-2.3,32.7h-17.9h-9.2h-23H751h-23h-9.2h-18.2l2.4-34.8l-9.1-0.6l-2.5,35.4h-0.1l0.1,0.6l-20.7,295.9l-0.1,0.4l0,0l-10.7,153.5
			h-28.4c-18.5,0-35.9,5.1-50.8,13.8h-20.5l3.1-6.1c2.3-0.2,4.5-0.4,6.8-0.7l20-2.4l27.6-32.2c-34.8,7.6-70.3,11.4-105.7,11.4
			s-70.9-3.8-105.7-11.4l27.6,32.2l20,2.4c2.3,0.3,4.5,0.5,6.8,0.7l3.1,6.1h-20.5c-14.9-8.7-32.3-13.8-50.8-13.8h-28.4l-10.7-153.5
			l0,0l-0.1-0.4l-20.7-295.9l0.1-0.6h-0.1l-2.5-35.4l-9.1,0.6l2.4,34.8h-18.2H296h-23h-9.2h-23h-9.2h-17.9l-2.3-32.7l-9.2,0.6
			l2.2,32H204l13.8,87.3h0.5c1.9,37,8.7,176.4,8.7,227.5c0,28.7-2.2,85.1-4.4,135.6h-61.5c6,3.2,12,6.3,18.1,9.2h43l92.3,0
			c0,0,0,0,0,0h41h9.2h27.8c38.2,0,71.1,23.4,84.9,56.7c9.3,7.9,15.4,19.5,16.1,32.5c-0.8-30.4-15-57.4-36.9-75.4h11.7l11.5,23h64.4
			l11.5-23h11.7c-21.9,18-36.1,45-36.9,75.4c0.7-13,6.8-24.6,16.1-32.5c13.8-33.3,46.7-56.7,84.9-56.7h27.8h9.2h41c0,0,0,0,0,0
			l92.3,0h43c6.1-2.9,12.1-6,18.1-9.2H801.4z M326.3,380.6l17.5,250.9l-29.7,11.4l30.2-4.8l3,42.4l-35.9,13.7l36.4-5.8l2.9,41.5
			l-38.5,14.3c-1.4-35.8-2.5-69.5-2.5-89.6c0-51.2,6.9-190.6,8.7-227.5h0.5L326.3,380.6z M304.2,348.8H322l-10.9,69h-14.2
			L304.2,348.8z M273,348.8h22l-7.3,69H273V348.8z M263.8,348.8v69H249l-7.3-69H263.8z M225.7,417.8l-10.9-69h17.8l7.3,69H225.7z
			 M227.5,427h13.3h9.2h13.8h9.2h13.8h9.2h13.3c-1.9,37.9-8.7,176.7-8.7,227.5c0,29.4,2.3,88.1,4.4,135.6h-18.2V578.7
			c0-2.5-2.1-4.6-4.6-4.6c-2.5,0-4.6,2.1-4.6,4.6v211.4h-18.4V578.7c0-2.5-2.1-4.6-4.6-4.6c-2.5,0-4.6,2.1-4.6,4.6v211.4h-18.2
			c2.1-47.5,4.4-106.2,4.4-135.6C236.2,603.7,229.4,464.9,227.5,427z M314.1,790.1c-0.7-14.9-1.3-30.2-1.9-45.3l39-6.6l3.6,51.9
			H314.1z M538.5,826.9h-53l-14-28.1c1.3,0.1,2.6,0.1,4,0.2c4.6,0.3,9.1,0.6,13.7,0.8c1.4,0.1,2.9,0.1,4.3,0.2
			c6.2,0.2,12.3,0.4,18.5,0.4c6.2,0,12.3-0.2,18.5-0.4c1.4-0.1,2.9-0.1,4.3-0.2c4.6-0.2,9.1-0.5,13.7-0.8c1.3-0.1,2.6-0.1,4-0.2
			L538.5,826.9z M540.8,790.4c-0.1,0-0.2,0-0.3,0c-2.4,0.1-4.9,0.2-7.3,0.3c-7.1,0.3-14.2,0.5-21.3,0.5c-7.1,0-14.2-0.2-21.3-0.5
			c-2.4-0.1-4.9-0.2-7.3-0.3c-0.1,0-0.2,0-0.3,0c-9.4-0.6-18.9-1.4-28.2-2.5l-16.4-1.9l-8.2-9.5c27,4.4,54.4,6.6,81.7,6.6
			s54.7-2.2,81.7-6.6l-8.2,9.5l-16.4,1.9C559.7,789,550.3,789.8,540.8,790.4z M791.4,348.8h17.8l-10.9,69h-14.2L791.4,348.8z
			 M760.2,348.8h22l-7.3,69h-14.8V348.8z M751,348.8v69h-14.8l-7.3-69H751z M737.2,427H751h9.2H774h9.2h13.3
			c-1.9,37.9-8.7,176.7-8.7,227.5c0,29.4,2.3,88.1,4.4,135.6H774V578.7c0-2.5-2.1-4.6-4.6-4.6c-2.5,0-4.6,2.1-4.6,4.6v211.4h-18.4
			V578.7c0-2.5-2.1-4.6-4.6-4.6c-2.5,0-4.6,2.1-4.6,4.6v211.4h-18.2c2.1-47.5,4.4-106.2,4.4-135.6c0-50.8-6.8-189.6-8.7-227.5H728
			H737.2z M719.8,348.8l7.3,69h-14.2l-10.9-69H719.8z M676.2,688.3l36.4,5.8l-35.9-13.7l3-42.4l30.2,4.8l-29.7-11.4l17.5-250.9
			l7.3,46.4h0.5c1.9,37,8.7,176.4,8.7,227.5c0,20.1-1.1,53.8-2.5,89.6l-38.5-14.3L676.2,688.3z M669.1,790.1l3.6-51.9l39,6.6
			c-0.6,15-1.2,30.4-1.9,45.3H669.1z"/>
		<path class="st1" d="M521.2,808.5h-18.4c-2.5,0-4.6,2.1-4.6,4.6c0,2.5,2.1,4.6,4.6,4.6h18.4c2.5,0,4.6-2.1,4.6-4.6
			C525.8,810.5,523.7,808.5,521.2,808.5z"/>
		<path class="st1" d="M286.8,537.3H250v27.6h36.8V537.3z M277.6,555.7h-18.4v-9.2h18.4V555.7z"/>
		<path class="st1" d="M268.4,528.1c2.5,0,4.6-2.1,4.6-4.6v-78.1c0-2.5-2.1-4.6-4.6-4.6s-4.6,2.1-4.6,4.6v78.1
			C263.8,526,265.8,528.1,268.4,528.1z"/>
		<path class="st1" d="M774,537.3h-36.8v27.6H774V537.3z M764.8,555.7h-18.4v-9.2h18.4V555.7z"/>
		<path class="st1" d="M755.6,528.1c2.5,0,4.6-2.1,4.6-4.6v-78.1c0-2.5-2.1-4.6-4.6-4.6c-2.5,0-4.6,2.1-4.6,4.6v78.1
			C751,526,753.1,528.1,755.6,528.1z"/>
	</g>
	<g>
		<path class="st0" d="M493.1,882h-0.4c0-0.2-0.1-0.4-0.1-0.6c-0.2-1-0.5-2-0.7-2.9c-0.1-0.3-0.1-0.6-0.3-0.8c-0.3-1-0.6-2-1-3
			c0-0.1,0-0.2-0.1-0.3c-0.4-1-0.8-2-1.3-2.9c-0.6-1.5-1.4-2.9-2.3-4.2c-0.6-1.1-1.3-2.1-2.1-3.1c-0.7-1.1-1.6-2.1-2.4-3
			c-0.6-0.8-1.3-1.6-2.1-2.3c-0.3-0.3-0.6-0.6-1-1c-0.6-0.6-1.3-1.2-2-1.8c-8-6.8-18.4-11-29.7-11.1l-74.7-0.6
			c-47.3-0.4-94-8.1-138.4-22.7c-18.9-6.2-37.4-13.7-55.4-22.3c-2.5-1.2-5-2.4-7.4-3.7c-2.5-1.3-5.1-2.6-7.6-3.9c-1-0.5-2-1.1-3-1.6
			c-16.5-8.9-32.6-18.8-48-29.7c0,0.9,29.6,57.8,48.1,93.5c-19.9-37.6-52.6-99.6-53.6-101.9c21.5,14.6,44,27.4,67.5,38.2
			c7,3.3,14.1,6.3,21.3,9.2c9.7,3.9,19.4,7.4,29.3,10.7c46,15.1,94.2,23.1,143.1,23.5l77.3,0.6c8.2,0.1,16,2.2,22.7,5.9
			c9.1,5,16.4,12.8,20.6,22.3C491.3,868.7,492.6,875.2,493.1,882z"/>
	</g>
	<g>
		<path class="st0" d="M530.9,882h0.4c0-0.2,0.1-0.4,0.1-0.6c0.2-1,0.5-2,0.7-2.9c0.1-0.3,0.1-0.6,0.3-0.8c0.3-1,0.6-2,1-3
			c0-0.1,0-0.2,0.1-0.3c0.4-1,0.8-2,1.3-2.9c0.6-1.5,1.4-2.9,2.3-4.2c0.6-1.1,1.3-2.1,2.1-3.1c0.7-1.1,1.6-2.1,2.4-3
			c0.6-0.8,1.3-1.6,2.1-2.3c0.3-0.3,0.6-0.6,1-1c0.6-0.6,1.3-1.2,2-1.8c8-6.8,18.4-11,29.7-11.1l74.7-0.6
			c47.3-0.4,94-8.1,138.4-22.7c18.9-6.2,37.4-13.7,55.4-22.3c2.5-1.2,5-2.4,7.4-3.7c2.5-1.3,5.1-2.6,7.6-3.9c1-0.5,2-1.1,3-1.6
			c16.5-8.9,32.6-18.8,48-29.7c0,0.9-29.6,57.8-48.1,93.5c19.9-37.6,52.6-99.6,53.6-101.9c-21.5,14.6-44,27.4-67.5,38.2
			c-7,3.3-14.1,6.3-21.3,9.2c-9.7,3.9-19.4,7.4-29.3,10.7c-46,15.1-94.2,23.1-143.1,23.5l-77.3,0.6c-8.2,0.1-16,2.2-22.7,5.9
			c-9.1,5-16.4,12.8-20.6,22.3C532.7,868.7,531.4,875.2,530.9,882z"/>
	</g>
	<g>
		<path class="st1" d="M194.8,252.3c2.5,0,4.6-2.1,4.6-4.6c0-20.3-16.5-36.8-36.8-36.8s-36.8,16.5-36.8,36.8c0,2.5,2.1,4.6,4.6,4.6
			c2.5,0,4.6-2.1,4.6-4.6c0-15.2,12.4-27.6,27.6-27.6c15.2,0,27.6,12.4,27.6,27.6C190.2,250.2,192.3,252.3,194.8,252.3z"/>
		<path class="st1" d="M240.8,261.5c0-2.5-2.1-4.6-4.6-4.6h-46c-2.5,0-4.6,2.1-4.6,4.6s2.1,4.6,4.6,4.6h46
			C238.7,266.1,240.8,264,240.8,261.5z"/>
		<path class="st1" d="M250,275.3h-27.6c-2.5,0-4.6,2.1-4.6,4.6s2.1,4.6,4.6,4.6H250c2.5,0,4.6-2.1,4.6-4.6S252.5,275.3,250,275.3z"
			/>
		<path class="st1" d="M470.6,482.1c2.5,0,4.6-2.1,4.6-4.6c0-20.3-16.5-36.8-36.8-36.8s-36.8,16.5-36.8,36.8c0,2.5,2.1,4.6,4.6,4.6
			c2.5,0,4.6-2.1,4.6-4.6c0-15.2,12.4-27.6,27.6-27.6c15.2,0,27.6,12.4,27.6,27.6C466,480.1,468.1,482.1,470.6,482.1z"/>
		<path class="st1" d="M516.6,491.3c0-2.5-2.1-4.6-4.6-4.6h-46c-2.5,0-4.6,2.1-4.6,4.6c0,2.5,2.1,4.6,4.6,4.6h46
			C514.5,495.9,516.6,493.9,516.6,491.3z"/>
		<path class="st1" d="M525.8,505.1h-27.6c-2.5,0-4.6,2.1-4.6,4.6s2.1,4.6,4.6,4.6h27.6c2.5,0,4.6-2.1,4.6-4.6
			S528.3,505.1,525.8,505.1z"/>
		<path class="st1" d="M916.5,201.7h-41.7c-2.3-18.1-17.7-32.2-36.5-32.2c-13.9,0-26.5,7.7-32.8,20.1c-1.9,3.8-3.2,7.8-3.7,12h-14.1
			c-2.5,0-4.6,2.1-4.6,4.6c0,2.5,2.1,4.6,4.6,4.6h18.4c2.5,0,4.6-2.1,4.6-4.6c0-4.4,1-8.6,3-12.5c4.7-9.3,14.2-15.1,24.6-15.1
			c15.2,0,27.6,12.4,27.6,27.6c0,2.5,2.1,4.6,4.6,4.6h46c2.5,0,4.6-2.1,4.6-4.6C921.1,203.8,919,201.7,916.5,201.7z"/>
		<path class="st1" d="M410.9,174.1c2.5,0,4.6-2.1,4.6-4.6c0-2.2,0.5-4.3,1.5-6.2c2.4-4.7,7.1-7.6,12.3-7.6
			c7.6,0,13.8,6.2,13.8,13.8c0,2.5,2.1,4.6,4.6,4.6s4.6-2.1,4.6-4.6c0-12.7-10.3-23-23-23c-6.7,0-12.9,2.9-17.2,7.7
			c-5.8-12.7-18.6-21.5-33.4-21.5c-13.9,0-26.5,7.7-32.8,20.1c-1.9,3.8-3.2,7.8-3.7,12h-14.1c-2.5,0-4.6,2.1-4.6,4.6
			s2.1,4.6,4.6,4.6h18.4c2.5,0,4.6-2.1,4.6-4.6c0-4.4,1-8.6,3-12.5c4.7-9.3,14.2-15.1,24.6-15.1c15.2,0,27.6,12.4,27.6,27.6
			C406.3,172.1,408.3,174.1,410.9,174.1z"/>
		<circle class="st1" cx="314.3" cy="169.5" r="4.6"/>
		<path class="st1" d="M622.3,312c-6.7,0-12.9,2.9-17.2,7.7c-5.8-12.7-18.6-21.5-33.4-21.5c-13.9,0-26.5,7.7-32.8,20.1
			c-1.9,3.8-3.2,7.8-3.7,12h-14.1c-2.5,0-4.6,2.1-4.6,4.6c0,2.5,2.1,4.6,4.6,4.6h18.4c2.5,0,4.6-2.1,4.6-4.6c0-4.4,1-8.6,3-12.5
			c4.7-9.3,14.2-15.1,24.6-15.1c15.2,0,27.6,12.4,27.6,27.6c0,2.5,2.1,4.6,4.6,4.6s4.6-2.1,4.6-4.6c0-2.2,0.5-4.3,1.5-6.2
			c2.4-4.7,7.1-7.6,12.3-7.6c7.6,0,13.8,6.2,13.8,13.8c0,2.5,2.1,4.6,4.6,4.6s4.6-2.1,4.6-4.6C645.3,322.4,635,312,622.3,312z"/>
		<circle class="st1" cx="507.4" cy="335" r="4.6"/>
	</g>
	<g>
		<rect x="246" y="479.8" class="st0" width="3.4" height="41.4"/>
	</g>
	<g>
		<rect x="287.3" y="443" class="st0" width="3.4" height="32.2"/>
	</g>
	<g>
		<rect x="733.2" y="482.1" class="st0" width="3.4" height="41.4"/>
	</g>
	<g>
		<rect x="774.6" y="445.3" class="st0" width="3.4" height="32.2"/>
	</g>
</g>
</svg>
